<!-- Generated by IcoMoon.io -->
<svg version="1.1" xmlns="http://www.w3.org/2000/svg" width="32" height="32" viewBox="0 0 32 32">
<title>account</title>
<path d="M16 2c7.732 0 14 6.268 14 14s-6.268 14-14 14-14-6.268-14-14 6.268-14 14-14zM16 4.1c-6.572 0-11.9 5.328-11.9 11.9s5.328 11.9 11.9 11.9 11.9-5.328 11.9-11.9-5.328-11.9-11.9-11.9zM11.828 10.293c0.181-0.151 0.416-0.243 0.672-0.243 0.323 0 0.613 0.146 0.805 0.376l0.001 0.002 2.693 3.232 2.693-3.232c0.194-0.232 0.483-0.378 0.807-0.378 0.58 0 1.050 0.47 1.050 1.050 0 0.257-0.092 0.492-0.245 0.674l0.001-0.002-2.357 2.828h1.55c0 0 0 0 0 0 0.558 0 1.015 0.436 1.048 0.985l0 0.003 0.002 0.062c0 0.58-0.47 1.050-1.050 1.050v0h-2.275v1.4h2.275c0 0 0 0 0 0 0.558 0 1.015 0.436 1.048 0.985l0 0.003 0.002 0.062c0 0.58-0.47 1.050-1.050 1.050v0h-2.275v1.4c0 0 0 0 0 0 0 0.558-0.436 1.015-0.985 1.048l-0.003 0-0.062 0.002c-0.58 0-1.050-0.47-1.050-1.050v0-1.4h-2.625c-0 0-0 0-0 0-0.558 0-1.015-0.436-1.048-0.985l-0-0.003-0.002-0.062c0-0.58 0.47-1.050 1.050-1.050v0h2.625v-1.4h-2.625c-0 0-0 0-0 0-0.558 0-1.015-0.436-1.048-0.985l-0-0.003-0.002-0.062c0-0.58 0.47-1.050 1.050-1.050v0h1.55l-2.357-2.828c-0.151-0.181-0.243-0.416-0.243-0.672 0-0.3 0.126-0.571 0.328-0.762l0-0z"></path>
</svg>
