<!-- Generated by IcoMoon.io -->
<svg version="1.1" xmlns="http://www.w3.org/2000/svg" width="32" height="32" viewBox="0 0 32 32">
<title>center</title>
<path d="M22.588 2c2.729 0 4.941 2.213 4.941 4.941s-2.212 4.941-4.941 4.941c-1.375 0-2.62-0.562-3.515-1.469l-0-0.001-3.442 2.581c0.231 0.657 0.361 1.361 0.371 2.094l5.656 1.886c0.752-1.092 1.995-1.799 3.403-1.799 2.274 0 4.118 1.844 4.118 4.118s-1.844 4.118-4.118 4.118c-2.261 0-4.097-1.822-4.118-4.078v-0.002l-0.002 0.009-5.379-1.792c-0.386 0.983-0.966 1.816-1.697 2.486l-0.005 0.004 2.55 3.4c0.125-0.017 0.269-0.026 0.415-0.026 1.819 0 3.294 1.475 3.294 3.294s-1.475 3.294-3.294 3.294c-1.819 0-3.294-1.475-3.294-3.294 0-0.774 0.267-1.486 0.714-2.048l-0.005 0.007-2.492-3.325c-0.693 0.27-1.495 0.427-2.333 0.427-3.639 0-6.588-2.95-6.588-6.588s2.95-6.588 6.588-6.588c1.976 0 3.75 0.87 4.957 2.249l0.006 0.008 3.448-2.586c-0.114-0.395-0.179-0.849-0.179-1.319 0-2.729 2.212-4.941 4.941-4.941 0 0 0.001 0 0.001 0h-0zM16.823 25.883c-0.455 0-0.824 0.369-0.824 0.824s0.369 0.824 0.824 0.824v0c0.455 0 0.824-0.369 0.824-0.824s-0.369-0.824-0.824-0.824v0zM25.058 17.647c-0 0-0 0-0 0-0.91 0-1.647 0.737-1.647 1.647s0.737 1.647 1.647 1.647c0 0 0 0 0 0v0c0.91-0 1.647-0.738 1.647-1.647s-0.737-1.647-1.647-1.647v0zM9.411 11.059c-0 0-0 0-0 0-2.274 0-4.118 1.844-4.118 4.118s1.844 4.118 4.118 4.118c0 0 0 0 0 0h-0c2.274-0 4.117-1.844 4.117-4.118s-1.843-4.118-4.117-4.118h-0zM22.588 4.471c-1.364 0-2.471 1.106-2.471 2.471s1.106 2.471 2.471 2.471v0c1.364 0 2.471-1.106 2.471-2.471s-1.106-2.471-2.471-2.471v0z"></path>
</svg>
