<!-- Generated by IcoMoon.io -->
<svg version="1.1" xmlns="http://www.w3.org/2000/svg" width="32" height="32" viewBox="0 0 32 32">
<title>confirm</title>
<path d="M23.806 4.453v2.474h-18.969v18.145h19.794v-9.073l2.474 0.001v-2.476 11.548c0 1.366-1.108 2.474-2.474 2.474v0h-19.794c-1.367 0-2.474-1.108-2.474-2.474v0-18.145c0-1.367 1.108-2.474 2.474-2.474v0h18.969zM27.871 6.062l1.767 1.732-12.202 12.452-6.064-6.238 1.775-1.725 4.296 4.421 10.428-10.642zM26.279 5.084c0.035 0.030 0.068 0.062 0.1 0.094l-0.099 0.1v-0.194z"></path>
</svg>
