<!-- Generated by IcoMoon.io -->
<svg version="1.1" xmlns="http://www.w3.org/2000/svg" width="33" height="32" viewBox="0 0 33 32">
<title>delete</title>
<path d="M29.792 5.493h-26.273c-0.482 0-0.873 0.391-0.873 0.873s0.391 0.873 0.873 0.873v0h2.737v18.121c0.004 2.559 2.076 4.632 4.633 4.639h11.66c2.56-0.004 4.635-2.079 4.638-4.639v-4.949c0-0.482-0.391-0.873-0.873-0.873s-0.873 0.391-0.873 0.873v0 4.948c0 1.595-1.296 2.893-2.891 2.893h-11.659c-1.596-0.003-2.889-1.296-2.891-2.892v-18.121h17.443v7.787c0 0.482 0.391 0.873 0.873 0.873s0.873-0.391 0.873-0.873v0-7.787h2.603c0.482 0 0.873-0.391 0.873-0.873s-0.391-0.873-0.873-0.873v0z"></path>
<path d="M13.017 3.747h7.689c0.482 0 0.873-0.391 0.873-0.873s-0.391-0.873-0.873-0.873h-7.689c-0.482 0-0.873 0.391-0.873 0.873s0.391 0.873 0.873 0.873v0zM12.364 11.607v12.227c0 0.482 0.391 0.873 0.873 0.873s0.873-0.391 0.873-0.873v0-12.227c0-0.482-0.391-0.873-0.873-0.873s-0.873 0.391-0.873 0.873v0zM19.351 11.607v12.227c0 0.482 0.391 0.873 0.873 0.873s0.873-0.391 0.873-0.873v0-12.227c0-0.482-0.391-0.873-0.873-0.873s-0.873 0.391-0.873 0.873v0z"></path>
</svg>
