<!-- Generated by IcoMoon.io -->
<svg version="1.1" xmlns="http://www.w3.org/2000/svg" width="32" height="32" viewBox="0 0 32 32">
<title>full</title>
<path d="M28.434 30h-4.040c-0.519 0-0.94-0.421-0.94-0.94s0.421-0.94 0.94-0.94v0h3.101c0.346 0 0.626-0.28 0.626-0.626v0-3.101c0-0.519 0.421-0.94 0.94-0.94s0.94 0.421 0.94 0.94v0 4.040c0 0.865-0.701 1.566-1.566 1.566v0zM29.060 8.546c-0.519 0-0.94-0.421-0.94-0.94v0-3.101c0-0.346-0.28-0.626-0.626-0.626v0h-3.101c-0.519 0-0.94-0.421-0.94-0.94s0.421-0.94 0.94-0.94v0h4.040c0.865 0 1.566 0.701 1.566 1.566v0 4.040c0 0.519-0.421 0.94-0.94 0.94v0zM24.143 9.423v13.154c0 0.865-0.701 1.566-1.566 1.566v0h-13.154c-0.865 0-1.566-0.701-1.566-1.566v0-13.154c0-0.865 0.701-1.566 1.566-1.566v0h13.154c0.865 0 1.566 0.701 1.566 1.566v0zM22.264 10.362c0-0.346-0.28-0.626-0.626-0.626v0h-11.275c-0.346 0-0.626 0.28-0.626 0.626v0 11.275c0 0.346 0.28 0.626 0.626 0.626v0h11.275c0.346 0 0.626-0.28 0.626-0.626v0-11.275zM7.606 3.879h-3.101c-0.346 0-0.626 0.28-0.626 0.626v0 3.101c0 0.519-0.421 0.94-0.94 0.94s-0.94-0.421-0.94-0.94v0-4.040c0-0.865 0.701-1.566 1.566-1.566v0h4.040c0.519 0 0.94 0.421 0.94 0.94s-0.421 0.94-0.94 0.94v0zM2.94 23.454c0.519 0 0.94 0.421 0.94 0.94v0 3.101c0 0.346 0.28 0.626 0.626 0.626v0h3.101c0.519 0 0.94 0.421 0.94 0.94s-0.421 0.94-0.94 0.94v0h-4.040c-0.865 0-1.566-0.701-1.566-1.566v0-4.040c0-0.519 0.421-0.94 0.94-0.94v0z"></path>
</svg>
