<!-- Generated by IcoMoon.io -->
<svg version="1.1" xmlns="http://www.w3.org/2000/svg" width="32" height="32" viewBox="0 0 32 32">
<title>integral</title>
<path d="M10.447 3.965c4.347 0 8.032 1.922 8.163 4.729l0.002 0.154v14.303c0 2.891-3.739 4.883-8.166 4.883s-8.166-1.992-8.166-4.883v-14.302c0-2.891 3.74-4.883 8.166-4.883zM21.554 12.169c4.347 0 8.032 1.922 8.163 4.73l0.002 0.154v4.747c0 2.891-3.739 4.883-8.166 4.883-0.587 0-1.162-0.035-1.719-0.103v-2.304c0.54 0.080 1.118 0.124 1.719 0.124 3.257 0 5.768-1.298 5.881-2.516l0.004-0.085v-1.306c-0.933 0.567-2.104 0.988-3.417 1.226-0.79 0.143-1.62 0.217-2.467 0.217-0.584 0-1.159-0.035-1.719-0.103v-2.303c0.552 0.082 1.131 0.124 1.719 0.124 0.711 0 1.405-0.061 2.060-0.18 2.348-0.425 3.824-1.506 3.824-2.421 0-1.242-2.552-2.601-5.885-2.601-0.602 0-1.179 0.045-1.719 0.125v-2.304c0.513-0.065 1.106-0.103 1.709-0.103 0.004 0 0.008 0 0.011 0h-0.001zM16.332 21.846c-0.934 0.567-2.104 0.988-3.418 1.226-0.79 0.143-1.62 0.217-2.467 0.217-0.007 0-0.015 0-0.023 0-0.864 0-1.709-0.079-2.529-0.23l0.085 0.013c-1.314-0.238-2.484-0.659-3.417-1.225v1.305l0.004 0.085c0.113 1.218 2.623 2.516 5.881 2.516 3.332 0 5.884-1.359 5.884-2.601zM16.332 17.068c-0.934 0.566-2.104 0.988-3.418 1.225-0.79 0.144-1.62 0.217-2.467 0.217-0.007 0-0.015 0-0.023 0-0.864 0-1.709-0.079-2.529-0.23l0.085 0.013c-1.314-0.237-2.484-0.659-3.417-1.225v1.337l0.005 0.089c0.091 0.895 1.547 1.92 3.819 2.332 0.655 0.119 1.35 0.18 2.060 0.18s1.405-0.061 2.060-0.18c2.348-0.426 3.824-1.506 3.824-2.421v-0.031zM4.562 12.29v1.337l0.005 0.090c0.091 0.895 1.547 1.919 3.819 2.332 0.655 0.119 1.35 0.18 2.060 0.18s1.405-0.061 2.060-0.18c2.348-0.426 3.824-1.506 3.824-2.421v-1.337c-0.934 0.566-2.104 0.988-3.417 1.225-0.79 0.145-1.62 0.218-2.467 0.218-0.007 0-0.015 0-0.023 0-0.864 0-1.709-0.079-2.529-0.23l0.085 0.013c-1.314-0.238-2.484-0.659-3.417-1.226zM10.446 6.247c-3.332 0-5.884 1.359-5.884 2.601 0 0.915 1.476 1.996 3.824 2.421 0.654 0.119 1.349 0.18 2.059 0.18s1.405-0.062 2.060-0.18c2.348-0.426 3.824-1.506 3.824-2.421 0-1.242-2.552-2.601-5.885-2.601z"></path>
</svg>
