<!-- Generated by IcoMoon.io -->
<svg version="1.1" xmlns="http://www.w3.org/2000/svg" width="32" height="32" viewBox="0 0 32 32">
<title>microphone</title>
<path d="M7.862 15.712c0 4.495 3.643 8.138 8.138 8.138 4.421 0 8.018-3.525 8.135-7.917l0.003-0.221h2.325c0 5.252-3.869 9.599-8.913 10.349v1.542l3.125 0.074-0.054 2.324-8.523-0.199 0.054-2.324 3.073 0.071v-1.401c-5.338-0.391-9.564-4.786-9.685-10.195l-0.002-0.24h2.325zM16 2c3.424 0 6.2 2.776 6.2 6.2v0 7.75c0 3.424-2.776 6.2-6.2 6.2s-6.2-2.776-6.2-6.2v0-7.75c0-3.424 2.776-6.2 6.2-6.2v0zM16 4.325c-2.081 0-3.779 1.64-3.871 3.699l-0 0.008-0.004 0.168v7.75c0.003 2.138 1.737 3.87 3.875 3.87 2.079 0 3.776-1.637 3.871-3.693l0-0.009 0.004-0.168v-7.75c0-2.14-1.735-3.875-3.875-3.875v0z"></path>
</svg>
