<!-- Generated by IcoMoon.io -->
<svg version="1.1" xmlns="http://www.w3.org/2000/svg" width="32" height="32" viewBox="0 0 32 32">
<title>msg</title>
<path d="M27.35 3.568c1.343 0 2.432 1.089 2.432 2.432v0 16.215c0 1.343-1.089 2.432-2.432 2.432v0h-12.63l-5.573 3.652c-0.125 0.083-0.279 0.133-0.444 0.133-0.448 0-0.811-0.363-0.811-0.811 0-0 0-0 0-0v0-2.974h-3.243c-1.343 0-2.432-1.089-2.432-2.432v0-16.215c0-1.343 1.089-2.432 2.432-2.432v0h22.701zM27.35 6h-22.701v16.215h5.675v2.405l3.67-2.405h13.355v-16.215zM17.038 14.107v2.432h-6.713v-2.432h6.713zM21.675 9.243v2.432h-11.35v-2.432h11.35z"></path>
</svg>
