<!-- Generated by IcoMoon.io -->
<svg version="1.1" xmlns="http://www.w3.org/2000/svg" width="32" height="32" viewBox="0 0 32 32">
<title>scan</title>
<path d="M28.909 17.077h-25.824c-0.595 0-1.077-0.482-1.077-1.077s0.482-1.077 1.077-1.077h25.824c0.595 0 1.077 0.482 1.077 1.077s-0.482 1.077-1.077 1.077v0 0zM26.769 30h-6.461c-0.595 0-1.077-0.482-1.077-1.077s0.481-1.077 1.077-1.077h6.461c0.594 0 1.077-0.482 1.077-1.077v-5.385c0-0.595 0.481-1.077 1.077-1.077s1.077 0.481 1.077 1.077v5.385c0 1.781-1.449 3.231-3.231 3.231v0 0zM10.616 30h-5.385c-1.781 0-3.231-1.45-3.231-3.231v-5.385c0-0.595 0.482-1.077 1.077-1.077s1.077 0.481 1.077 1.077v5.385c0 0.594 0.483 1.077 1.077 1.077h5.385c0.595 0 1.077 0.481 1.077 1.077s-0.482 1.077-1.077 1.077v0 0zM3.077 11.692c-0.594 0-1.077-0.482-1.077-1.077v-5.385c0-1.781 1.45-3.231 3.231-3.231h5.385c0.595 0 1.077 0.482 1.077 1.077s-0.482 1.077-1.077 1.077h-5.385c-0.593 0-1.077 0.484-1.077 1.077v5.385c0 0.594-0.482 1.077-1.077 1.077v0 0zM28.923 11.692c-0.596 0-1.077-0.482-1.077-1.077v-5.385c0-0.593-0.482-1.077-1.077-1.077h-6.461c-0.595 0-1.077-0.482-1.077-1.077s0.481-1.077 1.077-1.077h6.461c1.781 0 3.231 1.449 3.231 3.231v5.385c0 0.594-0.481 1.077-1.077 1.077v0 0z"></path>
</svg>
