<?xml version="1.0" standalone="no"?><!DOCTYPE svg PUBLIC "-//W3C//DTD SVG 1.1//EN" "http://www.w3.org/Graphics/SVG/1.1/DTD/svg11.dtd"><svg t="1564372118111" class="icon" viewBox="0 0 1024 1024" version="1.1" xmlns="http://www.w3.org/2000/svg" p-id="12317" xmlns:xlink="http://www.w3.org/1999/xlink" width="200" height="200"><defs><style type="text/css"></style></defs><path d="M554.239842 470.402076l-56.319789-14.079947a191.99928 191.99928 0 0 0-23.679911-56.959787l30.079887-49.919812a15.359942 15.359942 0 0 0 0-17.919933l-39.039854-39.039854a15.359942 15.359942 0 0 0-17.919933 0L395.520437 320.00264a191.99928 191.99928 0 0 0-56.959787-23.679911l-14.079947-56.959787a15.359942 15.359942 0 0 0-14.719945-10.879959H256.00096a14.719945 14.719945 0 0 0-14.079947 10.879959l-14.079947 56.959787a191.99928 191.99928 0 0 0-57.599784 23.679911l-49.919813-30.079887a15.359942 15.359942 0 0 0-17.919933 0l-38.399856 41.599844a14.719945 14.719945 0 0 0 0 17.919933l29.43989 49.919812a212.479203 212.479203 0 0 0-23.039914 56.959787l-56.959786 14.079947a14.719945 14.719945 0 0 0-13.43995 14.079947v55.039794a14.719945 14.719945 0 0 0 10.879959 14.079947l56.959787 14.079947a212.479203 212.479203 0 0 0 23.039913 56.959787l-26.879899 49.919812a14.719945 14.719945 0 0 0 0 17.919933l39.039854 39.039854a15.359942 15.359942 0 0 0 17.919932 0l49.279816-27.519897a191.99928 191.99928 0 0 0 56.959786 23.679911l14.079947 56.959787a14.719945 14.719945 0 0 0 14.079947 10.879959h54.399796a15.359942 15.359942 0 0 0 14.719945-10.879959l14.079947-56.959787a191.99928 191.99928 0 0 0 56.959787-23.679911l49.919813 30.079887a15.359942 15.359942 0 0 0 17.919932 0l39.039854-39.039853a15.359942 15.359942 0 0 0 0-17.919933l-30.079887-49.919813a191.99928 191.99928 0 0 0 23.679911-56.959786l56.319789-14.079948a14.719945 14.719945 0 0 0 11.519957-14.079947v-57.599784a14.719945 14.719945 0 0 0-9.599964-14.079947zM282.880859 615.681531A103.679611 103.679611 0 1 1 384.00048 512.00192a103.039614 103.039614 0 0 1-101.119621 103.679611zM1004.158154 195.843106L959.99832 184.323149a199.679251 199.679251 0 0 0-19.199928-46.719825l24.319909-40.319849a12.799952 12.799952 0 0 0 0-14.719945l-35.199868-30.719884a10.879959 10.879959 0 0 0-14.079947 0l-40.959847 24.319908A146.55945 146.55945 0 0 0 831.9988 55.043634l-14.719945-46.079828a12.159954 12.159954 0 0 0-11.519957-8.959966h-44.159834a11.519957 11.519957 0 0 0-11.519957 8.959966l-11.519957 46.079828a156.799412 156.799412 0 0 0-46.719824 19.199928l-40.319849-24.319909a11.519957 11.519957 0 0 0-14.719945 0l-30.719885 30.719885a10.879959 10.879959 0 0 0 0 14.719944l23.679911 40.319849a174.079347 174.079347 0 0 0-18.55993 46.719825l-46.079827 11.519957a11.519957 11.519957 0 0 0-8.959967 11.519957v44.159834a12.159954 12.159954 0 0 0 8.959967 11.519957l46.079827 11.519957a161.919393 161.919393 0 0 0 16.639938 47.359822l-23.679912 40.959846a10.239962 10.239962 0 0 0 0 14.079948l30.719885 31.359882a12.799952 12.799952 0 0 0 14.719945 0l42.239842-22.399916a199.679251 199.679251 0 0 0 46.719824 19.199928l11.519957 46.079827a11.519957 11.519957 0 0 0 11.519957 8.959967h44.159834a12.159954 12.159954 0 0 0 11.519957-10.239962l14.719945-44.159834a184.319309 184.319309 0 0 0 46.079827-19.199928l40.959847 24.319908a11.519957 11.519957 0 0 0 14.079947 0l26.879899-33.279875a11.519957 11.519957 0 0 0 0-14.079947L938.878399 320.00264a184.319309 184.319309 0 0 0 19.199928-46.079827l46.079827-11.519957a12.159954 12.159954 0 0 0 8.959967-11.519957v-43.519837a11.519957 11.519957 0 0 0-8.959967-11.519956z m-220.799172 116.479563a83.199688 83.199688 0 1 1 83.199688-83.199688 83.199688 83.199688 0 0 1-83.199688 83.199688zM1015.038114 760.960986l-46.079828-11.519956a146.55945 146.55945 0 0 0-19.199928-46.079828l24.319909-40.959846a10.879959 10.879959 0 0 0 0-14.079947l-30.719885-31.359883a12.799952 12.799952 0 0 0-14.719944 0l-40.319849 24.319909a199.679251 199.679251 0 0 0-46.719825-19.199928L828.158814 576.00168a11.519957 11.519957 0 0 0-11.519956-8.959966h-44.159835a12.159954 12.159954 0 0 0-11.519957 8.959966l-11.519956 46.079827A184.319309 184.319309 0 0 0 703.99928 640.00144l-40.959846-24.319909a11.519957 11.519957 0 0 0-14.079948 0l-31.359882 31.359883a11.519957 11.519957 0 0 0 0 14.079947L639.99952 704.0012a184.319309 184.319309 0 0 0-19.199928 46.079827l-44.799832 10.879959a12.159954 12.159954 0 0 0-8.959966 11.519957v44.159835a11.519957 11.519957 0 0 0 8.959966 11.519956l46.079827 11.519957a199.679251 199.679251 0 0 0 19.199928 46.719825l-24.319909 40.319849a12.799952 12.799952 0 0 0 0 14.719945l31.359883 30.719884a10.879959 10.879959 0 0 0 14.079947 0l40.959846-24.319908a146.55945 146.55945 0 0 0 46.079828 19.199928l11.519956 46.079827a12.159954 12.159954 0 0 0 11.519957 8.959966h44.159835a11.519957 11.519957 0 0 0 11.519956-8.959966l11.519957-46.079827a156.799412 156.799412 0 0 0 46.719825-19.199928l40.319849 24.319908a11.519957 11.519957 0 0 0 14.719945 0l30.719884-30.719884a11.519957 11.519957 0 0 0 0-14.719945l-24.319908-40.319849a156.799412 156.799412 0 0 0 19.199928-46.719825l46.079827-11.519957a11.519957 11.519957 0 0 0 8.959966-11.519956v-44.159835a12.159954 12.159954 0 0 0-7.039973-11.519957z m-220.159175 116.479564a83.199688 83.199688 0 1 1 82.559691-82.559691 83.199688 83.199688 0 0 1-82.559691 82.559691z" fill="#000000" p-id="12318"></path></svg>