<!-- Generated by IcoMoon.io -->
<svg version="1.1" xmlns="http://www.w3.org/2000/svg" width="1024" height="1024" viewBox="0 0 1024 1024">
<title></title>
<g id="icomoon-ignore">
</g>
<path fill="#000" d="M857.44 0h-687.159c-40.421 0-67.368 26.947-67.368 67.368v889.264c0 33.684 33.684 67.368 67.368 67.368h431.158c40.421 0 67.368-26.947 67.368-67.368v-141.474c0-33.684 33.684-67.368 67.368-67.368h114.526c40.421 0 67.368-26.947 67.368-67.368v-619.79c13.474-33.684-20.211-60.632-60.632-60.632zM635.124 552.421c0 20.211-13.474 33.684-33.684 33.684h-303.158c-20.211 0-33.684-13.474-33.684-33.684v-6.737c0-20.211 13.474-33.684 33.684-33.684h303.158c20.211 0 33.684 13.474 33.684 40.421zM783.334 370.526c0 20.211-13.474 33.684-33.684 33.684h-451.368c-20.211-6.737-40.421-20.211-40.421-33.684v-6.737c0-20.211 13.474-33.684 33.684-33.684h451.368c26.947 0 40.421 13.474 40.421 40.421zM783.334 188.632c0 20.211-13.474 33.684-33.684 33.684h-451.368c-20.211 0-33.684-13.474-33.684-33.684v-6.737c0-20.211 13.474-33.684 33.684-33.684h451.368c20.211 0 33.684 13.474 33.684 40.421z"></path>
<path fill="#000" d="M715.966 862.316v94.316c0 33.684 40.421 47.158 60.632 26.947l134.737-134.737c20.211-20.211 6.737-60.632-26.947-60.632h-94.316c-40.421 0-74.105 33.684-74.105 74.105z"></path>
</svg>
