<!-- Generated by IcoMoon.io -->
<svg version="1.1" xmlns="http://www.w3.org/2000/svg" width="1024" height="1024" viewBox="0 0 1024 1024">
<title></title>
<g id="icomoon-ignore">
</g>
<path d="M39.496 377.692h29.644v-239.689c0-19.777 17.403-36.345 39.252-36.345h294.462c12.754 0 23.579 5.012 30.59 12.989l136.476 136.558h345.502c21.209 0 39.233 16.233 39.233 36.047v90.441h29.473c21.528 0 39.872 16.216 39.872 36.64 0 2.077-0.659 3.825-0.659 5.903l-63.094 465.152c-1.301 11.522-8.304 20.703-17.424 26.322-7.156 6.199-17.027 10.631-27.403 10.631h-807.028c-10.697 0-20.097-4.433-27.441-10.336-10.058-5.916-16.575-15.659-17.876-27.195l-62.793-466.041c-2.562-19.831 12.579-38.123 34.277-41.076l4.937-0.001zM147.606 346.199h688.407v-42.711h-304.936c-10.276 0-19.909-3.573-27.585-9.708l-130.424-110.351h-225.463v162.772z"></path>
</svg>
