<!-- Generated by IcoMoon.io -->
<svg version="1.1" xmlns="http://www.w3.org/2000/svg" width="1024" height="1024" viewBox="0 0 1024 1024">
<title></title>
<g id="icomoon-ignore">
</g>
<path fill="#000" d="M796.448 511.997c0 0.102 0 0.225 0 0.347 0 83.673-33.977 159.408-88.883 214.163l-0.007 0.007 53.629 53.629c68.632-68.632 111.084-163.447 111.084-268.179s-42.452-199.547-111.084-268.179v0l-53.629 53.688c54.915 54.763 88.887 130.502 88.887 214.171 0 0.122 0 0.245 0 0.367v-0.020z"></path>
<path fill="#000" d="M948.151 511.997c0 0.175 0 0.383 0 0.592 0 125.489-50.949 239.079-133.289 321.214l-0.009 0.009 53.629 53.629c96.088-96.087 155.518-228.827 155.518-375.448s-59.431-279.366-155.518-375.448v0l-53.629 53.629c82.352 82.142 133.298 195.732 133.298 321.222 0 0.211 0 0.425 0 0.636v-0.032z"></path>
<path fill="#000" d="M707.588 780.179c6.863 6.863 16.345 11.109 26.818 11.109 20.945 0 37.927-16.979 37.927-37.927 0-10.474-4.245-19.953-11.109-26.818v0c-6.863-6.863-16.345-11.109-26.818-11.109-20.945 0-37.927 16.979-37.927 37.927 0 10.474 4.245 19.953 11.109 26.818v0z"></path>
<path fill="#000" d="M814.858 887.438c6.863 6.863 16.345 11.109 26.818 11.109 20.945 0 37.927-16.979 37.927-37.927 0-10.474-4.245-19.953-11.109-26.818v0c-6.863-6.863-16.345-11.109-26.818-11.109-20.945 0-37.927 16.979-37.927 37.927 0 10.474 4.245 19.953 11.109 26.818v0z"></path>
<path fill="#000" d="M707.583 297.444c6.863 6.863 16.345 11.109 26.818 11.109 20.945 0 37.927-16.979 37.927-37.927 0-10.474-4.245-19.953-11.109-26.818v0c-6.863-6.863-16.345-11.109-26.818-11.109-20.945 0-37.927 16.979-37.927 37.927 0 10.474 4.245 19.953 11.109 26.818v0z"></path>
<path fill="#000" d="M814.854 190.174c6.863 6.863 16.345 11.109 26.818 11.109 20.945 0 37.927-16.979 37.927-37.927 0-10.474-4.245-19.953-11.109-26.818v0c-6.863-6.863-16.345-11.109-26.818-11.109-20.945 0-37.927 16.979-37.927 37.927 0 10.474 4.245 19.953 11.109 26.818v0z"></path>
<path fill="#000" d="M530.966 53.97h-22.91c-0.028 0-0.065 0-0.1 0-20.081 0-38.334 7.832-51.871 20.609l0.036-0.033-223.408 209.897h-194.786c-20.945 0-37.927 16.979-37.927 37.927v0 379.261c0 20.945 16.979 37.927 37.927 37.927v0h194.786l223.408 209.897c13.497 12.741 31.75 20.576 51.835 20.576 0.035 0 0.072 0 0.107 0h22.904c41.874-0.046 75.805-33.98 75.851-75.846v-764.354c-0.046-41.874-33.98-75.805-75.846-75.851h-0.005zM189.63 682.663h-113.779v-322.369h113.779zM530.966 894.173h-22.91l-242.572-227.911v-308.527l242.572-227.911h22.91v764.349z"></path>
</svg>
