<!-- Generated by IcoMoon.io -->
<svg version="1.1" xmlns="http://www.w3.org/2000/svg" width="1024" height="1024" viewBox="0 0 1024 1024">
<title></title>
<g id="icomoon-ignore">
</g>
<path fill="#000" d="M0 512c0 64.265 52.097 116.362 116.362 116.362s116.362-52.097 116.362-116.362v0c0-64.265-52.097-116.362-116.362-116.362s-116.362 52.097-116.362 116.362v0zM791.276 512c0 64.265 52.097 116.362 116.362 116.362s116.362-52.097 116.362-116.362v0c0-64.265-52.097-116.362-116.362-116.362s-116.362 52.097-116.362 116.362v0zM395.645 512c0 64.265 52.097 116.362 116.362 116.362s116.362-52.097 116.362-116.362v0c0-64.265-52.097-116.362-116.362-116.362s-116.362 52.097-116.362 116.362v0z"></path>
</svg>
