<!-- Generated by IcoMoon.io -->
<svg version="1.1" xmlns="http://www.w3.org/2000/svg" width="1605" height="1024" viewBox="0 0 1605 1024">
<title></title>
<g id="icomoon-ignore">
</g>
<path fill="#000" d="M251.163 681.916c0 57.647 47.242 104.748 104.748 104.748h315.65v131.322h-184.328c-28.823 0-53.007 24.183-53.007 53.007s24.183 53.007 53.007 53.007h630.034c28.823 0 53.007-24.183 53.007-53.007s-24.183-53.007-53.007-53.007h-184.188v-131.322h315.65c57.647 0 104.748-47.242 104.748-104.748v-53.007h-1102.314v53.007zM1249.713 0h-893.802c-57.647 0-104.748 47.242-104.748 104.748v472.28h1102.314v-472.28c1.125-57.506-46.117-104.748-103.764-104.748z"></path>
</svg>
