<!-- Generated by IcoMoon.io -->
<svg version="1.1" xmlns="http://www.w3.org/2000/svg" width="1035" height="1024" viewBox="0 0 1035 1024">
<title></title>
<g id="icomoon-ignore">
</g>
<path fill="#000" d="M699.887 584.854v109.787h-109.787v73.36h109.787v109.787h73.36v-109.787h109.787v-73.36h-109.787v-109.787h-73.36zM735.808 512c121.423 0 219.573 97.644 219.573 219.573 0 121.423-97.644 219.573-219.573 219.573s-219.573-97.644-219.573-219.573c0-121.929 97.644-219.573 219.573-219.573zM371.033 73.36c101.186 0 182.64 81.455 182.64 182.64s-81.455 182.64-182.64 182.64-182.64-81.455-182.64-182.64 80.949-182.64 182.64-182.64zM371.033 0c-140.648 0-256 114.846-256 256 0 88.032 45.028 166.451 113.328 212.49-130.53 56.158-222.609 185.17-222.609 335.937h73.36c0-161.897 130.53-292.427 292.427-292.427 50.087 0 97.138 13.154 138.119 35.415-40.474 50.087-65.265 114.34-65.265 184.158 0 160.885 131.542 292.427 292.427 292.427s292.427-131.542 292.427-292.427-131.542-292.427-292.427-292.427c-63.747 0-122.941 21.249-171.51 56.158-16.19-10.119-33.391-18.719-51.605-26.308 68.3-46.040 113.328-124.458 113.328-212.49-0.506-141.154-115.858-256.506-256-256.506z"></path>
</svg>
