<!-- Generated by IcoMoon.io -->
<svg version="1.1" xmlns="http://www.w3.org/2000/svg" width="1024" height="1024" viewBox="0 0 1024 1024">
<title></title>
<g id="icomoon-ignore">
</g>
<path fill="#000" d="M512 61.911c60.796 0 119.735 11.887 175.207 35.289 53.615 22.659 101.781 55.1 143.137 96.457s73.797 89.523 96.457 143.137c23.402 55.472 35.289 114.411 35.289 175.207s-11.887 119.735-35.289 175.207c-22.659 53.615-55.1 101.781-96.457 143.137s-89.523 73.797-143.137 96.457c-55.472 23.402-114.411 35.289-175.207 35.289s-119.735-11.887-175.207-35.289c-53.615-22.659-101.781-55.1-143.137-96.457s-73.797-89.523-96.457-143.137c-23.402-55.472-35.289-114.411-35.289-175.207s11.887-119.735 35.289-175.207c22.659-53.615 55.1-101.781 96.457-143.137s89.523-73.797 143.137-96.457c55.472-23.402 114.411-35.289 175.207-35.289zM512 0c-282.807 0-512 229.193-512 512s229.193 512 512 512 512-229.193 512-512-229.193-512-512-512z"></path>
<path fill="#000" d="M380.75 374.559c0 72.487 58.763 131.25 131.25 131.25s131.25-58.763 131.25-131.25v0c0-72.487-58.763-131.25-131.25-131.25s-131.25 58.763-131.25 131.25v0z"></path>
<path fill="#000" d="M515.096 547.66c-130.136 0-241.451 85.189-286.77 205.791 34.918 34.546 74.788 62.034 118.744 81.598 49.776 22.288 102.771 33.556 157.377 33.556s107.6-11.268 157.377-33.556c48.166-21.545 91.38-52.376 128.526-91.751 1.733-1.857 3.343-3.715 5.077-5.448-48.538-112.182-155.767-190.189-280.331-190.189z"></path>
</svg>
