<!-- Generated by IcoMoon.io -->
<svg version="1.1" xmlns="http://www.w3.org/2000/svg" width="32" height="32" viewBox="0 0 32 32">
<title>down</title>
<path d="M15.995 23.159v0c-0.001 0-0.002 0-0.003 0-0.81 0-1.543-0.328-2.075-0.858l-11.423-11.421c-0.333-0.309-0.54-0.749-0.54-1.237 0-0.932 0.755-1.687 1.687-1.687 0.489 0 0.93 0.208 1.238 0.541l0.001 0.001 11.125 11.116 11.115-11.116c0.309-0.337 0.752-0.548 1.245-0.548 0.932 0 1.687 0.755 1.687 1.687 0 0.491-0.21 0.934-0.545 1.242l-0.001 0.001-11.418 11.418c-0.533 0.531-1.269 0.86-2.081 0.86-0.001 0-0.003 0-0.004 0h-0.007z"></path>
</svg>
