<!-- Generated by IcoMoon.io -->
<svg version="1.1" xmlns="http://www.w3.org/2000/svg" width="40" height="32" viewBox="0 0 40 32">
<title>img</title>
<path d="M32.488 29.5l-25.92-0.015c-0.022 0-0.045 0-0.068 0-1.903-0.196-3.375-1.79-3.376-3.729v-19.508c0.002-2.069 1.679-3.746 3.748-3.748h25.616c2.069 0.002 3.746 1.679 3.748 3.748v8.351c0 0.010 0 0.020 0 0.031-0.003 0.079-0.005 0.172-0.005 0.265 0 1.046 0.212 2.043 0.596 2.949l-0.019-0.050c0.042 0.086 0.066 0.187 0.066 0.294 0 0.38-0.308 0.689-0.689 0.689-0.256 0-0.479-0.139-0.598-0.346l-0.002-0.003c-0.463-1.037-0.733-2.247-0.733-3.52 0-0.113 0.002-0.226 0.006-0.338l-0 0.016v-8.333c-0.002-1.308-1.062-2.369-2.37-2.37h-25.612c-1.309 0.001-2.37 1.062-2.371 2.37v19.504c0 0.002-0 0.005-0 0.008 0 1.212 0.913 2.211 2.089 2.346l0.011 0.001 7.717 0.015h18.165c1.309-0.001 2.37-1.062 2.371-2.37v-0l-0.015-3.47c-0.091-0.61-0.35-1.147-0.727-1.577l0.003 0.004v-0.007l-0.804-1.055-4.346-5.741c-0.016-0.020-1.444-1.883-3.195-1.688-1.42 0.159-2.812 1.672-4.029 4.375-0.532 1.259-1.178 2.346-1.951 3.328l0.023-0.031c-0.506 0.669-1.206 1.168-2.017 1.412l-0.028 0.007c-1.608 0.394-3.001-0.704-4.477-1.865l-0.187-0.147c-1.724-1.355-2.545-1.045-5.863 2.207-0.126 0.131-0.302 0.212-0.497 0.212-0.38 0-0.689-0.308-0.689-0.689 0-0.2 0.085-0.38 0.221-0.506l0-0c1.105-1.258 2.418-2.302 3.891-3.084l0.074-0.036c0.363-0.138 0.782-0.218 1.22-0.218 0.973 0 1.854 0.394 2.492 1.032v0l0.189 0.149c1.256 0.989 2.341 1.844 3.296 1.61s1.974-1.559 3.046-3.944c1.449-3.221 3.178-4.958 5.139-5.178 2.532-0.278 4.363 2.126 4.439 2.228l4.338 5.739 0.8 1.050c0.56 0.647 0.929 1.472 1.012 2.38l0.001 0.017 0.015 3.481c-0.001 2.070-1.678 3.748-3.748 3.751h-0z"></path>
<path d="M12.463 13c-1.57 0-2.842-1.272-2.842-2.842s1.272-2.842 2.842-2.842c1.569 0 2.841 1.272 2.842 2.841v0c-0.003 1.569-1.273 2.839-2.841 2.843h-0zM12.463 8.692c-0.809 0-1.465 0.656-1.465 1.465s0.656 1.465 1.465 1.465c0.809 0 1.465-0.656 1.465-1.465v0c-0.001-0.809-0.656-1.464-1.465-1.465h-0z"></path>
</svg>
