<!-- Generated by IcoMoon.io -->
<svg version="1.1" xmlns="http://www.w3.org/2000/svg" width="32" height="32" viewBox="0 0 32 32">
<title>menu</title>
<path d="M12.508 14.466h-4.707c-0.003 0-0.007 0-0.011 0-1.892 0-3.602-0.774-4.832-2.023l-0.001-0.001c-1.205-1.213-1.949-2.885-1.949-4.73 0-3.694 2.984-6.692 6.673-6.714h0.054c1.84 0 3.504 0.748 4.707 1.957l0 0c1.25 1.232 2.024 2.943 2.024 4.835 0 0.004 0 0.008 0 0.012v-0.001 4.704c0 0.002 0 0.004 0 0.006 0 1.080-0.876 1.956-1.956 1.956-0 0-0.001 0-0.002 0h0zM7.699 2.96c-2.604 0.029-4.706 2.132-4.734 4.733l-0 0.003c-0 0.008-0 0.017-0 0.026 0 1.304 0.531 2.484 1.388 3.335l0 0c0.878 0.893 2.099 1.447 3.449 1.447 0.001 0 0.001 0 0.002 0h4.703v-4.704c0-0.002 0-0.003 0-0.005 0-1.35-0.554-2.57-1.446-3.447l-0.001-0.001c-0.85-0.855-2.026-1.385-3.325-1.389h-0.001zM7.735 30.997h-0.051c-3.691-0.022-6.675-3.020-6.675-6.714 0-1.845 0.744-3.517 1.949-4.731l-0 0c1.231-1.25 2.942-2.024 4.833-2.024 0.004 0 0.008 0 0.012 0h4.702c1.083 0 1.961 0.878 1.961 1.961v0 4.704c0 0.003 0 0.007 0 0.011 0 1.892-0.774 3.603-2.024 4.834l-0.001 0.001c-1.202 1.211-2.867 1.961-4.707 1.963h-0zM2.962 24.297c0.028 2.604 2.131 4.707 4.732 4.736l0.003 0h0.036c1.301-0.001 2.477-0.532 3.325-1.388l0-0c0.893-0.878 1.447-2.099 1.447-3.45 0-0.001 0-0.002 0-0.003v0-4.7h-4.703c-0.002 0-0.003 0-0.005 0-1.349 0-2.57 0.554-3.446 1.446l-0.001 0.001c-0.858 0.854-1.389 2.036-1.389 3.341 0 0.006 0 0.012 0 0.018v-0.001zM24.267 30.997c-1.84-0-3.504-0.748-4.707-1.957l-0-0c-1.25-1.232-2.024-2.943-2.024-4.835 0-0.004 0-0.008 0-0.012v0.001-4.704c0-1.083 0.878-1.961 1.961-1.961v0h4.703c0.003 0 0.007 0 0.011 0 1.892 0 3.602 0.774 4.832 2.023l0.001 0.001c1.205 1.213 1.949 2.885 1.949 4.73 0 3.694-2.984 6.692-6.673 6.714h-0.002zM19.494 19.491v4.704c0 0.002 0 0.003 0 0.005 0 1.35 0.554 2.57 1.446 3.447l0.001 0.001c0.85 0.855 2.026 1.385 3.325 1.389h0.036c2.603-0.030 4.705-2.133 4.734-4.733l0-0.003c0-0.008 0-0.017 0-0.026 0-1.304-0.531-2.484-1.388-3.335l-0-0c-0.878-0.893-2.099-1.447-3.449-1.447-0.001 0-0.001 0-0.002 0h0zM24.197 14.466h-4.703c-1.083 0-1.961-0.878-1.961-1.961v0-4.704c0-0.003 0-0.007 0-0.011 0-1.892 0.774-3.603 2.023-4.834l0.001-0.001c1.206-1.172 2.854-1.894 4.671-1.894 3.704 0 6.707 3.003 6.707 6.707 0 1.817-0.723 3.466-1.897 4.674l0.002-0.002c-1.231 1.251-2.942 2.026-4.834 2.026-0.003 0-0.006 0-0.009 0h0zM19.494 12.504h4.703c0.002 0 0.003 0 0.005 0 1.349 0 2.57-0.554 3.446-1.446l0.001-0.001c0.858-0.852 1.389-2.032 1.389-3.335 0-0.009-0-0.018-0-0.027v0.001c-0.028-2.604-2.131-4.707-4.732-4.736l-0.003-0c-0.011-0-0.024-0-0.037-0-1.301 0-2.477 0.531-3.324 1.388l-0 0c-0.893 0.878-1.447 2.099-1.447 3.45 0 0.001 0 0.002 0 0.003v-0z"></path>
</svg>
