<!-- Generated by IcoMoon.io -->
<svg version="1.1" xmlns="http://www.w3.org/2000/svg" width="32" height="32" viewBox="0 0 32 32">
<title>right</title>
<path d="M12.683 29.998h-0.042c-0 0-0 0-0 0-0.471 0-0.894-0.203-1.187-0.527l-0.001-0.001c-0.273-0.303-0.44-0.706-0.44-1.148 0-0.527 0.237-0.998 0.611-1.313l0.003-0.002 11.3-10.24c0.32-0.244 0.524-0.626 0.524-1.056s-0.204-0.811-0.521-1.053l-0.003-0.002-11.473-9.717c-0.282-0.311-0.455-0.726-0.455-1.181 0-0.972 0.788-1.76 1.76-1.76 0.37 0 0.713 0.114 0.996 0.309l-0.006-0.004h-0.006l11.301 9.712c1.057 0.897 1.732 2.217 1.76 3.695l0 0.005v0.026c0 0.002 0 0.004 0 0.006 0 1.448-0.607 2.754-1.581 3.677l-0.002 0.002-11.3 10.24c-0.356 0.181-0.772 0.3-1.213 0.329l-0.010 0.001h-0.014z"></path>
</svg>
