<!-- Generated by IcoMoon.io -->
<svg version="1.1" xmlns="http://www.w3.org/2000/svg" width="29" height="32" viewBox="0 0 29 32">
<title>service</title>
<path d="M26.299 17.663v-0.828c0.016-0.234 0.024-0.507 0.024-0.782 0-3.251-1.237-6.214-3.265-8.443l0.009 0.010c-1.034-1.056-2.29-1.89-3.692-2.429l-0.071-0.024c-0.233-2.038-2.416-3.648-5.088-3.648s-4.877 1.608-5.086 3.649c-1.473 0.563-2.729 1.397-3.762 2.451l-0.002 0.002c-2.019 2.212-3.257 5.168-3.257 8.413 0 0.276 0.009 0.55 0.027 0.822l-0.002-0.037v1.012c-0.493 0.477-0.798 1.144-0.798 1.882 0 0.28 0.044 0.551 0.126 0.804l-0.005-0.019c0.242 0.873 0.879 1.559 1.701 1.865l0.019 0.006c0.399 0.261 0.887 0.416 1.412 0.416 0.004 0 0.009 0 0.013-0h-0.001c0.95 4.425 4.828 7.694 9.47 7.694 0.092 0 0.183-0.001 0.274-0.004l-0.013 0c0.077 0.002 0.167 0.003 0.257 0.003 4.647 0 8.529-3.277 9.462-7.646l0.011-0.063c0.033 0 0.065 0.016 0.1 0.016 0.657-0.003 1.259-0.234 1.733-0.618l-0.005 0.004c0.633-0.367 1.099-0.963 1.287-1.672l0.004-0.019c0.067-0.223 0.106-0.48 0.106-0.745 0-0.835-0.382-1.58-0.981-2.071l-0.005-0.004zM23.415 20.163c-0 0.62-0.049 1.228-0.141 1.822l0.009-0.066c-1.632 2.583-4.361 4.347-7.517 4.637l-0.039 0.003c-0.305-0.339-0.745-0.551-1.234-0.551-0.033 0-0.066 0.001-0.099 0.003l0.005-0c-0.828 0-1.492 0.448-1.492 1.012s0.662 1.012 1.492 1.012c0.046 0.005 0.1 0.008 0.155 0.008 0.585 0 1.089-0.346 1.318-0.845l0.004-0.009c1.124-0.128 2.15-0.396 3.111-0.79l-0.077 0.028c1.392-0.57 2.577-1.379 3.561-2.385l0.002-0.002c0.166-0.166 0.315-0.331 0.464-0.512-1.139 3.523-4.39 6.025-8.226 6.025-0.115 0-0.229-0.002-0.343-0.007l0.016 0h-0.033c-5.353 0-9.082-3.866-9.082-9.38l-0.016-0.529c0-0.233 0.033-0.863 0.065-1.459 2.223-0.811 4.229-3.913 5.039-5.338 1.288 1.749 3.004 3.113 4.996 3.948l0.078 0.029c0.819 0.305 1.809 0.58 2.827 0.775l0.122 0.020c1.94 0.416 3.78 0.811 5.022 2.437l0.048 0.048z"></path>
</svg>
