<!-- Generated by IcoMoon.io -->
<svg version="1.1" xmlns="http://www.w3.org/2000/svg" width="32" height="32" viewBox="0 0 32 32">
<title>up</title>
<path d="M16.005 8v0c0.001 0 0.002 0 0.003 0 0.81 0 1.543 0.328 2.075 0.858l11.423 11.421c0.305 0.305 0.494 0.727 0.494 1.193 0 0.933-0.756 1.689-1.689 1.689-0.467 0-0.889-0.189-1.195-0.496l-11.116-11.12-11.12 11.12c-0.305 0.305-0.727 0.494-1.193 0.494-0.932 0-1.687-0.755-1.687-1.687 0-0.466 0.189-0.888 0.494-1.193l11.422-11.419c0.533-0.531 1.269-0.86 2.081-0.86 0 0 0.001 0 0.001 0h0.007z"></path>
</svg>
