<!-- Generated by IcoMoon.io -->
<svg version="1.1" xmlns="http://www.w3.org/2000/svg" width="41" height="32" viewBox="0 0 41 32">
<title>yes</title>
<path d="M19.23 24.76c-0.474 0.457-1.12 0.738-1.832 0.738s-1.358-0.282-1.833-0.739l0.001 0.001-8.259-8.090c-0.468-0.456-0.758-1.091-0.758-1.795s0.29-1.34 0.757-1.794l0.001-0.001c0.474-0.457 1.12-0.738 1.832-0.738s1.358 0.282 1.833 0.739l-0.001-0.001 6.429 6.283 12.378-12.123c0.474-0.457 1.12-0.738 1.832-0.738s1.358 0.282 1.833 0.739l-0.001-0.001c0.468 0.455 0.758 1.091 0.758 1.795s-0.29 1.34-0.757 1.794l-0.001 0.001-14.207 13.92z"></path>
</svg>
