<!-- Generated by IcoMoon.io -->
<svg version="1.1" xmlns="http://www.w3.org/2000/svg" width="39" height="32" viewBox="0 0 39 32">
<title>camera</title>
<path d="M30.33 14.009c-1.2-0.001-2.171-0.974-2.171-2.174 0-1.201 0.973-2.174 2.174-2.174s2.173 0.973 2.174 2.173v0c-0.002 1.201-0.976 2.174-2.176 2.175h-0zM30.33 11.146c-0.379 0.002-0.686 0.309-0.686 0.689s0.308 0.689 0.689 0.689 0.689-0.308 0.689-0.689c0-0 0-0.001 0-0.002v0c-0.002-0.38-0.31-0.688-0.691-0.688-0 0-0.001 0-0.001 0h0z"></path>
<path d="M16.991 24.929c-3.981-0.007-7.206-3.236-7.206-7.219 0-3.987 3.232-7.219 7.219-7.219s7.218 3.232 7.219 7.218v0c-0.009 3.988-3.243 7.217-7.231 7.22h-0zM16.991 11.976c-3.161 0.007-5.721 2.572-5.721 5.734 0 3.167 2.567 5.734 5.734 5.734s5.734-2.567 5.734-5.734c0-0 0-0.001 0-0.001v0c-0.008-3.168-2.578-5.733-5.747-5.733h-0z"></path>
<path d="M31.37 30h-23.737c0 0 0 0 0 0-2.863 0-5.185-2.318-5.191-5.181v-14.454c0.019-2.509 1.804-4.596 4.172-5.080l0.034-0.006c0.664-1.918 2.452-3.273 4.557-3.28h7.048c2.070 0.011 3.832 1.317 4.517 3.15l0.011 0.034h8.59c2.863 0.001 5.185 2.32 5.19 5.182v14.454c-0.006 2.862-2.327 5.18-5.189 5.181h-0zM11.202 3.484c-1.583 0.003-2.906 1.11-3.241 2.592l-0.004 0.022-0.115 0.536-0.545 0.050c-1.891 0.185-3.358 1.76-3.371 3.681v14.455c0.004 2.043 1.661 3.697 3.705 3.697 0 0 0.001 0 0.001 0h23.738c0 0 0 0 0 0 2.044 0 3.701-1.654 3.705-3.697v-14.454c-0.005-2.043-1.662-3.697-3.705-3.697h-9.743l-0.129-0.581c-0.35-1.496-1.669-2.595-3.247-2.602h-7.048z"></path>
</svg>
