<!-- Generated by IcoMoon.io -->
<svg version="1.1" xmlns="http://www.w3.org/2000/svg" width="32" height="32" viewBox="0 0 32 32">
<title>clear</title>
<path d="M24.447 10.88l6.041-6.029c0.428-0.407 0.693-0.981 0.693-1.616 0-1.232-0.999-2.231-2.231-2.231-0.633 0-1.205 0.264-1.611 0.688l-0.001 0.001-6.048 6.035-0.218 0.025c-0.885-0.596-1.975-0.951-3.148-0.951-1.53 0-2.919 0.604-3.942 1.588l0.002-0.002c-0.029 0.028-0.048 0.068-0.048 0.112s0.018 0.084 0.048 0.112l9.578 9.578c0.028 0.029 0.068 0.048 0.112 0.048s0.084-0.018 0.112-0.048l0-0c0.98-1.021 1.583-2.411 1.583-3.941 0-1.172-0.354-2.262-0.961-3.167l0.013 0.021c0.005-0.086 0.014-0.14 0.023-0.223z"></path>
<path d="M8.323 6.014c0 1.053 0.854 1.907 1.907 1.907s1.907-0.854 1.907-1.907c0-1.053-0.854-1.907-1.907-1.907v0c-1.053 0-1.907 0.854-1.907 1.907v0z"></path>
<path d="M19.871 27.084c0 1.319 1.069 2.388 2.388 2.388s2.388-1.069 2.388-2.388c0-1.319-1.069-2.388-2.388-2.388v0c-1.319 0-2.388 1.069-2.388 2.388v0z"></path>
<path d="M25.191 24.56c0 0.718 0.582 1.3 1.3 1.3s1.3-0.582 1.3-1.3c0-0.718-0.582-1.3-1.3-1.3v0c-0.718 0-1.3 0.582-1.3 1.3v0z"></path>
<path d="M12.28 10.152l9.55 9.547c0.040 0.039 0.065 0.094 0.065 0.154 0 0.040-0.011 0.078-0.030 0.11l0.001-0.001c-1.924 3.149-3.274 6.86-3.801 10.83l-0.016 0.144c-0.005 0.034-0.033 0.059-0.068 0.059-0.012 0-0.023-0.003-0.032-0.008l0 0-3.243-1.955c-0.019-0.012-0.032-0.033-0.032-0.057 0-0.011 0.003-0.021 0.007-0.030l-0 0c0.311-0.638 3.222-6.751 2.925-6.452-1.35 1.406-2.612 2.924-3.761 4.528l-0.084 0.124-0.87 1.197c-1.682-1.112-3.145-2.34-4.455-3.713l-0.010-0.010c-0.016-0.022-0.019-0.042 0-0.061 0.693-0.841 4.301-5.531 4.301-5.531l-6.135 3.678c-0.010 0.007-0.022 0.010-0.035 0.010-0.020 0-0.037-0.009-0.049-0.023l-0-0c-1.030-1.099-1.995-2.293-2.869-3.553l-0.068-0.104c-0.006-0.007-0.009-0.016-0.009-0.026 0-0.014 0.007-0.027 0.018-0.035l0-0c0.584-0.467 3.892-3.269 3.892-3.269l-4.651 1.647c-0.007 0.002-0.014 0.003-0.022 0.003-0.027 0-0.050-0.014-0.062-0.036l-0-0-1.72-3.23c-0.007-0.010-0.011-0.022-0.011-0.035 0-0.030 0.021-0.055 0.050-0.061l0-0c0.819-0.163 7.649-1.583 10.965-3.871 0.031-0.021 0.070-0.034 0.112-0.034 0.058 0 0.11 0.024 0.146 0.063l0 0z"></path>
</svg>
