<!-- Generated by IcoMoon.io -->
<svg version="1.1" xmlns="http://www.w3.org/2000/svg" width="32" height="32" viewBox="0 0 32 32">
<title>close</title>
<path d="M26.921 24.061c0.358 0.365 0.579 0.864 0.579 1.416 0 1.116-0.905 2.021-2.021 2.021-0.552 0-1.053-0.221-1.417-0.58l-8.059-8.059-8.060 8.060c-0.365 0.358-0.865 0.58-1.417 0.58-1.116 0-2.021-0.905-2.021-2.021 0-0.552 0.221-1.052 0.579-1.417l8.059-8.059-8.060-8.060c-0.36-0.365-0.582-0.866-0.582-1.419 0-1.116 0.905-2.021 2.021-2.021 0.551 0 1.050 0.22 1.415 0.578l8.059 8.059 8.060-8.060c0.36-0.335 0.844-0.541 1.377-0.541 1.116 0 2.021 0.905 2.021 2.021 0 0.529-0.203 1.010-0.536 1.37l0.001-0.001-8.060 8.060z"></path>
</svg>
