<!-- Generated by IcoMoon.io -->
<svg version="1.1" xmlns="http://www.w3.org/2000/svg" width="32" height="32" viewBox="0 0 32 32">
<title>config</title>
<path d="M30 19.85v0.875c-0.039 0.392-0.163 0.749-0.353 1.061l0.006-0.011c-0.144 0.334-0.318 0.622-0.526 0.883l0.006-0.008c-0.173 0.35-0.347 0.525-0.694 0.525-0.164 0.113-0.366 0.181-0.584 0.181-0.039 0-0.077-0.002-0.114-0.006l0.005 0c-0.023 0.003-0.050 0.005-0.078 0.005-0.172 0-0.328-0.069-0.442-0.18l0 0c-0.173 0-0.52-0.175-0.694-0.175h-0.867c-0.339 0.048-0.633 0.109-0.919 0.187l0.052-0.012c-0.347 0.175-0.52 0.35-0.867 0.525-0.442 0.468-0.751 1.066-0.864 1.73l-0.003 0.020c-0.013 0.102-0.020 0.219-0.020 0.338 0 0.518 0.136 1.005 0.374 1.426l-0.008-0.014c0.073 0.142 0.116 0.31 0.116 0.488 0 0.285-0.11 0.544-0.29 0.738l0.001-0.001-0.52 0.525c-0.25 0.203-0.536 0.379-0.843 0.515l-0.024 0.010c-0.347 0.175-0.694 0.175-1.041 0.35-0.339 0.048-0.633 0.109-0.919 0.187l0.052-0.012c-0.023 0.003-0.051 0.005-0.078 0.005-0.172 0-0.328-0.069-0.442-0.18l0 0c-0.173-0.175-0.347-0.35-0.347-0.525v0c-0.139-0.656-0.516-1.206-1.033-1.57l-0.008-0.005c-0.463-0.436-1.088-0.703-1.776-0.703-0.046 0-0.093 0.001-0.138 0.004l0.006-0c-0.008-0-0.018-0-0.028-0-0.72 0-1.379 0.265-1.883 0.703l0.004-0.003c-0.446 0.466-0.847 0.982-1.195 1.535l-0.023 0.040c-0.173 0.175-0.173 0.35-0.52 0.525 0 0.175-0.173 0.175-0.52 0.175-0.042 0.004-0.090 0.006-0.139 0.006-0.266 0-0.517-0.067-0.736-0.185l0.008 0.004c-0.347-0.175-0.694-0.175-1.041-0.35-0.331-0.146-0.617-0.322-0.874-0.531l0.007 0.006c-0.27-0.137-0.5-0.313-0.692-0.523l-0.002-0.002c-0.11-0.116-0.178-0.273-0.178-0.446 0-0.028 0.002-0.056 0.005-0.083l-0 0.003c-0.001-0.023-0.002-0.049-0.002-0.076 0-0.29 0.064-0.565 0.179-0.811l-0.005 0.012c0.145-0.307 0.23-0.666 0.23-1.045 0-0.188-0.021-0.37-0.060-0.546l0.003 0.017c-0.051-0.613-0.305-1.159-0.695-1.577l0.001 0.002c-0.255-0.299-0.622-0.496-1.036-0.525l-0.005-0c-0.284-0.119-0.614-0.188-0.96-0.188-0.089 0-0.178 0.005-0.265 0.014l0.011-0.001c-0.347 0-0.867 0.175-1.214 0.175h-0.863c-0.173 0-0.347-0.35-0.694-0.525l-0.52-1.050c-0.184-0.301-0.308-0.658-0.346-1.040l-0.001-0.010c0-0.35-0.173-0.7 0-0.875-0.005-0.035-0.008-0.075-0.008-0.116 0-0.346 0.217-0.641 0.523-0.757l0.006-0.002c0.773-0.205 1.426-0.637 1.903-1.219l0.005-0.006c0.43-0.451 0.695-1.064 0.695-1.738 0-0.004 0-0.009-0-0.013v0.001c0.007-0.063 0.011-0.135 0.011-0.209 0-0.615-0.272-1.166-0.702-1.539l-0.003-0.002c-0.378-0.557-0.912-0.983-1.54-1.218l-0.022-0.007-0.52-0.525c-0.112-0.165-0.179-0.37-0.179-0.589 0-0.039 0.002-0.078 0.006-0.116l-0 0.005c-0.001-0.023-0.002-0.049-0.002-0.076 0-0.29 0.064-0.565 0.179-0.811l-0.005 0.012c0.007-0.338 0.137-0.644 0.348-0.876l-0.001 0.001c0.173-0.35 0.347-0.525 0.52-0.875 0-0.175 0.173-0.35 0.347-0.525 0.114-0.111 0.27-0.18 0.442-0.18 0.027 0 0.054 0.002 0.081 0.005l-0.003-0c0.023-0.003 0.050-0.005 0.078-0.005 0.172 0 0.328 0.069 0.442 0.18l-0-0c0.34 0.147 0.736 0.232 1.152 0.232 0.206 0 0.407-0.021 0.601-0.061l-0.019 0.003c0.68-0.118 1.273-0.43 1.736-0.876l-0.001 0.001c0.202-0.253 0.376-0.541 0.51-0.85l0.010-0.025c0.114-0.259 0.18-0.561 0.18-0.878 0-0.060-0.002-0.12-0.007-0.18l0.001 0.008v-1.4c0-0.175 0-0.175-0.173-0.35v-0.35c0.173-0.525 0.52-0.7 0.694-1.050l1.039-0.525c0.349-0.175 0.7-0.175 1.043-0.35h0.867c0.023-0.003 0.050-0.005 0.078-0.005 0.172 0 0.328 0.069 0.442 0.18l-0-0c0.17 0.175 0.17 0.35 0.347 0.525 0.187 0.638 0.551 1.175 1.035 1.571l0.006 0.004c0.471 0.393 1.068 0.649 1.724 0.699l0.010 0.001c0.021 0 0.046 0.001 0.071 0.001 0.681 0 1.316-0.196 1.852-0.534l-0.014 0.008c0.53-0.406 0.946-0.937 1.205-1.55l0.009-0.025c0-0.175 0.173-0.35 0.347-0.525 0.173-0.35 0.347-0.35 0.52-0.35 0.042-0.004 0.090-0.006 0.139-0.006 0.266 0 0.517 0.067 0.736 0.185l-0.008-0.004c0.39 0.039 0.743 0.164 1.051 0.356l-0.010-0.006c0.331 0.146 0.617 0.322 0.874 0.531l-0.007-0.006c0.21 0.196 0.384 0.428 0.514 0.686l0.006 0.014c0.11 0.116 0.178 0.273 0.178 0.446 0 0.028-0.002 0.056-0.005 0.083l0-0.003c0 0.175 0 0.35-0.173 0.35-0.146 0.344-0.23 0.743-0.23 1.162 0 0.208 0.021 0.411 0.060 0.607l-0.003-0.020c0.116 0.684 0.425 1.282 0.869 1.752l-0.002-0.002c0.462 0.445 1.054 0.757 1.714 0.872l0.020 0.003c0.11 0.013 0.237 0.020 0.366 0.020 0.563 0 1.093-0.137 1.561-0.379l-0.019 0.009c0.114-0.111 0.27-0.18 0.442-0.18 0.027 0 0.054 0.002 0.081 0.005l-0.003-0c0.173 0 0.347 0.175 0.52 0.35 0.316 0.36 0.603 0.761 0.849 1.189l0.019 0.036c0.173 0.525 0.347 1.225 0.52 1.75 0.004 0.042 0.006 0.092 0.006 0.141 0 0.268-0.066 0.521-0.183 0.742l0.004-0.009c-0.173 0.175-0.347 0.35-0.52 0.35-0.696 0.144-1.262 0.6-1.555 1.212l-0.006 0.013c-0.432 0.469-0.697 1.099-0.697 1.79 0 0.047 0.001 0.095 0.004 0.141l-0-0.007c-0 0.020-0.001 0.044-0.001 0.069 0 0.628 0.195 1.211 0.527 1.691l-0.006-0.010c0.333 0.487 0.809 0.855 1.368 1.044l0.019 0.006c0.173 0 0.173 0.175 0.347 0.175 0.312 0.141 0.555 0.387 0.691 0.691l0.003 0.009zM16.125 22.475c0.939-0.006 1.832-0.198 2.645-0.542l-0.045 0.017c0.812-0.338 1.504-0.812 2.080-1.399l0.001-0.001c0.583-0.584 1.053-1.282 1.372-2.058l0.015-0.042c0.203-0.729 0.329-1.571 0.349-2.438l0-0.012c-0.005-0.947-0.196-1.849-0.537-2.672l0.017 0.047c-0.383-0.803-0.846-1.495-1.395-2.109l0.008 0.009c-0.577-0.588-1.269-1.062-2.040-1.385l-0.041-0.015c-0.687-0.332-1.494-0.526-2.346-0.526-0.029 0-0.057 0-0.086 0.001l0.004-0c-0.939 0.006-1.832 0.198-2.645 0.542l0.045-0.017c-0.791 0.441-1.472 0.905-2.108 1.421l0.027-0.021c-0.49 0.613-0.949 1.3-1.349 2.025l-0.038 0.075c-0.19 0.776-0.316 1.676-0.349 2.601l-0.001 0.024c0.005 0.947 0.196 1.849 0.537 2.672l-0.017-0.047c0.334 0.818 0.804 1.516 1.387 2.1l-0-0c0.577 0.588 1.269 1.062 2.040 1.385l0.041 0.015c0.723 0.204 1.556 0.33 2.416 0.35l0.012 0z"></path>
</svg>
