<!-- Generated by IcoMoon.io -->
<svg version="1.1" xmlns="http://www.w3.org/2000/svg" width="32" height="32" viewBox="0 0 32 32">
<title>left</title>
<path d="M19.118 2.002h0.043c0 0 0 0 0 0 0.471 0 0.894 0.203 1.187 0.527l0.001 0.001c0.273 0.303 0.439 0.705 0.439 1.147 0 0.525-0.236 0.996-0.608 1.311l-0.003 0.002-11.304 10.245c-0.32 0.244-0.524 0.626-0.524 1.055s0.204 0.811 0.521 1.053l0.003 0.002 11.48 9.715c0.287 0.312 0.463 0.73 0.463 1.19 0 0.972-0.788 1.76-1.76 1.76-0.375 0-0.723-0.117-1.009-0.318l0.006 0.004h0.006l-11.3-9.707c-1.057-0.897-1.732-2.217-1.76-3.695l-0-0.005v-0.026c0-0.002 0-0.004 0-0.006 0-1.448 0.607-2.754 1.58-3.677l0.002-0.002 11.3-10.24c0.356-0.181 0.772-0.3 1.213-0.329l0.010-0.001h0.010z"></path>
</svg>
