<!-- Generated by IcoMoon.io -->
<svg version="1.1" xmlns="http://www.w3.org/2000/svg" width="32" height="32" viewBox="0 0 32 32">
<title>loading</title>
<path d="M17.4 24.4c1.546 0 2.8 1.254 2.8 2.8s-1.254 2.8-2.8 2.8v0c-1.546 0-2.8-1.254-2.8-2.8s1.254-2.8 2.8-2.8v0zM8.637 20.2c1.933 0 3.5 1.567 3.5 3.5s-1.567 3.5-3.5 3.5v0c-1.933 0-3.5-1.567-3.5-3.5s1.567-3.5 3.5-3.5v0zM24.847 20.9c1.546 0 2.8 1.254 2.8 2.8s-1.254 2.8-2.8 2.8v0c-1.546 0-2.8-1.254-2.8-2.8s1.254-2.8 2.8-2.8v0zM27.9 15.047c1.16 0 2.1 0.94 2.1 2.1s-0.94 2.1-2.1 2.1v0c-1.16 0-2.1-0.94-2.1-2.1s0.94-2.1 2.1-2.1v0zM5.5 10.4c1.933 0 3.5 1.567 3.5 3.5s-1.567 3.5-3.5 3.5v0c-1.933 0-3.5-1.567-3.5-3.5s1.567-3.5 3.5-3.5v0zM26.9 9.29c0.773 0 1.4 0.627 1.4 1.4s-0.627 1.4-1.4 1.4v0c-0.773 0-1.4-0.627-1.4-1.4s0.627-1.4 1.4-1.4v0zM13.2 2c2.32 0 4.2 1.88 4.2 4.2s-1.88 4.2-4.2 4.2v0c-2.32 0-4.2-1.88-4.2-4.2s1.88-4.2 4.2-4.2v0zM23.7 6.2c0.387 0 0.7 0.313 0.7 0.7s-0.313 0.7-0.7 0.7v0c-0.387 0-0.7-0.313-0.7-0.7s0.313-0.7 0.7-0.7v0z"></path>
</svg>
