<!-- Generated by IcoMoon.io -->
<svg version="1.1" xmlns="http://www.w3.org/2000/svg" width="32" height="32" viewBox="0 0 32 32">
<title>map</title>
<path d="M16 1c6.445 0 11.67 5.077 11.67 11.342 0 0.133-0.003 0.265-0.008 0.4-0.143 3.748-2.276 7.962-5.775 12.237-1.703 2.062-3.49 3.911-5.411 5.612l-0.052 0.045-0.423 0.364-0.423-0.364-0.508-0.454c-1.773-1.613-3.394-3.312-4.888-5.12l-0.067-0.083c-3.499-4.274-5.632-8.488-5.776-12.237-0.005-0.133-0.008-0.267-0.008-0.4 0-6.177 5.082-11.202 11.406-11.338l0.264-0.002zM16 3.501c-5.080 0-9.169 3.975-9.169 8.841 0 0.1 0.002 0.201 0.006 0.303 0.115 2.993 1.897 6.702 5.212 10.749 1.104 1.338 2.21 2.542 3.376 3.685l0.008 0.008 0.568 0.548 0.567-0.548c1.175-1.151 2.281-2.355 3.323-3.615l0.063-0.078c3.314-4.047 5.097-7.756 5.212-10.749 0.004-0.103 0.006-0.203 0.006-0.303 0-4.866-4.090-8.841-9.169-8.841zM16 6.418c3.223 0 5.835 2.612 5.835 5.835s-2.613 5.835-5.835 5.835v0c-3.223 0-5.835-2.613-5.835-5.835s2.613-5.835 5.835-5.835v0zM16 8.919c-1.841 0-3.334 1.493-3.334 3.334s1.493 3.334 3.334 3.334v0c1.841 0 3.334-1.493 3.334-3.334s-1.493-3.334-3.334-3.334v0z"></path>
</svg>
