<!-- Generated by IcoMoon.io -->
<svg version="1.1" xmlns="http://www.w3.org/2000/svg" width="32" height="32" viewBox="0 0 32 32">
<title>more</title>
<path d="M16 12.5c-1.933 0-3.5 1.567-3.5 3.5s1.567 3.5 3.5 3.5c1.933 0 3.5-1.567 3.5-3.5v0c-0.006-1.931-1.569-3.494-3.499-3.5h-0.001zM26.5 12.5c-1.933 0-3.5 1.567-3.5 3.5s1.567 3.5 3.5 3.5c1.933 0 3.5-1.567 3.5-3.5v0c-0.006-1.931-1.569-3.494-3.499-3.5h-0.001zM5.5 12.5c-1.933 0-3.5 1.567-3.5 3.5s1.567 3.5 3.5 3.5c1.933 0 3.5-1.567 3.5-3.5v0c-0.006-1.931-1.569-3.494-3.499-3.5h-0.001z"></path>
</svg>
