<!-- Generated by IcoMoon.io -->
<svg version="1.1" xmlns="http://www.w3.org/2000/svg" width="32" height="32" viewBox="0 0 32 32">
<title>msg</title>
<path d="M20.854 30.424c-2.589-0.157-4.729-1.91-5.461-4.281l-0.011-0.043c-0.307-0.011-0.611-0.030-0.916-0.058-7.317-0.651-12.965-5.897-12.965-12.237 0-6.825 6.517-12.305 14.499-12.305s14.499 5.479 14.499 12.305c-0.071 3.726-1.9 7.010-4.689 9.067l-0.032 0.022c-0.125 0.104-0.287 0.167-0.463 0.167-0.4 0-0.725-0.325-0.725-0.725 0-0.24 0.117-0.453 0.297-0.585l0.002-0.001c2.257-1.775 3.694-4.505 3.694-7.571 0-0.132-0.003-0.262-0.008-0.393l0.001 0.019c0-5.966-5.343-10.372-12.576-10.372s-12.183 4.405-12.183 10.372c0 5.534 4.161 9.974 10.778 10.564q0.698 0.062 1.405 0.063c0.001 0 0.002 0 0.003 0 0.4 0 0.725 0.325 0.725 0.725 0 0.022-0.001 0.044-0.003 0.066l0-0.003c0.467 2.054 2.195 3.593 4.31 3.77l0.018 0.001c0.257 0.038 0.554 0.060 0.856 0.060 0.148 0 0.294-0.005 0.439-0.016l-0.019 0.001c-0.726-0.497-1.259-1.23-1.492-2.086l-0.006-0.026c-0.099-0.374-0.156-0.804-0.156-1.246s0.057-0.872 0.164-1.282l-0.008 0.035c0.050-0.222 0.105-0.409 0.172-0.59l-0.010 0.032c0.107-0.276 0.37-0.468 0.678-0.468 0.4 0 0.725 0.325 0.725 0.725 0 0.093-0.017 0.181-0.049 0.262l0.002-0.005c-0.037 0.099-0.073 0.224-0.101 0.352l-0.004 0.021c-0.075 0.277-0.118 0.595-0.118 0.923 0 0.305 0.037 0.602 0.108 0.886l-0.005-0.025c0.185 0.669 0.643 1.207 1.244 1.495l0.014 0.006c1.129 0.587 1.226 1.692 0.108 2.175-0.459 0.177-0.989 0.28-1.544 0.28-0.045 0-0.090-0.001-0.135-0.002l0.007 0c-0.377-0.001-0.747-0.028-1.109-0.079l0.042 0.005zM18.145 15.925v-3.592c0-0.87 0.705-1.574 1.574-1.574s1.574 0.705 1.574 1.574v3.587c0 0.87-0.705 1.574-1.574 1.574s-1.574-0.705-1.574-1.574v0zM10.496 15.925v-3.592c0-0.87 0.705-1.574 1.574-1.574s1.574 0.705 1.574 1.574v3.587c0 0.87-0.705 1.574-1.574 1.574s-1.574-0.705-1.574-1.574v0z"></path>
</svg>
