<!-- Generated by IcoMoon.io -->
<svg version="1.1" xmlns="http://www.w3.org/2000/svg" width="32" height="32" viewBox="0 0 32 32">
<title>qrcode</title>
<path d="M4.734 17.006v-2.044h-2.042v2.044zM5.413 26.632h4.1v-4.148h-4.1zM17.036 8.148h-2.056v2.037h2.057zM9.526 5.4h-4.112v4.155h4.1v-4.155zM21.804 19.754h-2.040v2.037h6.134v-2.037h-2.034v-2.064h-2.058v2.064zM17.036 2.654h-2.056v4.108h2.057zM17.026 18.382h2.057v-2.024h2.045v-2.081h-2.056v2.047h-2.046zM23.863 25.214v-2.038h-2.058v2.041h2.057zM25.909 15.64h-2.057v2.040h2.056zM12.925 2h-10.927v10.91h10.924zM11.573 11.554h-8.193v-8.178h8.2zM27.261 17.006h2.057v-2h-2.057zM27.261 27.261h-1.354v-2.027h-2.057v2.027h-2.045v2.081h7.518v-6.175h-2.057v4.1zM27.261 21.785h2.057v-2.037h-2.057zM26.586 5.407h-4.112v4.156h4.1v-4.156zM19.078 2v10.91h10.92v-10.91zM28.628 11.554h-8.2v-8.178h8.2zM17.028 23.154h2.047v-2h-2.048v-2.754h-2.056v10.9h2.046v0.027h2.057v-2.041h-2.048zM6.78 17.033h6.833v-2.068h-6.833zM17.028 11.564h-2.067v2.044h2.067zM19.064 27.251h2.057v-2.034h-2.058zM1.998 30h10.924v-10.91h-10.924zM3.377 20.467h8.2v8.177h-8.2z"></path>
</svg>
