<!-- Generated by IcoMoon.io -->
<svg version="1.1" xmlns="http://www.w3.org/2000/svg" width="32" height="32" viewBox="0 0 32 32">
<title>scan</title>
<path d="M27.771 24.348c-0.002 1.336-1.084 2.419-2.42 2.421h-4.848v2.231h4.847c2.568-0.002 4.65-2.083 4.653-4.651v-5.23h-2.232v5.23zM4.236 24.348v-5.23h-2.233v5.23c0.003 2.568 2.084 4.649 4.652 4.652h5.036v-2.232h-5.038c-1.336-0.002-2.419-1.084-2.421-2.42v-0zM4.236 5.654c0.002-1.336 1.084-2.419 2.42-2.421h5.034v-2.233h-5.038c-2.567 0.005-4.647 2.086-4.649 4.653v4.654h2.229v-4.654zM25.349 1h-4.846v2.232h4.847c1.336 0.002 2.419 1.084 2.421 2.42v4.654h2.232v-4.652c-0.002-2.569-2.083-4.651-4.652-4.654h-0zM2.090 13.419h27.825v2.79h-27.825z"></path>
</svg>
