<!-- Generated by IcoMoon.io -->
<svg version="1.1" xmlns="http://www.w3.org/2000/svg" width="32" height="32" viewBox="0 0 32 32">
<title>search</title>
<path d="M29.641 28.724l-5.252-5.161c1.927-2.146 3.106-4.998 3.106-8.125 0-3.478-1.458-6.616-3.796-8.835l-0.005-0.005v-0.005c-2.312-2.225-5.459-3.595-8.927-3.595-3.513 0-6.698 1.406-9.022 3.687l0.002-0.002c-2.309 2.221-3.744 5.337-3.744 8.788 0 3.321 1.328 6.331 3.483 8.529l-0.002-0.002 0.262 0.263c2.338 2.259 5.525 3.65 9.038 3.65 2.905 0 5.587-0.952 7.753-2.56l-0.035 0.025-0.036 0.025 5.253 5.159c0.235 0.268 0.579 0.437 0.962 0.437s0.727-0.168 0.961-0.435l0.001-0.001c0.225-0.24 0.362-0.563 0.362-0.919s-0.138-0.679-0.363-0.919l0.001 0.001zM4.696 15.429c0.154-5.441 4.602-9.792 10.065-9.792 5.459 0 9.903 4.344 10.064 9.763l0 0.015v0.015c-0.086 5.43-4.508 9.799-9.95 9.8h-0.283c-0 0-0 0-0.001 0-5.432 0-9.843-4.376-9.899-9.795l-0-0.005v-0.005z"></path>
</svg>
