<!-- Generated by IcoMoon.io -->
<svg version="1.1" xmlns="http://www.w3.org/2000/svg" width="32" height="32" viewBox="0 0 32 32">
<title>share</title>
<path d="M10.275 5.685v2.592h-5.667v19.006h20.734v-9.935h2.592v9.935c0 1.431-1.16 2.592-2.592 2.592v0h-20.734c-1.431 0-2.592-1.16-2.592-2.592v0-19.006c0-1.431 1.16-2.592 2.592-2.592v0h5.667zM23.875 2.125l6.109 6.108-6.414 6.415-1.833-1.832 2.81-2.81h-3.094c-4.928 0-8.938 3.929-9.068 8.826l-0.003 0.245v3.456h-2.592v-3.456c0-6.441 5.222-11.663 11.663-11.663h4.044l-3.455-3.456 1.832-1.832z"></path>
</svg>
