<svg xmlns="http://www.w3.org/2000/svg" width="32" height="32" viewBox="0 0 32 32"><defs><style>.a{opacity:0;}</style></defs><g transform="translate(-112 -30)"><rect class="a" width="32" height="32" transform="translate(112 30)"/><path d="M164.641,187.163a1.292,1.292,0,0,1-1.3-1.295v-4.392a3.494,3.494,0,0,1,1-2.415l15.26-14.735a3.348,3.348,0,0,1,2.4-1,3.388,3.388,0,0,1,2.415,1l2.293,2.275a3.463,3.463,0,0,1-.175,4.987l-15.26,14.735a3.29,3.29,0,0,1-2.223.822h-4.41Zm4.375-2.607a.809.809,0,0,0,.56-.228l11.445-10.937-3.255-3.57-11.6,11.1a.81.81,0,0,0-.228.56v3.1h3.08Zm13.86-13,1.978-1.978a.8.8,0,0,0,0-1.137l-2.293-2.292a.766.766,0,0,0-.56-.227.809.809,0,0,0-.56.227l-1.82,1.837Zm-17.92,19.775a1.542,1.542,0,1,1,0-3.08h22.173a1.542,1.542,0,1,1,0,3.08Z" transform="translate(-48.328 -131.328)"/></g></svg>