<svg xmlns="http://www.w3.org/2000/svg" width="32" height="32" viewBox="0 0 32 32"><defs><style>.a{opacity:0;}</style></defs><g transform="translate(-154 -30)"><rect class="a" width="32" height="32" transform="translate(154 30)"/><path d="M187.515,7.4v15.59a5,5,0,0,1-5,5h-12.58a5,5,0,0,1-5-5V7.4a1.233,1.233,0,1,1,0-2.466v0h5.375a6.011,6.011,0,0,1,11.831,0h5.374v0a1.233,1.233,0,0,1,0,2.465Zm-11.29-4.938a3.624,3.624,0,0,0-3.407,2.47h6.815a3.624,3.624,0,0,0-3.407-2.47ZM185.1,7.4H167.355V22.518a3,3,0,0,0,3,3H182.1a3,3,0,0,0,3-3V7.4Zm-6.05,13.176a1.209,1.209,0,0,1-1.209-1.209V13.552a1.21,1.21,0,1,1,2.419,0v5.816a1.209,1.209,0,0,1-1.208,1.21Zm-5.645,0a1.209,1.209,0,0,1-1.209-1.209V13.552a1.21,1.21,0,1,1,2.419,0v5.816a1.209,1.209,0,0,1-1.208,1.21Z" transform="translate(-6.703 32.012)"/></g></svg>