<svg xmlns="http://www.w3.org/2000/svg" width="32" height="32" viewBox="0 0 32 32"><defs><style>.a{opacity:0;}</style></defs><g transform="translate(-280 -30)"><rect class="a" width="32" height="32" transform="translate(280 30)"/><path d="M102.208,161.211l1.809-1.93a1.116,1.116,0,0,1,1.59-.043,1.148,1.148,0,0,1,.043,1.609l-3.425,3.656a1.3,1.3,0,0,1-1.857.049l-3.81-3.663a1.147,1.147,0,0,1-.041-1.609,1.116,1.116,0,0,1,1.591-.041l1.85,1.78v-9.223a1.125,1.125,0,1,1,2.25,0Zm-1.875-22.544a9.53,9.53,0,0,1,9.12,7.273,6.236,6.236,0,0,1-.1,12.456,1.138,1.138,0,0,1,0-2.276,3.959,3.959,0,0,0,0-7.9,3.566,3.566,0,0,0-.608.052,1.127,1.127,0,0,1-1.3-.949,7.328,7.328,0,0,0-7.109-6.375,7.138,7.138,0,0,0-6.236,3.792,1.122,1.122,0,0,1-1.059.583q-.168-.011-.336-.011a5.415,5.415,0,0,0,0,10.813,1.138,1.138,0,0,1,0,2.276,7.694,7.694,0,0,1-.216-15.363A9.341,9.341,0,0,1,100.333,138.667Z" transform="translate(195.667 -105.667)"/></g></svg>