<svg xmlns="http://www.w3.org/2000/svg" width="32" height="32" viewBox="0 0 32 32"><defs><style>.a{opacity:0;}</style></defs><g transform="translate(-322 -30)"><rect class="a" width="32" height="32" transform="translate(322 30)"/><path d="M11.444.393A1.515,1.515,0,0,1,12.5,0a1.582,1.582,0,0,1,1.055.393l6.1,5.667a1.092,1.092,0,0,1,0,1.59,1.3,1.3,0,0,1-1.717,0L13.7,3.721V18.86a1.177,1.177,0,0,1-1.208,1.13,1.157,1.157,0,0,1-1.2-1.13V3.721L7.057,7.65a1.3,1.3,0,0,1-1.717,0,1.093,1.093,0,0,1,0-1.59Zm12.475,12.1A1.072,1.072,0,0,1,25,13.612v7.474A3.923,3.923,0,0,1,21.1,25H3.9A3.915,3.915,0,0,1,0,21.085V13.612a1.12,1.12,0,0,1,2.238,0v7.474a1.682,1.682,0,0,0,1.69,1.69H21.121a1.682,1.682,0,0,0,1.692-1.69V13.612a1.1,1.1,0,0,1,1.107-1.118Zm0,0" transform="translate(326 33.001)"/></g></svg>