<svg xmlns="http://www.w3.org/2000/svg" width="32" height="32" viewBox="0 0 32 32"><defs><style>.a{opacity:0;}</style></defs><g transform="translate(-364 -30)"><rect class="a" width="32" height="32" transform="translate(364 30)"/><path d="M12830.191,123.923a3.193,3.193,0,0,1-3.192-3.188V103.189a3.193,3.193,0,0,1,3.192-3.188h8.167a.956.956,0,1,1,0,1.912h-8.167a1.278,1.278,0,0,0-1.275,1.276v17.546a1.278,1.278,0,0,0,1.275,1.276h18.615a1.279,1.279,0,0,0,1.276-1.276V113.16a.958.958,0,1,1,1.916,0v7.575a3.193,3.193,0,0,1-3.192,3.188Zm12.85-20.514a.7.7,0,0,0,.582-.685v-1.862a.714.714,0,0,1,1.154-.537l6.847,6.16a.69.69,0,0,1,0,1.07l-6.878,5.561a.685.685,0,0,1-1.118-.537v-1.84a.689.689,0,0,0-.667-.689c-5.306-.282-8.306,4.065-11.278,6.881C12831.6,116.191,12833.913,105.49,12843.041,103.409Z" transform="translate(-12459.998 -66.002)"/></g></svg>