<svg xmlns="http://www.w3.org/2000/svg" width="32" height="32" viewBox="0 0 32 32"><defs><style>.a{opacity:0;}</style></defs><g transform="translate(-448 -30)"><rect class="a" width="32" height="32" transform="translate(448 30)"/><path d="M12831.011,125a4,4,0,0,1-4.012-3.788V105.786a.94.94,0,0,1,1.873.107v15.088a2.192,2.192,0,0,0,2.188,2.189l15.084,0a.948.948,0,0,1,.939.94.964.964,0,0,1-.939.891Zm3.4-3.7a3.7,3.7,0,0,1-3.712-3.707V103.709a3.7,3.7,0,0,1,3.712-3.707h13.884a3.7,3.7,0,0,1,3.706,3.707v13.883a3.7,3.7,0,0,1-3.706,3.707Zm-1.71-17.5v13.691a1.814,1.814,0,0,0,1.809,1.8h13.687a1.812,1.812,0,0,0,1.8-1.8V103.8a1.812,1.812,0,0,0-1.8-1.8h-13.687A1.814,1.814,0,0,0,12832.7,103.8Z" transform="translate(-12375.998 -66.001)"/></g></svg>