<svg xmlns="http://www.w3.org/2000/svg" width="32" height="32" viewBox="0 0 32 32"><defs><style>.a{opacity:0;}.b{fill:#303133;}</style></defs><g transform="translate(-700 -30)"><rect class="a" width="32" height="32" transform="translate(700 30)"/><path class="b" d="M882.088,862.307" transform="translate(-166.088 -816.307)"/><path class="b" d="M960.183,877.1" transform="translate(-244.183 -831.1)"/><path class="b" d="M958.463,788.685" transform="translate(-242.463 -742.685)"/><path class="b" d="M959.495,858.694" transform="translate(-243.495 -812.694)"/><path class="b" d="M193.309,101.984l-10.109,10.1a1.641,1.641,0,0,1-2.32,0l-10.1-10.109a1.5,1.5,0,0,1,1.04-2.5h5.01v-11.3a1.608,1.608,0,0,1,1.609-1.609h7.213a1.608,1.608,0,0,1,1.609,1.609V99.482h5.022A1.5,1.5,0,0,1,193.309,101.984Z" transform="translate(533.625 -53.567)"/></g></svg>