<svg xmlns="http://www.w3.org/2000/svg" width="32" height="32" viewBox="0 0 32 32"><defs><style>.a{opacity:0;}.b{fill:#303133;}</style></defs><g transform="translate(-784 -30)"><rect class="a" width="32" height="32" transform="translate(784 30)"/><path class="b" d="M154.086,27.8l9.5-10.886a.6.6,0,0,0-.448-.987h-4.67a.588.588,0,0,1-.588-.511c-.35-2.534-2.464-13.742-12.475-15.4a.6.6,0,0,0-.483,1.05,12.662,12.662,0,0,1,4.585,8.583,42.99,42.99,0,0,1,.35,5.678.609.609,0,0,1-.6.609h-5.131a.6.6,0,0,0-.448.987L153.19,27.8a.6.6,0,0,0,.9,0Z" transform="translate(646.464 32)"/></g></svg>