<svg xmlns="http://www.w3.org/2000/svg" width="32" height="32" viewBox="0 0 32 32"><defs><style>.a{opacity:0;}</style></defs><g transform="translate(-28 -72)"><rect class="a" width="32" height="32" transform="translate(28 72)"/><path d="M198.444,32a2.178,2.178,0,0,1,2.178,2.178V57.822A2.178,2.178,0,0,1,198.444,60H183.511a2.178,2.178,0,0,1-2.178-2.178V34.178A2.178,2.178,0,0,1,183.511,32Zm.311,21.467H183.2v4.356a.311.311,0,0,0,.311.311h14.933a.311.311,0,0,0,.311-.311Zm-7.778,1.244a1.244,1.244,0,1,1-1.244,1.244A1.244,1.244,0,0,1,190.977,54.711Zm7.467-20.844H183.511a.311.311,0,0,0-.311.311V51.6h15.556V34.178a.311.311,0,0,0-.311-.311Zm-4.978,1.556v1.867h-4.978V35.422Z" transform="translate(-147.333 42)"/></g></svg>