<svg xmlns="http://www.w3.org/2000/svg" width="32" height="32" viewBox="0 0 32 32">
  <g id="组_7072" data-name="组 7072" transform="translate(-70 -72)">
    <rect id="矩形_4712" data-name="矩形 4712" width="32" height="32" transform="translate(70 72)" opacity="0"/>
    <path id="路径_1872" data-name="路径 1872" d="M12827,115.214V106.83a2.73,2.73,0,0,1,2.388-2.594,16.639,16.639,0,0,0,4.783-1.187,11.528,11.528,0,0,0,4.347-2.383,2.992,2.992,0,0,1,3.539-.167,18.025,18.025,0,0,0,4.38,2.506,37.989,37.989,0,0,0,4.98,1.125,2.889,2.889,0,0,1,2.325,2.669,78.366,78.366,0,0,1-.105,8.564c-1.126,9.448-8.5,14.636-13.166,14.636C12835.713,130,12827.123,122.548,12827,115.214Zm13.035-12.719a13.936,13.936,0,0,1-5.069,2.8,19.059,19.059,0,0,1-5.293,1.306.314.314,0,0,0-.273.281v8.3c.063,2.682,1.617,5.773,4.306,8.472,2.562,2.581,5.354,3.93,6.777,3.93,3.33,0,9.765-4.168,10.784-12.464a79.505,79.505,0,0,0,.076-8.2.5.5,0,0,0-.374-.435,41.411,41.411,0,0,1-5.236-1.2l-.106-.026-.105-.048a20.342,20.342,0,0,1-4.856-2.757.567.567,0,0,0-.629.044Zm-1.935,16.948a.106.106,0,0,1-.015-.016l-.016-.015-4.247-4.247a1.2,1.2,0,1,1,1.7-1.693l3.449,3.449,6.39-6.39a1.166,1.166,0,0,1,1.649,1.649l-7.26,7.263a1.148,1.148,0,0,1-.818.336A1.188,1.188,0,0,1,12838.1,119.444Z" transform="translate(-12754 -26.999)" fill="#262626"/>
  </g>
</svg>
