<svg xmlns="http://www.w3.org/2000/svg" width="32" height="32" viewBox="0 0 32 32"><defs><style>.a{opacity:0;}.b{fill:#262626;}</style></defs><g transform="translate(-70 -72)"><rect class="a" width="32" height="32" transform="translate(70 72)"/><path class="b" d="M12827,114.2v-7.825a2.548,2.548,0,0,1,2.229-2.421,15.532,15.532,0,0,0,4.465-1.108,10.76,10.76,0,0,0,4.057-2.224,2.792,2.792,0,0,1,3.3-.156,16.837,16.837,0,0,0,4.088,2.339,35.485,35.485,0,0,0,4.648,1.05,2.7,2.7,0,0,1,2.171,2.491,73.305,73.305,0,0,1-.1,7.993c-1.051,8.818-7.937,13.66-12.288,13.66C12835.131,128,12827.114,121.044,12827,114.2Zm12.166-11.871a13,13,0,0,1-4.731,2.618,17.786,17.786,0,0,1-4.939,1.219.294.294,0,0,0-.256.263v7.743c.059,2.5,1.51,5.388,4.019,7.907,2.392,2.409,5,3.668,6.326,3.668,3.107,0,9.113-3.89,10.065-11.633a74.407,74.407,0,0,0,.07-7.657.466.466,0,0,0-.349-.406,38.686,38.686,0,0,1-4.888-1.12l-.1-.025-.1-.045a18.988,18.988,0,0,1-4.533-2.573.529.529,0,0,0-.268-.07A.534.534,0,0,0,12839.165,102.329Zm-1.806,15.818-.014-.015-.015-.014-3.964-3.964a1.119,1.119,0,0,1,1.584-1.58l3.219,3.219,5.964-5.964a1.088,1.088,0,1,1,1.539,1.539l-6.775,6.779a1.073,1.073,0,0,1-.764.314A1.111,1.111,0,0,1,12837.359,118.147Z" transform="translate(-12753.998 -25.999)"/></g></svg>