<svg xmlns="http://www.w3.org/2000/svg" width="32" height="32" viewBox="0 0 32 32"><defs><style>.a{opacity:0;}</style></defs><g transform="translate(-112 -72)"><rect class="a" width="32" height="32" transform="translate(112 72)"/><path d="M10.833,0H1.083A1.083,1.083,0,0,0,0,1.083v9.75a1.083,1.083,0,0,0,1.083,1.083h9.75a1.083,1.083,0,0,0,1.083-1.083V1.083A1.083,1.083,0,0,0,10.833,0ZM9.75,9.75H2.167V2.167H9.75V9.75Zm1.083,4.333H1.083A1.083,1.083,0,0,0,0,15.167v9.75A1.083,1.083,0,0,0,1.083,26h9.75a1.083,1.083,0,0,0,1.083-1.083v-9.75a1.083,1.083,0,0,0-1.083-1.083ZM9.75,23.833H2.167V16.25H9.75v7.583ZM24.917,0h-9.75a1.083,1.083,0,0,0-1.083,1.083v9.75a1.083,1.083,0,0,0,1.083,1.083h9.75A1.083,1.083,0,0,0,26,10.833V1.083A1.083,1.083,0,0,0,24.917,0ZM23.833,9.75H16.25V2.167h7.583V9.75ZM4.333,4.333h3.25v3.25H4.333Zm0,14.083h3.25v3.25H4.333v-3.25ZM22.75,14.083H26v3.25H22.75Zm0,8.667H20.583V26H26V20.583H22.75V22.75Zm-8.667,0h3.25V26h-3.25ZM18.417,4.333h3.25v3.25h-3.25V4.333Zm-4.333,9.75h3.25v3.25h-3.25Zm3.25,3.25h3.25V22.75h-3.25Z" transform="translate(115 75)"/></g></svg>