<svg xmlns="http://www.w3.org/2000/svg" width="32" height="32" viewBox="0 0 32 32"><defs><style>.a{opacity:0;}</style></defs><g transform="translate(-154 -72)"><rect class="a" width="32" height="32" transform="translate(154 72)"/><path d="M12841,124.639h-4.482a1.12,1.12,0,0,1,0-2.241h3.362v-2.8h-11.646a1.235,1.235,0,0,1-1.234-1.232V101.231a1.235,1.235,0,0,1,1.234-1.232h25.533a1.233,1.233,0,0,1,1.232,1.232v17.135a1.233,1.233,0,0,1-1.232,1.232h-11.648v2.8h3.357a1.12,1.12,0,0,1,0,2.241Zm-12.6-7.671h25.194V102.634H12828.4Zm9.446-3.667a1.051,1.051,0,0,1,0-2.1h6.3a1.051,1.051,0,0,1,0,2.1Zm0-4.2a1.051,1.051,0,0,1,0-2.1h6.3a1.051,1.051,0,0,1,0,2.1Z" transform="translate(-12671.002 -24)"/></g></svg>