<svg xmlns="http://www.w3.org/2000/svg" width="32" height="32" viewBox="0 0 32 32"><defs><style>.a{opacity:0;}.b{fill:#303133;}</style></defs><g transform="translate(-196 -72)"><rect class="a" width="32" height="32" transform="translate(196 72)"/><g transform="translate(198.999 76.001)"><path class="b" d="M12628.371,44.849a3.339,3.339,0,0,1-3.336-3.342v-.858a.933.933,0,0,1,0-.507v-15.8a3.339,3.339,0,0,1,3.336-3.342h19.289a3.343,3.343,0,0,1,3.34,3.342V41.507a3.343,3.343,0,0,1-3.34,3.342Zm4.717-13.94c2.232,1.568,4.859,4.975,6.2,6.819.27-.384.6-.833.959-1.287,1.518-1.894,2.85-2.9,4.063-3.078a2.391,2.391,0,0,1,2.037.639,22.377,22.377,0,0,1,2.625,3.028V24.341a1.313,1.313,0,0,0-1.307-1.308h-19.289a1.311,1.311,0,0,0-1.311,1.308V35.178a19.037,19.037,0,0,1,1.436-2.467,5.188,5.188,0,0,1,2.434-2.129,2.492,2.492,0,0,1,.781-.129A2.363,2.363,0,0,1,12633.088,30.908Zm9.27-2.97a2.288,2.288,0,1,1,2.285,2.286A2.286,2.286,0,0,1,12642.357,27.938Z" transform="translate(-12624.999 -21)"/></g></g></svg>