<svg xmlns="http://www.w3.org/2000/svg" width="32" height="32" viewBox="0 0 32 32"><defs><style>.a{opacity:0;}</style></defs><g transform="translate(-238 -72)"><rect class="a" width="32" height="32" transform="translate(238 72)"/><path d="M3.413,15.246h.46a.228.228,0,0,1,.223.228.224.224,0,0,1-.223.228h-.46v.46a.228.228,0,0,1-.228.223.224.224,0,0,1-.228-.223V15.7H2.5a.228.228,0,0,1-.223-.228.224.224,0,0,1,.223-.228h.46v-.46a.228.228,0,0,1,.228-.223.224.224,0,0,1,.228.223v.46Zm27.9-1.82v-.46a.224.224,0,0,0-.228-.223.228.228,0,0,0-.228.223v.46H30.4a.224.224,0,0,0-.223.228.228.228,0,0,0,.223.228h.46v.46a.224.224,0,0,0,.228.223.228.228,0,0,0,.228-.223v-.46h.46A.224.224,0,0,0,32,13.653a.228.228,0,0,0-.223-.228h-.46Zm-14.4,7.509H5.46a.455.455,0,0,1,0-.91H7.524a1.809,1.809,0,0,1-.242-.908V5.914A1.819,1.819,0,0,1,9.1,4.1h1.364V3.639A1.819,1.819,0,0,1,12.29,1.82H23.209a1.818,1.818,0,0,1,1.822,1.818v13.2a1.809,1.809,0,0,1-.243.908h2.518a.455.455,0,1,1,0,.91H21.845v.457a1.809,1.809,0,0,1-.243.908h.244a.455.455,0,0,1,0,.91H19.452a.91.91,0,0,1-1.427,1.108Zm1.664-.91h1.447a.907.907,0,0,0,.907-.912V5.893a.881.881,0,0,0-.878-.887H9.07a.882.882,0,0,0-.878.887v13.22a.912.912,0,0,0,.906.912h6.909l-.234-.234a.908.908,0,0,1-.237-.88l-.43-.43a3.191,3.191,0,1,1,.644-.644l.43.43a.907.907,0,0,1,.88.236l1.521,1.521Zm3.264-2.276h1.369a.911.911,0,0,0,.906-.91V3.641a.907.907,0,0,0-.906-.91H12.283a.911.911,0,0,0-.906.91V4.1h8.645a1.818,1.818,0,0,1,1.822,1.818ZM5.8,1.024h.678a.341.341,0,1,1,0,.683H5.8v.678a.341.341,0,1,1-.683,0V1.707H4.442a.341.341,0,1,1,0-.683H5.12V.346a.341.341,0,1,1,.683,0v.678ZM.455,20.48a.456.456,0,0,1,.454-.455H3.642a.455.455,0,0,1,0,.91H.909a.453.453,0,0,1-.454-.455Zm14.352-2.942a2.276,2.276,0,1,0-3.219,0A2.276,2.276,0,0,0,14.807,17.538Zm-4.8-10.711a.455.455,0,0,1,.455-.455h5.007a.455.455,0,0,1,0,.91H10.467a.454.454,0,0,1-.455-.455Zm0,2.276a.454.454,0,0,1,.452-.455h7.288a.455.455,0,0,1,0,.91H10.464a.452.452,0,0,1-.452-.455Zm0,2.276a.455.455,0,0,1,.454-.455h3.188a.455.455,0,0,1,0,.91H10.467a.453.453,0,0,1-.454-.455ZM1.365,8.647A1.365,1.365,0,1,1,2.731,7.282,1.365,1.365,0,0,1,1.365,8.647Zm0-.683a.683.683,0,1,0-.683-.683.683.683,0,0,0,.683.683ZM29.582,5.916a1.365,1.365,0,1,1,1.365-1.365,1.365,1.365,0,0,1-1.365,1.365Zm0-.683a.683.683,0,1,0-.683-.683.683.683,0,0,0,.683.683Z" transform="translate(238 77)"/></g></svg>