<svg xmlns="http://www.w3.org/2000/svg" width="32" height="32" viewBox="0 0 32 32">
  <g id="组_7113" data-name="组 7113" transform="translate(-340 -82)">
    <rect id="矩形_4700" data-name="矩形 4700" width="32" height="32" transform="translate(340 82)" opacity="0"/>
    <path id="文件夹_1_" data-name="文件夹 (1)" d="M59.651,75a3.492,3.492,0,0,1,2.4.952l.032.031,1.506,1.457a1.6,1.6,0,0,0,1.079.45h6.56a3.49,3.49,0,0,1,3.384,2.633l.313,1.237h1.533a2.544,2.544,0,0,1,2.424,3.321L74.751,97.946a2.545,2.545,0,0,1-2.424,1.767H53.566a2.545,2.545,0,0,1-2.545-2.544q0-.043,0-.086H51V78.489A3.429,3.429,0,0,1,54.36,75h5.291Zm16.8,8.65H58.166a.655.655,0,0,0-.609.415l-.007.019-4.6,12.865a.654.654,0,0,0,.6.874h18.78a.655.655,0,0,0,.617-.436l.006-.019L77.078,84.5a.654.654,0,0,0-.6-.854h-.019Zm-16.8-6.76H54.418a1.537,1.537,0,0,0-1.527,1.572V91.5l2.878-8.05a2.545,2.545,0,0,1,2.4-1.688h14.8l-.2-.774a1.6,1.6,0,0,0-1.524-1.207H64.7a3.492,3.492,0,0,1-2.4-.952L62.27,78.8,60.764,77.34a1.6,1.6,0,0,0-1.079-.45Z" transform="translate(291 11)"/>
  </g>
</svg>
