<svg xmlns="http://www.w3.org/2000/svg" width="32" height="32" viewBox="0 0 32 32">
  <g id="组_7114" data-name="组 7114" transform="translate(-392 -82)">
    <rect id="矩形_4743" data-name="矩形 4743" width="32" height="32" transform="translate(392 82)" opacity="0"/>
    <path id="路径_1892" data-name="路径 1892" d="M12806.5,118a3.383,3.383,0,0,1-3.5-3.249v-19.5a3.383,3.383,0,0,1,3.5-3.252h10.5c1.169-.015,1.636.024,1.751.024V92l7,6.5v16.247a3.376,3.376,0,0,1-3.5,3.249Zm-1.747-22.745v19.5a1.69,1.69,0,0,0,1.747,1.626h15.75a1.694,1.694,0,0,0,1.751-1.626V100.127h-3.5a3.38,3.38,0,0,1-3.5-3.249s-.042-1.3-.025-3.249H12806.5A1.688,1.688,0,0,0,12804.75,95.256Zm14,1.623a1.691,1.691,0,0,0,1.748,1.626h3.5l-5.25-4.875Zm-9.415,14.794a.966.966,0,1,1,0-1.928h9.335a.966.966,0,1,1,0,1.928Zm0-4.815a.966.966,0,1,1,0-1.928h9.335a.966.966,0,1,1,0,1.928Z" transform="translate(-12405.998 -7)"/>
  </g>
</svg>
