<svg xmlns="http://www.w3.org/2000/svg" width="32" height="32" viewBox="0 0 32 32"><defs><style>.a{opacity:0;}</style></defs><g transform="translate(-28 -114)"><rect class="a" width="32" height="32" transform="translate(28 114)"/><path d="M231.683,193.553a.386.386,0,0,1,.258.127l10.9,10.937a.963.963,0,0,1,.161,1.045c-.128.309-.3.373-.416.373h-2.4v10.97c0,.361-.211.583-.325.583h-3.777c-.115,0-.326-.221-.326-.583v-7.347h-7.882V217c0,.361-.211.583-.325.583H223.5c-.114,0-.325-.221-.325-.583V206.036h-2.39c-.219,0-.349-.2-.416-.373a.963.963,0,0,1,.161-1.045l10.9-10.937a.386.386,0,0,1,.258-.127m0-1.982a2.339,2.339,0,0,0-1.666.711l-10.9,10.936c-1.685,1.692-.608,4.8,1.666,4.8h.4v8.987a2.447,2.447,0,0,0,2.308,2.565h4.057a2.446,2.446,0,0,0,2.308-2.565v-5.361h3.915v5.361a2.447,2.447,0,0,0,2.308,2.565h3.777a2.446,2.446,0,0,0,2.308-2.565v-8.987h.406c2.271,0,3.348-3.11,1.666-4.8l-10.893-10.936A2.339,2.339,0,0,0,231.683,191.571Z" transform="translate(-187.299 -75.571)"/></g></svg>