<svg xmlns="http://www.w3.org/2000/svg" width="32" height="32" viewBox="0 0 32 32"><defs><style>.a{opacity:0;}</style></defs><g transform="translate(-70 -114)"><rect class="a" width="32" height="32" transform="translate(70 114)"/><path d="M117.07,92.854H102.222A3.52,3.52,0,0,1,98.832,90L96.689,77.015a2.675,2.675,0,0,1,2.69-3.187h20.535a2.671,2.671,0,0,1,2.687,3.195l-2.141,12.97a3.523,3.523,0,0,1-3.39,2.861ZM99.379,75.829a.737.737,0,0,0-.581.238.745.745,0,0,0-.137.616L100.8,89.668a1.532,1.532,0,0,0,1.417,1.186H117.07a1.536,1.536,0,0,0,1.419-1.194l2.141-12.97a.679.679,0,0,0-.716-.861Zm4.208,6a2,2,0,1,1,2-2,2,2,0,0,1-2,2Zm0-2h0l0,1v-1Zm12.058,2a2,2,0,1,1,2-2,2,2,0,0,1-2,2Zm0-2h0v0Zm1-6.979a1,1,0,0,1-1-1c0-2.862-3.2-5-6.053-5-2.923,0-5.947,1.866-5.947,4.988a1,1,0,0,1-2,0c0-4.374,4.041-6.988,7.948-6.988,3.809,0,8.053,2.875,8.053,7a1,1,0,0,1-1,1Zm0,0" transform="translate(-23.646 51.146)"/></g></svg>