<svg xmlns="http://www.w3.org/2000/svg" width="32" height="32" viewBox="0 0 32 32"><defs><style>.a{opacity:0;}</style></defs><g transform="translate(-112 -114)"><rect class="a" width="32" height="32" transform="translate(112 114)"/><path d="M107.4,38.133h.17a3,3,0,0,0,2.83,2h8a3,3,0,0,0,2.83-2h.17a3,3,0,0,1,3,3v16a3,3,0,0,1-3,3h-14a3,3,0,0,1-3-3v-16A3,3,0,0,1,107.4,38.133Zm14-2h-.17a3,3,0,0,0-2.83-2h-8a3,3,0,0,0-2.83,2h-.17a5,5,0,0,0-5,5v16a5,5,0,0,0,5,5h14a5,5,0,0,0,5-5v-16a5,5,0,0,0-5-5Zm-11,0h8a1,1,0,0,1,0,2h-8a1,1,0,1,1,0-2Zm-1,9a1,1,0,0,0,0,2h10a1,1,0,1,0,0-2h-10Zm0,4a1,1,0,0,0,0,2h10a1,1,0,0,0,0-2h-10Zm0,4a1,1,0,0,0,0,2h6a1,1,0,1,0,0-2Z" transform="translate(13.6 81.867)"/></g></svg>