<svg xmlns="http://www.w3.org/2000/svg" width="32" height="32" viewBox="0 0 32 32"><defs><style>.a{opacity:0;}</style></defs><g transform="translate(-154 -114)"><rect class="a" width="32" height="32" transform="translate(154 114)"/><path d="M50.4,72.628a.954.954,0,0,0-.945.959v5.652a1.383,1.383,0,0,1-1.358,1.4H32.282a1.374,1.374,0,0,1-1.358-1.4V73.587a.945.945,0,1,0-1.889,0V79.4a3.146,3.146,0,0,0,3.114,3.173h16.1A3.156,3.156,0,0,0,51.364,79.4V73.587a1,1,0,0,0-.959-.959Zm.059-15.88-.28-.428H30.511l-.28.369c-5.018,6.553-4.309,10.567-3.439,12.4a5.162,5.162,0,0,0,4.56,3.025h.177a6.935,6.935,0,0,0,4.619-2.022,5.634,5.634,0,0,0,4.236,1.9,5.727,5.727,0,0,0,4.354-2.007,8.342,8.342,0,0,0,4.855,2.081,4.43,4.43,0,0,0,3.468-1.682C56.559,66.223,50.715,57.146,50.464,56.748ZM45.4,62.784v-.059a.944.944,0,0,0-1.874-.177h-.015v5.918a3.871,3.871,0,0,1-3.129,1.594,3.941,3.941,0,0,1-3.262-1.771V62.725a.945.945,0,1,0-1.889,0v5.534a5.084,5.084,0,0,1-3.763,1.948h-.148a3.312,3.312,0,0,1-2.863-1.963c-.664-1.358-1.151-4.472,2.952-10.006H49.136c1.845,3.011,4.383,8.589,2.465,10.862a2.577,2.577,0,0,1-2.037,1.018c-1.786,0-3.7-1.653-4.191-2.1l.03-5.239Z" transform="translate(129.826 60.68)"/></g></svg>