<svg xmlns="http://www.w3.org/2000/svg" width="32" height="32" viewBox="0 0 32 32"><defs><style>.a{opacity:0;}</style></defs><g transform="translate(-196 -114)"><rect class="a" width="32" height="32" transform="translate(196 114)"/><path d="M12835.156,127.57l-5.072-11.239a5.891,5.891,0,0,1,2.807-11.07h2.887a18.555,18.555,0,0,0,6.068-1.282,21.569,21.569,0,0,0,5.578-3.534,1.909,1.909,0,0,1,3.137,1.471v5.067a4.422,4.422,0,0,1,0,8.336v4.96a1.915,1.915,0,0,1-1.914,1.914,1.939,1.939,0,0,1-1.205-.424,20.469,20.469,0,0,0-5.436-3.448,18.668,18.668,0,0,0-3.455-.919,15.346,15.346,0,0,0,.965,4.556,3.942,3.942,0,0,0,1.992,2.211.779.779,0,0,1,.453.677.718.718,0,0,1-.441.677l-5.391,2.4a.855.855,0,0,1-.289.072A.768.768,0,0,1,12835.156,127.57Zm1.045-1.282,3.477-1.543a6.251,6.251,0,0,1-1.5-2.166,17.388,17.388,0,0,1-1.113-5.378c-.639-.067-1.3-.11-1.979-.129a.763.763,0,0,1-.191-.032h-2a5.982,5.982,0,0,1-.908-.069Zm12.164-24.71a23.132,23.132,0,0,1-5.979,3.787,19.552,19.552,0,0,1-6.547,1.368v8.882a21.782,21.782,0,0,1,6.682,1.327,22.423,22.423,0,0,1,5.844,3.678.426.426,0,0,0,.619-.059.452.452,0,0,0,.105-.28V101.917a.464.464,0,0,0-.473-.43A.379.379,0,0,0,12848.365,101.579Zm-19.895,9.572a4.431,4.431,0,0,0,4.42,4.418h1.471v-8.837h-1.471A4.434,4.434,0,0,0,12828.471,111.151Zm22.09,2.55a2.936,2.936,0,0,0,0-5.1Z" transform="translate(-12628.002 16.001)"/></g></svg>