<svg xmlns="http://www.w3.org/2000/svg" width="32" height="32" viewBox="0 0 32 32"><defs><style>.a{opacity:0;}</style></defs><g transform="translate(-238 -114)"><rect class="a" width="32" height="32" transform="translate(238 114)"/><path d="M26.182,20.533H1.818A1.807,1.807,0,0,1,0,18.728V1.805A1.807,1.807,0,0,1,1.818,0H26.182A1.826,1.826,0,0,1,28,1.827v16.9A1.807,1.807,0,0,1,26.182,20.533Zm0-18.12a.611.611,0,0,0-.614-.609H2.432a.611.611,0,0,0-.614.609V18.14a.61.61,0,0,0,.614.609H25.568a.61.61,0,0,0,.614-.609ZM15.994,17.1,12.049,6.873l-1.73,4.547H6.858v-1.7H9.707l2.343-6.244L15.994,13.7l1.665-3.98h3.463v1.7H18.842Z" transform="translate(240 120)"/></g></svg>