<svg xmlns="http://www.w3.org/2000/svg" width="32" height="32" viewBox="0 0 32 32"><defs><style>.a{opacity:0;}</style></defs><g transform="translate(-280 -114)"><rect class="a" width="32" height="32" transform="translate(280 114)"/><path d="M12827.934,123.646a.934.934,0,0,1,0-1.869h26.133a.934.934,0,0,1,0,1.869Zm19.283-3.426a1.552,1.552,0,0,1-1.551-1.553V107.779a1.553,1.553,0,0,1,1.551-1.557h3.115a1.554,1.554,0,0,1,1.555,1.557v10.888a1.553,1.553,0,0,1-1.555,1.553Zm0-1.553h3.115V107.779h-3.115Zm-7.775,1.553a1.552,1.552,0,0,1-1.553-1.553V101.554a1.552,1.552,0,0,1,1.553-1.553h3.113a1.553,1.553,0,0,1,1.555,1.553v17.113a1.553,1.553,0,0,1-1.555,1.553Zm0-1.553h3.113V101.554h-3.113Zm-7.773,1.553a1.554,1.554,0,0,1-1.559-1.553v-7.778a1.558,1.558,0,0,1,1.559-1.557h3.109a1.557,1.557,0,0,1,1.555,1.557v7.778a1.553,1.553,0,0,1-1.555,1.553Zm0-1.553h3.109v-7.778h-3.109Z" transform="translate(-12545 17.999)"/></g></svg>