<svg xmlns="http://www.w3.org/2000/svg" width="32" height="32" viewBox="0 0 32 32"><defs><style>.a{opacity:0;}</style></defs><g transform="translate(-322 -114)"><rect class="a" width="32" height="32" transform="translate(322 114)"/><path d="M12834.815,119.7a9.091,9.091,0,0,1,2.725-6.507,9.266,9.266,0,0,1,2.953-1.97q.22-.091.438-.171a6.26,6.26,0,0,1-.879-.723,6,6,0,0,1,0-8.554,6.146,6.146,0,0,1,8.641,0,6.009,6.009,0,0,1,0,8.554,6.158,6.158,0,0,1-.742.629,9.253,9.253,0,0,1,1.73.763.8.8,0,0,1,.3,1.094.822.822,0,0,1-.707.4.8.8,0,0,1-.4-.106,7.72,7.72,0,0,0-3.819-1.009.81.81,0,0,1-.181-.02c-.166.013-.332.02-.5.02-.063,0-.129,0-.191,0-.024,0-.048,0-.071,0a7.645,7.645,0,0,0-7.673,7.6.811.811,0,0,1-1.621,0Zm5.064-13.648a4.492,4.492,0,1,0,4.492-4.452A4.475,4.475,0,0,0,12839.88,106.051Zm13.232,13.07a.943.943,0,1,1,.94.936A.939.939,0,0,1,12853.112,119.12Zm-26.113-.962a6.215,6.215,0,0,1,1.861-4.443,6.378,6.378,0,0,1,1.863-1.282,4.2,4.2,0,0,1-1.472-3.191,4.274,4.274,0,1,1,4.273,4.23l-.123,0-.054,0a4.715,4.715,0,0,0-4.732,4.686.809.809,0,0,1-1.617,0Zm3.873-8.92a2.655,2.655,0,1,0,2.653-2.626A2.645,2.645,0,0,0,12830.872,109.238Zm21.5,7.1a.943.943,0,1,1,.946.936A.939.939,0,0,1,12852.371,116.341Zm-1.714-2.388a.944.944,0,1,1,.946.932A.943.943,0,0,1,12850.657,113.954Z" transform="translate(-12502.998 20.001)"/></g></svg>