<svg xmlns="http://www.w3.org/2000/svg" width="32" height="32" viewBox="0 0 32 32"><defs><style>.a{opacity:0;}</style></defs><g transform="translate(-364 -114)"><rect class="a" width="32" height="32" transform="translate(364 114)"/><path d="M12838.286,125.713c-.288,0-.5-.284-.575-.573l-.356-2.142a.7.7,0,0,0-.5-.573,7.368,7.368,0,0,1-1.354-.568.635.635,0,0,0-.359-.074,1.019,1.019,0,0,0-.428.144l-1.714,1.215a1.05,1.05,0,0,1-.429.14,1.014,1.014,0,0,1-.428-.14,12.951,12.951,0,0,1-2.431-2.431.75.75,0,0,1,0-.857l1.216-1.713a.55.55,0,0,0,.068-.717,11.789,11.789,0,0,1-.571-1.355.687.687,0,0,0-.567-.5l-2.147-.359c-.284,0-.5-.284-.567-.573a10.161,10.161,0,0,1,0-3.427c0-.284.283-.5.567-.573l2.147-.359a.687.687,0,0,0,.567-.5,8.173,8.173,0,0,1,.571-1.355.863.863,0,0,0-.068-.717l-1.216-1.713a.651.651,0,0,1,0-.857,13.092,13.092,0,0,1,2.431-2.431,1.015,1.015,0,0,1,.428-.14,1.05,1.05,0,0,1,.429.14l1.714,1.215a.958.958,0,0,0,.428.144.562.562,0,0,0,.359-.07,11.217,11.217,0,0,1,1.354-.573.693.693,0,0,0,.5-.573l.356-2.142c0-.284.287-.5.575-.573a10.573,10.573,0,0,1,3.426,0c.285,0,.5.289.571.573l.361,2.142a.681.681,0,0,0,.5.573,8.008,8.008,0,0,1,1.354.573.654.654,0,0,0,.357.07.986.986,0,0,0,.43-.144l1.712-1.215a1.055,1.055,0,0,1,.428-.14,1.006,1.006,0,0,1,.429.14,13.206,13.206,0,0,1,2.43,2.431.745.745,0,0,1,0,.857l-1.213,1.713a.554.554,0,0,0-.071.717,10.525,10.525,0,0,1,.568,1.355.7.7,0,0,0,.572.5l2.141.359c.29,0,.5.289.575.573a10.367,10.367,0,0,1,0,3.427c0,.289-.285.5-.575.573l-2.141.359a.7.7,0,0,0-.572.5,7.554,7.554,0,0,1-.568,1.355.819.819,0,0,0,.071.717l1.213,1.713a.651.651,0,0,1,0,.857,13.063,13.063,0,0,1-2.43,2.431,1,1,0,0,1-.429.14,1.055,1.055,0,0,1-.428-.14l-1.712-1.215a1.05,1.05,0,0,0-.43-.144.516.516,0,0,0-.357.074,10.591,10.591,0,0,1-1.354.568.687.687,0,0,0-.5.573l-.361,2.142c0,.289-.286.5-.571.573a10.236,10.236,0,0,1-3.426,0Zm-2.142-5.215a7.325,7.325,0,0,0,1.141.5,2.119,2.119,0,0,1,1.428,1.644l.286,1.574a4.807,4.807,0,0,0,1,.07c.359,0,.645-.07,1-.07l.285-1.574a2.108,2.108,0,0,1,1.429-1.644,5.359,5.359,0,0,0,1.142-.5,2.5,2.5,0,0,1,1-.214,1.858,1.858,0,0,1,1.215.359l1.286.927a8.3,8.3,0,0,0,1.354-1.355l-.927-1.285a2.244,2.244,0,0,1-.146-2.216,8.693,8.693,0,0,0,.5-1.141,2.106,2.106,0,0,1,1.64-1.429l1.574-.289a5.029,5.029,0,0,0,.066-1c0-.359-.066-.643-.066-1l-1.574-.284a2.089,2.089,0,0,1-1.64-1.429,5.828,5.828,0,0,0-.5-1.145,2.235,2.235,0,0,1,.146-2.212l.927-1.285a7.984,7.984,0,0,0-1.354-1.36l-1.286.931a2.411,2.411,0,0,1-1.215.354,2.272,2.272,0,0,1-1-.214,8.339,8.339,0,0,0-1.142-.5,2.112,2.112,0,0,1-1.429-1.644L12841,101.5a6.747,6.747,0,0,0-2,0l-.286,1.569a2.09,2.09,0,0,1-1.428,1.644,5.478,5.478,0,0,0-1.141.5,2.509,2.509,0,0,1-1,.214,1.882,1.882,0,0,1-1.215-.354l-1.284-.931a8.111,8.111,0,0,0-1.36,1.36l.932,1.285a2.233,2.233,0,0,1,.144,2.212,8.219,8.219,0,0,0-.5,1.145,2.118,2.118,0,0,1-1.644,1.429l-1.57.284a4.866,4.866,0,0,0-.069,1c0,.354.069.643.069,1l1.57.289a2.1,2.1,0,0,1,1.644,1.429,5.668,5.668,0,0,0,.5,1.141,2.241,2.241,0,0,1-.144,2.216l-.932,1.285a8.326,8.326,0,0,0,1.36,1.355l1.284-.927a2.419,2.419,0,0,1,1.215-.359A2.28,2.28,0,0,1,12836.145,120.5Zm-.43-7.641a4.284,4.284,0,1,1,4.283,4.284A4.3,4.3,0,0,1,12835.715,112.857Zm1.424,0A2.857,2.857,0,1,0,12840,110,2.866,2.866,0,0,0,12837.139,112.857Z" transform="translate(-12459.998 16.999)"/></g></svg>