<svg xmlns="http://www.w3.org/2000/svg" width="32" height="32" viewBox="0 0 32 32"><defs><style>.a{opacity:0;}</style></defs><g transform="translate(-280 -72)"><rect class="a" width="32" height="32" transform="translate(280 72)"/><path d="M12849.873,123.04l-2.479-1.88c-.525-.4-.4-.915,0-1.44s1.334-.115,1.858.283l.624.78v-.607a2.229,2.229,0,0,1,.952-1.449c1.605-2.04,2.491-3.135,2.426-4.588a4.532,4.532,0,0,0-.887-3.008c-.381-.5-.833-.8-.333-1.539s1.449-.107,1.945.607a6.68,6.68,0,0,1,1.018,4.325,7.685,7.685,0,0,1-3.212,5.651v1.945a1.194,1.194,0,0,1-1.194,1.165A1.171,1.171,0,0,1,12849.873,123.04Zm-16.887.078a1.2,1.2,0,0,1-.587-1.046l.041-2.351a10.521,10.521,0,0,1-5.442-9c0-5.914,5.348-10.723,11.917-10.723s11.914,4.81,11.914,10.723-5.347,10.719-11.914,10.719a12.433,12.433,0,0,1-1.628-.107l-3.1,1.789a1.2,1.2,0,0,1-.594.16A1.177,1.177,0,0,1,12832.986,123.118Zm-4.252-12.393a9.824,9.824,0,0,0,5.184,8,1.194,1.194,0,0,1,.652,1.083l-.017.973,1.634-.944a1.2,1.2,0,0,1,.779-.144,10.723,10.723,0,0,0,1.683.14c5.257,0,10.444-3.833,10.444-9.11s-4.462-8.987-10.179-8.987S12828.734,106.124,12828.734,110.724Zm14.015,0a1.192,1.192,0,1,1,1.194,1.19A1.193,1.193,0,0,1,12842.749,110.724Zm-5.175,0a1.192,1.192,0,1,1,1.194,1.19A1.193,1.193,0,0,1,12837.574,110.724Zm-5.175,0a1.192,1.192,0,1,1,1.194,1.19A1.193,1.193,0,0,1,12832.4,110.724Z" transform="translate(-12544.998 -24.001)"/></g></svg>