<svg xmlns="http://www.w3.org/2000/svg" width="32" height="32" viewBox="0 0 32 32"><defs><style>.a{opacity:0;}.b{fill:#303133;}</style></defs><g transform="translate(-322 -72)"><rect class="a" width="32" height="32" transform="translate(322 72)"/><path class="b" d="M12842.86,120.054h-5.725a3.7,3.7,0,0,1-7.191,0h-2.172a.771.771,0,0,1,0-1.542h2.084a3.7,3.7,0,0,1,7.191,0h5.729a3.7,3.7,0,0,1,7.193,0h1.4V113.68h-8.531a.758.758,0,0,1-.768-.767V101.539h-10.687a.769.769,0,0,1,0-1.538h11.539a.758.758,0,0,1,.77.767v2.85h2.934a.7.7,0,0,1,.574.2l5.707,8.038v.025a.241.241,0,0,0,.035.092.382.382,0,0,1,.055.168v7.145a.769.769,0,0,1-.771.771h-2.174a3.7,3.7,0,0,1-7.193,0Zm1.525-.683a2.072,2.072,0,1,0,2.07-2.074A2.049,2.049,0,0,0,12844.386,119.371Zm-12.916,0a2.07,2.07,0,1,0,2.07-2.074A2.049,2.049,0,0,0,12831.47,119.371Zm12.225-7.229h7.516l-4.967-6.986h-2.549Zm-15.926,1.626a.837.837,0,0,1-.77-.855.718.718,0,0,1,.662-.7.68.68,0,0,1,.129.017h10.055a.769.769,0,1,1,0,1.538Zm0-4.308a.837.837,0,0,1-.77-.855.718.718,0,0,1,.666-.7.618.618,0,0,1,.125.013h10.055a.769.769,0,1,1,0,1.538Zm1.463-4.3a.779.779,0,0,1-.766-.855.666.666,0,0,1,.637-.7.947.947,0,0,1,.146.017h10.057a.769.769,0,1,1,0,1.538Z" transform="translate(-12501.998 -23.001)"/></g></svg>