<svg xmlns="http://www.w3.org/2000/svg" width="32" height="32" viewBox="0 0 32 32"><defs><style>.a{opacity:0;}.b{fill:#303133;}</style></defs><g transform="translate(-364 -72)"><rect class="a" width="32" height="32" transform="translate(364 72)"/><path class="b" d="M56.256,63.015c-.116-6.2-4.922-11.207-10.823-11.207h-.867c-5.9,0-10.707,5.008-10.823,11.206A3.457,3.457,0,0,0,32,66v1.733a3.467,3.467,0,0,0,6.933,0V66A3.468,3.468,0,0,0,35.5,62.542a9.369,9.369,0,0,1,9.067-9h.867a9.368,9.368,0,0,1,9.067,9A3.468,3.468,0,0,0,51.067,66v1.733a3.459,3.459,0,0,0,2.475,3.3,9.141,9.141,0,0,1-5.2,3.371,2.164,2.164,0,1,0-.205,1.825A10.9,10.9,0,0,0,55.674,71,3.458,3.458,0,0,0,58,67.738V66a3.455,3.455,0,0,0-1.744-2.99ZM37.2,66v1.733a1.733,1.733,0,1,1-3.467,0V66A1.733,1.733,0,1,1,37.2,66Zm19.067,1.733a1.732,1.732,0,0,1-1.655,1.726l-.068-.032c-.006.014-.016.025-.022.038A1.733,1.733,0,0,1,52.8,67.738V66a1.733,1.733,0,0,1,3.467,0Z" transform="translate(335 23.192)"/></g></svg>