<svg xmlns="http://www.w3.org/2000/svg" width="32" height="32" viewBox="0 0 32 32"><defs><style>.a{opacity:0;}.b{fill:#231815;}</style></defs><g transform="translate(-184 -238)"><rect class="a" width="32" height="32" transform="translate(184 238)"/><path class="b" d="M182.58,196.987v-2.241a5.6,5.6,0,0,0,0-10.974v-2.24a7.8,7.8,0,0,1,0,15.455Zm-5.6-21.166L166.9,182.539h-3.36a2.241,2.241,0,0,0-2.241,2.241v8.957a2.241,2.241,0,0,0,2.241,2.241h3.36l10.079,6.719a2.241,2.241,0,0,0,2.241-2.241V178.062A2.241,2.241,0,0,0,176.978,175.821Zm-10.079,16.8a1.118,1.118,0,0,1-1.119,1.119h-1.122a1.119,1.119,0,0,1-1.119-1.119V185.9a1.119,1.119,0,0,1,1.119-1.119h1.122A1.118,1.118,0,0,1,166.9,185.9Zm10.079,7.838-7.838-4.9v-12.6l7.838-4.9v22.395Z" transform="translate(24.701 65.179)"/></g></svg>