<svg xmlns="http://www.w3.org/2000/svg" width="32" height="32" viewBox="0 0 32 32"><defs><style>.a{opacity:0;}.b{fill:#231815;}</style></defs><g transform="translate(-236 -238)"><rect class="a" width="32" height="32" transform="translate(236 238)"/><path class="b" d="M12832.6,120.159h-3.361a2.241,2.241,0,0,1-2.239-2.242v-8.956a2.239,2.239,0,0,1,2.239-2.242h3.361l10.078-6.72a2.243,2.243,0,0,1,2.242,2.242v22.4a2.24,2.24,0,0,1-2.242,2.239Zm2.239-13.021v12.6l7.839,4.9v-22.4Zm-5.6,2.942V116.8a1.118,1.118,0,0,0,1.119,1.119h1.123a1.118,1.118,0,0,0,1.119-1.119V110.08a1.118,1.118,0,0,0-1.119-1.119h-1.123A1.118,1.118,0,0,0,12829.24,110.08Zm23.773,7.411-2.539-2.536-2.532,2.536a1.1,1.1,0,0,1-1.559-1.552l2.539-2.539-2.62-2.536a1.1,1.1,0,0,1,1.559-1.555l2.536,2.536,2.532-2.536a1.1,1.1,0,1,1,1.559,1.555l-2.455,2.536,2.535,2.539a1.126,1.126,0,0,1,0,1.552,1.13,1.13,0,0,1-1.555,0Z" transform="translate(-12589 141.001)"/></g></svg>