<svg xmlns="http://www.w3.org/2000/svg" width="32" height="32" viewBox="0 0 32 32"><defs><style>.a{opacity:0;}.b{fill:#303133;}</style></defs><g transform="translate(-288 -238)"><rect class="a" width="32" height="32" transform="translate(288 238)"/><path class="b" d="M218.773,234.133h2.56v3.2h-8v-8h3.2v2.56l4.8-4.8,2.24,2.24-4.8,4.8Zm12.96,0-4.8-4.8,2.24-2.24,4.96,4.96v-2.72h3.2v8h-8v-3.2Zm-12.96-17.6,4.8,4.8-2.24,2.24-4.8-4.8v2.56h-3.2v-8h8v3.2h-2.56Zm12.96,0h-2.4v-3.2h8v8h-3.2v-2.72l-4.96,4.96-2.24-2.24,4.8-4.8Z" transform="translate(78.667 28.667)"/></g></svg>