<svg xmlns="http://www.w3.org/2000/svg" width="32" height="32" viewBox="0 0 32 32"><defs><style>.a{opacity:0;}</style></defs><g transform="translate(-444 -238)"><rect class="a" width="32" height="32" transform="translate(444 238)"/><path d="M12834.454,127.039a12.2,12.2,0,0,1,4.751-23.449c.225,0,.447.005.668.017l-2.428-2.429a.691.691,0,0,1,.977-.977l3.68,3.682a.689.689,0,0,1,0,.975l-3.68,3.682a.7.7,0,0,1-.49.2.691.691,0,0,1-.486-1.179l2.71-2.712c-.321-.028-.637-.042-.95-.042a10.984,10.984,0,1,0,10.983,10.985,10.779,10.779,0,0,0-1.791-6.008.669.669,0,0,1,.365-.568.967.967,0,0,1,.769.065,12.268,12.268,0,0,1,.918,1.759,12.21,12.21,0,0,1-16,16Zm5.642-7.653a5.121,5.121,0,0,1-.771-3.168,7.073,7.073,0,0,1,.285-2.225,2.766,2.766,0,0,1,.844-1.3,2.16,2.16,0,0,1,1.412-.457,2.317,2.317,0,0,1,1.1.251,2.114,2.114,0,0,1,.779.729,3.887,3.887,0,0,1,.484,1.159,7.678,7.678,0,0,1,.177,1.843,7.138,7.138,0,0,1-.282,2.215,2.774,2.774,0,0,1-.844,1.3,2.158,2.158,0,0,1-1.416.461A2.134,2.134,0,0,1,12840.1,119.387Zm.706-5.8a4.937,4.937,0,0,0-.494,2.632,4.884,4.884,0,0,0,.449,2.555,1.282,1.282,0,0,0,2.216,0,7.459,7.459,0,0,0,0-5.11,1.328,1.328,0,0,0-1.119-.632A1.227,1.227,0,0,0,12840.8,113.587Zm-4.886,6.475v-6.1a5,5,0,0,1-.907.66,6.463,6.463,0,0,1-1.007.494v-.925a5.876,5.876,0,0,0,1.4-.915,3.612,3.612,0,0,0,.851-1.042h.616v7.825Zm6.129-11.521a.691.691,0,0,1,0-.977l3.2-3.193-3.2-3.193a.691.691,0,0,1,.977-.977l3.682,3.682a.687.687,0,0,1,0,.975l-3.682,3.682a.689.689,0,0,1-.977,0Z" transform="translate(-12379 140.001)"/></g></svg>