<svg xmlns="http://www.w3.org/2000/svg" width="32" height="32" viewBox="0 0 32 32"><defs><style>.a{opacity:0;}.b{fill:#303133;}</style></defs><g transform="translate(-28 -156)"><rect class="a" width="32" height="32" transform="translate(28 156)"/><path class="b" d="M105.158,129.416a.975.975,0,0,1,0,1.95H91.508a.975.975,0,0,1,0-1.95Zm3.25-22.75a2.925,2.925,0,0,1,2.925,2.925v14.3a2.925,2.925,0,0,1-2.925,2.925H88.258a2.925,2.925,0,0,1-2.925-2.925v-14.3a2.925,2.925,0,0,1,2.925-2.925Zm-2.561,7.433a.978.978,0,0,0-1.379,0l-3.875,3.866L96.741,114.1l-.074-.067a.978.978,0,0,0-1.308.065l-4.54,4.53-.067.074a.969.969,0,0,0,.068,1.3l.075.066A.978.978,0,0,0,92.2,120l3.847-3.84,3.853,3.865.073.067a.978.978,0,0,0,1.309-.065l4.567-4.558.067-.074a.969.969,0,0,0-.068-1.3Z" transform="translate(-54.333 53.334)"/></g></svg>