<svg xmlns="http://www.w3.org/2000/svg" width="32" height="32" viewBox="0 0 32 32"><defs><style>.a{opacity:0;}.b{fill:#303133;}</style></defs><g transform="translate(-70 -156)"><rect class="a" width="32" height="32" transform="translate(70 156)"/><path class="b" d="M124.34,127.987a1.119,1.119,0,0,1,1.5,1.66l-1.7,1.7h4.557a3.972,3.972,0,0,1,3.969,3.813l0,.159v13a3.972,3.972,0,0,1-3.972,3.972H110.639a3.972,3.972,0,0,1-3.972-3.972v-13a3.972,3.972,0,0,1,3.972-3.972h3.834l-1.7-1.7a1.119,1.119,0,0,1,1.5-1.661l.085.077,3.283,3.283h3.333l3.283-3.283Zm-7.565,10.222v7.219a1.083,1.083,0,0,0,1.713.881l5.056-3.61a1.083,1.083,0,0,0,0-1.762l-5.056-3.61A1.083,1.083,0,0,0,116.776,138.209Z" transform="translate(-33.667 32.274)"/></g></svg>