<svg xmlns="http://www.w3.org/2000/svg" width="32" height="32" viewBox="0 0 32 32"><defs><style>.a{opacity:0;}.b{fill:#303133;}</style></defs><g transform="translate(-112 -156)"><rect class="a" width="32" height="32" transform="translate(112 156)"/><path class="b" d="M64.933,178.713a3.792,3.792,0,0,0-3.8-3.78H46.471a3.792,3.792,0,0,0-3.8,3.78v12.711a3.792,3.792,0,0,0,3.8,3.781H61.129a3.792,3.792,0,0,0,3.8-3.78.423.423,0,0,1,.544-.405l3.211.957a1.54,1.54,0,0,0,1.98-1.475V179.577a1.54,1.54,0,0,0-1.98-1.475l-3.268.974a.378.378,0,0,1-.486-.362ZM50.75,188.43v-6.594a1.54,1.54,0,0,1,2.364-1.3l5.206,3.3a1.54,1.54,0,0,1,0,2.6l-5.206,3.3a1.54,1.54,0,0,1-2.364-1.3Z" transform="translate(71.333 -12.933)"/></g></svg>