<svg xmlns="http://www.w3.org/2000/svg" width="32" height="32" viewBox="0 0 32 32"><defs><style>.a{opacity:0;}.b{fill:#303133;}</style></defs><g transform="translate(-154 -156)"><rect class="a" width="32" height="32" transform="translate(154 156)"/><path class="b" d="M-1360.188-775.188c-.172-.131-4.228-3.235-5.839-5.73a6.088,6.088,0,0,1-1.245-3.45,4.478,4.478,0,0,1,4.3-4.632,4.189,4.189,0,0,1,3.34,1.722A4.188,4.188,0,0,1-1356.3-789a4.478,4.478,0,0,1,4.3,4.632,6.092,6.092,0,0,1-1.246,3.45c-1.612,2.495-5.667,5.6-5.839,5.73a.909.909,0,0,1-.552.189A.908.908,0,0,1-1360.188-775.188Zm-8.679-3.109c-.27-.2-6.63-5.062-9.176-9a9.571,9.571,0,0,1-1.956-5.422,7.037,7.037,0,0,1,6.75-7.278,6.549,6.549,0,0,1,5.249,2.706,6.554,6.554,0,0,1,5.249-2.706,7.037,7.037,0,0,1,6.75,7.278,7.564,7.564,0,0,1-.344,2.273,5.149,5.149,0,0,0-3.292,2.032,5.066,5.066,0,0,0-4.061-2.094,5.445,5.445,0,0,0-5.224,5.631,7.4,7.4,0,0,0,1.514,4.2,14.439,14.439,0,0,0,1.246,1.621c-.6.482-.969.763-.974.766a1.415,1.415,0,0,1-.867.3A1.42,1.42,0,0,1-1368.867-778.3Z" transform="translate(1536 959)"/></g></svg>