<svg xmlns="http://www.w3.org/2000/svg" width="32" height="32" viewBox="0 0 32 32"><defs><style>.a{opacity:0;}.b{fill:#303133;}</style></defs><g transform="translate(-196 -156)"><rect class="a" width="32" height="32" transform="translate(196 156)"/><path class="b" d="M12839.783,128.519a20.034,20.034,0,0,1-6.729-3.9c-1.508-1.349-3.393-2.924-4.316-4.684a15.05,15.05,0,0,1-1.736-5.606l-.006-12.487.543-.165a47.057,47.057,0,0,1,24.916,0l.541.165,0,12.483a15.023,15.023,0,0,1-1.754,5.636c-.93,1.756-2.811,3.327-4.312,4.672a20.1,20.1,0,0,1-6.719,3.884l-.213.077Zm1.133-10.493a.872.872,0,0,0,.227.672.95.95,0,0,0,.646.2.782.782,0,0,0,.609-.2,1.022,1.022,0,0,0,.178-.672v-3.735a11.018,11.018,0,0,0,1.152,1.5,15.51,15.51,0,0,0,1.617,1.506,2.373,2.373,0,0,0,.861.5.615.615,0,0,0,.682-.3,1.877,1.877,0,0,0,.215-.407.616.616,0,0,0,.014-.38,1.092,1.092,0,0,0-.244-.415,3.615,3.615,0,0,0-.551-.488,13.218,13.218,0,0,1-1.256-1.076,14.827,14.827,0,0,1-1.449-1.591h2.648a.827.827,0,0,0,.646-.215.928.928,0,0,0,.184-.615.968.968,0,0,0-.178-.638.832.832,0,0,0-.652-.207h-3.689v-1.083h1.777a1.333,1.333,0,0,0,1.111-.384,1.947,1.947,0,0,0,.295-1.187v-2.09a1.821,1.821,0,0,0-.318-1.206,1.382,1.382,0,0,0-1.088-.361h-5.008a1.412,1.412,0,0,0-1.135.377,1.79,1.79,0,0,0-.318,1.18v2.1a1.828,1.828,0,0,0,.318,1.187,1.4,1.4,0,0,0,1.135.384h1.57v1.083h-3.082a.9.9,0,0,0-.689.207.936.936,0,0,0-.186.638.872.872,0,0,0,.2.615.888.888,0,0,0,.676.215h2.4c-.221.3-.451.58-.7.857s-.494.534-.742.772-.482.45-.707.638-.43.342-.594.461a2.872,2.872,0,0,0-.535.457,1.031,1.031,0,0,0-.229.4.621.621,0,0,0,.006.373,1.665,1.665,0,0,0,.178.369.651.651,0,0,0,.668.311,2.528,2.528,0,0,0,1.064-.561c.535-.446.975-.841,1.33-1.187a7.9,7.9,0,0,0,.939-1.126Zm-6.285-.088a1.109,1.109,0,0,0,.176.7.805.805,0,0,0,.656.223c.488,0,.74-.307.74-.918v-9c.168-.423.32-.868.467-1.333s.289-.98.438-1.541a1.964,1.964,0,0,0,.07-1.022.633.633,0,0,0-.592-.43.741.741,0,0,0-.725.215,2.206,2.206,0,0,0-.328.865,19.918,19.918,0,0,1-.863,2.759,12.483,12.483,0,0,1-1.387,2.536,1.943,1.943,0,0,0-.432.991.768.768,0,0,0,.387.638.793.793,0,0,0,.654.2c.236-.035.479-.238.738-.615Zm5.514-9.248a.548.548,0,0,1-.412-.127.68.68,0,0,1-.121-.469v-.815a.5.5,0,0,1,.084-.35.567.567,0,0,1,.375-.081h3.516c.193,0,.32.038.375.111a.775.775,0,0,1,.084.438v.68a.809.809,0,0,1-.1.476.414.414,0,0,1-.357.134Z" transform="translate(-12627.996 58.001)"/></g></svg>