<svg xmlns="http://www.w3.org/2000/svg" width="32" height="32" viewBox="0 0 32 32">
  <g id="组_7111" data-name="组 7111" transform="translate(-288 -238)">
    <rect id="矩形_4733" data-name="矩形 4733" width="32" height="32" transform="translate(288 238)" opacity="0"/>
    <path id="_24gf-folderOpen" data-name="24gf-folderOpen" d="M2.321,94.677,0,103.186V86.859a1.527,1.527,0,0,1,1.525-1.525H8.772a1.515,1.515,0,0,1,1.078.447L12.974,88.9a.3.3,0,0,0,.216.089H24.1a1.527,1.527,0,0,1,1.525,1.525v2.135H4.969a2.751,2.751,0,0,0-2.648,2.023Zm26.365-.2a1.514,1.514,0,0,0-1.212-.6H4.969A1.529,1.529,0,0,0,3.5,95L.337,106.59a1.525,1.525,0,0,0,1.471,1.925h22.5a1.529,1.529,0,0,0,1.471-1.125L28.945,95.8a1.514,1.514,0,0,0-.259-1.326Z" transform="translate(290 156.666)"/>
  </g>
</svg>
