<svg xmlns="http://www.w3.org/2000/svg" width="32" height="32" viewBox="0 0 32 32">
  <g id="组_7115" data-name="组 7115" transform="translate(-340 -238)">
    <rect id="矩形_4733" data-name="矩形 4733" width="32" height="32" transform="translate(340 238)" opacity="0"/>
    <path id="未转文文件" d="M217.225,136.724,205.85,136.7a3.248,3.248,0,0,0-3.25,3.25v19.5a3.248,3.248,0,0,0,3.25,3.25h14.625a3.248,3.248,0,0,0,3.25-3.25V143.2Zm.815,19.477h-9.752a.812.812,0,0,1,0-1.623h9.749a.812.812,0,0,1,0,1.623Zm0-4.873h-9.752a.812.812,0,0,1,0-1.623h9.749a.812.812,0,0,1,0,1.623Zm.812-8.126a1.627,1.627,0,0,1-1.627-1.627v-3.25L222.1,143.2Z" transform="translate(142.4 104.3)"/>
  </g>
</svg>
