<!-- Generated by IcoMoon.io -->
<svg version="1.1" xmlns="http://www.w3.org/2000/svg" width="32" height="32" viewBox="0 0 32 32">
<title>app</title>
<path d="M4.037 24.019c-1.211 2.672-2.992 5.484-0.21 6.715 2.932 1.3 3.783-2.392 5.354-6-1.885-0.106-3.646-0.361-5.354-0.756l0.21 0.041zM27.373 23.409c-2.422 1.111-4.113 1.191-5.554-0.23 2 4.563 3 8.826 6 7.525s0.53-5.043-0.45-7.275zM26.112 15.664c-0.921-0.4-1.271-0.61-2.212-0.14l-5.773-13.11c-0.38-0.84-1.211-1.414-2.176-1.414-0.041 0-0.081 0.001-0.121 0.003h0.006c-0.026-0.001-0.057-0.002-0.088-0.002-0.966 0-1.801 0.561-2.197 1.374l-0.006 0.014-6.374 14.52c-17.722 5.1 7.665 8.806 14.67 3.412 2.842 4.283 9.657-2.832 9.006-5.384-0.092-0.305-0.371-0.524-0.7-0.524-0.079 0-0.155 0.012-0.226 0.036l0.005-0.001s-2.7 1.681-3.813 1.231zM13.103 15.734l2.732-6.094 2.872 6.5c-1.014-0.402-2.188-0.636-3.417-0.636-0.761 0-1.502 0.090-2.212 0.259l0.065-0.013z"></path>
</svg>
