<!-- Generated by IcoMoon.io -->
<svg version="1.1" xmlns="http://www.w3.org/2000/svg" width="32" height="32" viewBox="0 0 32 32">
<title>dasktop</title>
<path d="M27.051 3.973c0 0.538 0.436 0.974 0.974 0.974s0.974-0.436 0.974-0.974c0-0.538-0.436-0.974-0.974-0.974v0c-0.538 0-0.974 0.436-0.974 0.974v0zM14.367 16.735h-8.912c-1.355 0.002-2.453 1.099-2.455 2.454v8.91c0 0.497 0.403 0.9 0.9 0.9v0h8.911c1.356-0.002 2.454-1.1 2.455-2.456v-8.908c-0.001-0.495-0.402-0.897-0.898-0.898v0zM13.317 26.418c-0.001 0.349-0.283 0.631-0.632 0.632h-7.737v-7.734c0 0 0 0 0 0 0-0.349 0.282-0.632 0.631-0.633h7.737zM12.817 2.998h-8.916c-0.497 0-0.9 0.403-0.9 0.9v0 8.908c0.001 1.356 1.099 2.455 2.455 2.457h8.911c0.497 0 0.9-0.403 0.9-0.9v0-8.908c-0.001-1.356-1.099-2.454-2.455-2.455v0zM13.322 13.314h-7.738c-0.349-0.001-0.631-0.284-0.631-0.633 0 0 0 0 0 0v0-7.735h7.738c0.349 0.002 0.63 0.285 0.631 0.634v7.734zM26.542 16.734h-8.918c-0.497 0-0.9 0.403-0.9 0.9v0 8.908c0.002 1.356 1.1 2.454 2.456 2.456h8.909c0.497 0 0.9-0.403 0.9-0.9v0-8.91c-0.003-1.353-1.099-2.449-2.452-2.451v0zM27.091 27.091h-7.814c0 0 0 0 0 0-0.353 0-0.638-0.286-0.639-0.638v-7.812h7.813c0.353 0.001 0.639 0.286 0.641 0.639v0zM29.005 7.614c0-0.041-0.003-0.082-0.007-0.122v0.005c-0.060-0.486-0.47-0.858-0.967-0.858-0.538 0-0.974 0.436-0.974 0.974 0 0.002 0 0.004 0 0.006v0c0 0.020 0 0.039 0 0.058h-0.009v5.009c-0.002 0.349-0.285 0.63-0.634 0.631h-7.74v-7.736c0.001-0.349 0.284-0.631 0.633-0.631 0 0 0 0 0 0h5.008c0.535-0.003 0.968-0.438 0.968-0.974 0-0.538-0.436-0.974-0.974-0.974-0.002 0-0.004 0-0.006 0h-5.121c-1.355 0.001-2.454 1.099-2.457 2.454v8.91c0 0.497 0.403 0.9 0.9 0.9v0h8.91c1.355 0 2.454-1.098 2.455-2.453v-5.077c0.005-0.035 0.009-0.076 0.010-0.118v-0.001z"></path>
</svg>
