<!-- Generated by IcoMoon.io -->
<svg version="1.1" xmlns="http://www.w3.org/2000/svg" width="32" height="32" viewBox="0 0 32 32">
<title>file_pdf</title>
<path d="M25.273 18.118c-0.581-0.377-1.292-0.601-2.054-0.601-0.143 0-0.285 0.008-0.424 0.023l0.017-0.002c-1.044 0-2.069 0.079-3.070 0.231l0.113-0.014c-0.52-0.284-0.969-0.599-1.379-0.958l0.009 0.007c-1.083-1.048-1.93-2.335-2.455-3.775l-0.022-0.070c0.036-0.14 0.066-0.263 0.095-0.389 0.269-1.349 0.427-2.903 0.436-4.492v-0.008c-0.013-0.12-0.041-0.229-0.080-0.332l0.003 0.009-0.052-0.132c-0.136-0.422-0.516-0.725-0.97-0.744l-0.302-0.010c-0.028-0.003-0.061-0.004-0.095-0.004-0.465 0-0.863 0.289-1.024 0.697l-0.003 0.007c-0.36 1.325 0.011 3.306 0.683 5.872l-0.172 0.418c-0.481 1.172-1.083 2.353-1.615 3.395l-0.069 0.136c-0.559 1.095-1.068 2.024-1.527 2.811l-0.475 0.251c-0.035 0.018-0.849 0.449-1.039 0.564-1.621 0.968-2.694 2.066-2.872 2.937-0.020 0.063-0.031 0.135-0.031 0.21 0 0.243 0.12 0.457 0.303 0.588l0.002 0.002 0.459 0.231c0.182 0.095 0.397 0.15 0.625 0.151v0c1.154 0 2.494-1.438 4.339-4.659 1.871-0.634 4.123-1.187 6.437-1.556l0.246-0.032c1.399 0.838 3.057 1.395 4.831 1.549l0.043 0.003c0.012 0 0.027 0 0.042 0 0.188 0 0.371-0.023 0.546-0.067l-0.015 0.003c0.237-0.059 0.434-0.198 0.567-0.386l0.002-0.003c0.166-0.291 0.264-0.639 0.264-1.009 0-0.135-0.013-0.267-0.038-0.395l0.002 0.013c-0.045-0.188-0.142-0.35-0.275-0.472l-0.001-0.001zM8.037 24.259c0.565-1.087 1.331-1.996 2.256-2.708l0.019-0.014c0.077-0.063 0.268-0.241 0.443-0.408-1.288 2.055-2.151 2.876-2.718 3.13zM15.332 7.459c0.371 0 0.582 0.935 0.6 1.811 0.003 0.054 0.004 0.118 0.004 0.182 0 0.647-0.165 1.255-0.456 1.784l0.010-0.019c-0.198-0.724-0.312-1.556-0.312-2.414 0-0.006 0-0.012 0-0.018v0.001s-0.016-1.327 0.155-1.327zM13.156 19.432c0.258-0.463 0.528-0.95 0.8-1.467 0.456-0.829 0.929-1.84 1.342-2.883l0.066-0.19c0.614 1.126 1.391 2.081 2.311 2.874l0.013 0.011q0.172 0.146 0.363 0.291c-1.882 0.358-3.525 0.829-5.104 1.431l0.204-0.068zM24.915 19.327c-0.179 0.071-0.387 0.113-0.604 0.113-0.015 0-0.031 0-0.046-0.001h0.002c-0.997-0.112-1.905-0.399-2.724-0.832l0.041 0.020c0.451-0.033 0.863-0.050 1.233-0.050 0.080-0.005 0.174-0.008 0.268-0.008 0.453 0 0.891 0.063 1.306 0.182l-0.034-0.008c0.662 0.169 0.671 0.512 0.557 0.584v0z"></path>
<path d="M27.346 8.264c-0.76-1.004-1.541-1.893-2.381-2.724l-0.002-0.002c-0.832-0.843-1.722-1.624-2.665-2.339l-0.061-0.045c-0.66-0.621-1.516-1.039-2.466-1.152l-0.021-0.002h-13.562c-1.208 0.001-2.187 0.98-2.188 2.188v23.625c0.002 1.207 0.98 2.186 2.188 2.187h20.125c1.207-0.002 2.185-0.98 2.187-2.187v-17.063c-0.115-0.97-0.533-1.827-1.156-2.488l0.002 0.002zM23.725 6.775c0.693 0.686 1.343 1.412 1.947 2.175l0.038 0.050h-4.21v-4.21c0.814 0.642 1.539 1.291 2.223 1.982l0.002 0.002zM26.75 27.813c-0.003 0.24-0.197 0.435-0.437 0.438h-20.125c-0.24-0.003-0.434-0.197-0.437-0.437v-23.626c0.003-0.24 0.197-0.434 0.437-0.437h13.562v6.124c0 0.483 0.392 0.875 0.875 0.875v0h6.125z"></path>
</svg>
