<!-- Generated by IcoMoon.io -->
<svg version="1.1" xmlns="http://www.w3.org/2000/svg" width="32" height="32" viewBox="0 0 32 32">
<title>file_more</title>
<path d="M27.346 11.764c-0.76-1.004-1.541-1.894-2.381-2.725l-0.002-0.002c-0.832-0.843-1.722-1.624-2.665-2.339l-0.061-0.045c-0.66-0.62-1.516-1.038-2.466-1.151l-0.021-0.002h-10.062c-1.208 0.001-2.187 0.98-2.188 2.188v20.125c0.002 1.207 0.98 2.186 2.188 2.187h16.625c1.207-0.002 2.185-0.98 2.187-2.187v-13.563c-0.115-0.97-0.533-1.827-1.156-2.488l0.002 0.002zM23.725 10.275c0.693 0.686 1.343 1.412 1.947 2.175l0.038 0.050h-4.21v-4.21c0.814 0.642 1.539 1.291 2.223 1.982l0.002 0.002zM26.75 27.813c-0.003 0.24-0.197 0.435-0.437 0.438h-16.625c-0.24-0.003-0.434-0.197-0.437-0.437v-20.126c0.003-0.24 0.198-0.434 0.438-0.437h10.061v6.125c0 0.483 0.392 0.875 0.875 0.875v0h6.125z"></path>
<path d="M18.736 3.154c-0.659-0.621-1.516-1.039-2.465-1.152l-0.021-0.002h-10.062c-1.208 0.001-2.187 0.98-2.188 2.188v20.125c0.001 1.053 0.745 1.932 1.736 2.141l0.014 0.003v-22.269c0.003-0.24 0.198-0.434 0.438-0.437h13.312c-0.263-0.217-0.521-0.417-0.764-0.6z"></path>
</svg>
