<!-- Generated by IcoMoon.io -->
<svg version="1.1" xmlns="http://www.w3.org/2000/svg" width="32" height="32" viewBox="0 0 32 32">
<title>home</title>
<path d="M29.719 15.299l-13.032-13.018c-0.174-0.174-0.415-0.281-0.68-0.281s-0.506 0.107-0.681 0.281v0l-13.043 13.018c-0.175 0.174-0.283 0.415-0.283 0.681 0 0.53 0.43 0.96 0.96 0.96 0 0 0.001 0 0.001 0h2.092v11.059c0 1.105 0.895 2 2 2v0h4.944v-4c0-1.105 0.895-2 2-2v0h4.010c1.105 0 2 0.895 2 2v0 4h4.9c1.105 0 2-0.895 2-2v0-11.057h2.123c0.531-0.002 0.96-0.432 0.96-0.963 0-0.265-0.107-0.505-0.28-0.679v0z"></path>
</svg>
