<!-- Generated by IcoMoon.io -->
<svg version="1.1" xmlns="http://www.w3.org/2000/svg" width="32" height="32" viewBox="0 0 32 32">
<title>menu</title>
<path d="M13.826 4h-8.618c-0.667 0-1.208 0.541-1.208 1.208v0 8.618c0 0.667 0.541 1.208 1.208 1.208v0h8.618c0.667 0 1.208-0.541 1.208-1.208v0-8.618c0-0.667-0.541-1.208-1.208-1.208v0zM26.787 4h-8.614c-0.667 0-1.208 0.541-1.208 1.208v0 8.618c0 0.667 0.541 1.208 1.208 1.208v0h8.618c0.667 0 1.208-0.541 1.208-1.208v0-8.618c-0.003-0.667-0.544-1.207-1.211-1.208v0zM13.826 16.965h-8.618c-0.667 0-1.208 0.541-1.208 1.208v0 8.618c0 0.667 0.541 1.208 1.208 1.208v0h8.618c0.667 0 1.208-0.541 1.208-1.208v0-8.618c0-0.667-0.541-1.208-1.208-1.208v0zM26.787 16.965h-8.614c-0.667 0-1.208 0.541-1.208 1.208v0 8.618c0 0.667 0.541 1.208 1.208 1.208v0h8.618c0.667 0 1.208-0.541 1.208-1.208v0-8.618c-0.003-0.667-0.544-1.206-1.211-1.208v0z"></path>
</svg>
