<!-- Generated by IcoMoon.io -->
<svg version="1.1" xmlns="http://www.w3.org/2000/svg" width="32" height="32" viewBox="0 0 32 32">
<title>passwd</title>
<path d="M30.117 24.613l-1.912-2.025-0.337-2.070-1.826-0.419-0.3-1.833-1.826-0.416-0.317-1.87-1.963-0.347-2.594-2.748c1.129-1.816 1.658-3.719 1.533-5.532v-0.004c-0.059-0.826-0.25-1.614-0.568-2.345-0.32-0.734-0.769-1.412-1.336-2.015l-0.004-0.004c-0.688-0.727-1.538-1.265-2.528-1.599-0.758-0.255-1.584-0.385-2.457-0.385-0.204 0-0.412 0.007-0.619 0.021-2.629 0.175-5.413 1.485-7.641 3.593-1.357 1.276-2.452 2.802-3.166 4.412-0.705 1.59-1.020 3.209-0.912 4.681 0.055 0.778 0.221 1.509 0.493 2.172 0.285 0.696 0.687 1.323 1.195 1.863l0.007 0.008c1.376 1.445 3.182 2.209 5.221 2.209 0.178 0 0.361-0.006 0.542-0.018h0.008c1.357-0.093 2.729-0.515 4.085-1.254l11.624 12.312 5.563-0.205 0.593-5.59-0.559-0.592zM25.257 29.201l-12.044-12.757-0.759 0.457c-1.319 0.794-2.6 1.195-3.764 1.275-0.145 0.009-0.288 0.014-0.429 0.014-1.568 0-2.904-0.572-3.939-1.66-0.725-0.771-1.128-1.767-1.212-2.949-0.173-2.333 1.036-5.339 3.528-7.68 2.031-1.923 4.456-2.975 6.543-3.114 0.17-0.012 0.337-0.018 0.501-0.018 0.684 0 1.322 0.1 1.891 0.292 0.708 0.239 1.312 0.614 1.808 1.139 0.86 0.916 1.34 2.020 1.429 3.273 0.101 1.463-0.352 3.147-1.525 4.866l-0.499 0.731 3.967 4.202 1.311 0.232 0.307 1.807 1.818 0.415 0.3 1.831 1.824 0.419 0.233 1.432 2.285 2.42-0.316 2.98-13.144-14.171-0.389 0.361 13.078 14.101-2.802 0.104z"></path>
<path d="M13.029 7.552c-0.232-0.255-0.515-0.445-0.827-0.569s-0.651-0.184-1.001-0.184c-0.439 0-0.895 0.094-1.34 0.276s-0.876 0.453-1.266 0.808c-0.431 0.393-0.764 0.846-0.989 1.32s-0.345 0.97-0.345 1.448c0 0.299 0.047 0.591 0.145 0.865s0.247 0.529 0.449 0.75c0.232 0.255 0.515 0.445 0.827 0.569s0.651 0.184 1.001 0.184c0.439 0 0.895-0.094 1.34-0.276s0.876-0.453 1.266-0.808c0.431-0.393 0.764-0.846 0.989-1.32s0.345-0.97 0.345-1.448c0-0.299-0.047-0.591-0.145-0.865s-0.247-0.529-0.449-0.75zM12.798 10.387c-0.195 0.41-0.486 0.809-0.867 1.156-0.345 0.314-0.725 0.551-1.11 0.709s-0.775 0.237-1.138 0.236c-0.289 0-0.561-0.050-0.804-0.146s-0.455-0.241-0.631-0.434c-0.153-0.168-0.266-0.36-0.341-0.571s-0.114-0.443-0.114-0.686c0-0.389 0.098-0.81 0.293-1.22s0.486-0.809 0.867-1.156c0.345-0.314 0.725-0.551 1.11-0.709s0.775-0.237 1.138-0.237c0.289 0 0.561 0.050 0.804 0.146s0.455 0.241 0.631 0.434c0.153 0.168 0.266 0.36 0.341 0.571s0.114 0.443 0.114 0.686c0 0.389-0.098 0.81-0.293 1.22z"></path>
</svg>
