<!-- Generated by IcoMoon.io -->
<svg version="1.1" xmlns="http://www.w3.org/2000/svg" width="32" height="32" viewBox="0 0 32 32">
<title>sys_config</title>
<path d="M17.183 14.887l-1.543-0.387c-0.143-0.591-0.366-1.111-0.662-1.582l0.013 0.022 0.824-1.368c0.049-0.068 0.079-0.153 0.079-0.245s-0.030-0.177-0.080-0.247l-1.068-1.067c-0.068-0.049-0.153-0.079-0.245-0.079s-0.177 0.030-0.247 0.080l0.001-0.001-1.42 0.754c-0.448-0.283-0.969-0.506-1.524-0.642l-0.036-0.007-0.386-1.56c-0.053-0.174-0.212-0.299-0.4-0.3h-1.476c-0.185 0.001-0.34 0.127-0.385 0.297l-0.001 0.003-0.386 1.56c-0.597 0.141-1.124 0.364-1.6 0.662l0.022-0.013-1.365-0.824c-0.068-0.049-0.153-0.079-0.245-0.079s-0.177 0.030-0.247 0.080l0.001-0.001-1.054 1.139c-0.053 0.067-0.084 0.153-0.084 0.245s0.032 0.178 0.085 0.246l-0.001-0.001 0.807 1.368c-0.268 0.449-0.484 0.969-0.622 1.52l-0.009 0.040-1.56 0.386c-0.204 0.015-0.364 0.181-0.371 0.385v1.508c0.001 0.185 0.127 0.34 0.297 0.385l0.003 0.001 1.56 0.386c0.147 0.591 0.363 1.111 0.646 1.587l-0.015-0.027-0.736 1.368c-0.053 0.067-0.084 0.153-0.084 0.245s0.032 0.178 0.085 0.246l1.069 1.068c0.068 0.049 0.153 0.079 0.245 0.079s0.177-0.030 0.247-0.080l-0.001 0.001 1.35-0.754c0.449 0.283 0.969 0.506 1.524 0.642l0.036 0.007 0.386 1.56c0.046 0.173 0.201 0.299 0.386 0.3h1.49c0.188-0.002 0.347-0.126 0.399-0.297l0.001-0.003 0.386-1.56c0.591-0.143 1.111-0.366 1.582-0.662l-0.022 0.013 1.368 0.824c0.068 0.049 0.153 0.079 0.245 0.079s0.177-0.030 0.247-0.080l1.068-1.068c0.049-0.068 0.079-0.153 0.079-0.245s-0.030-0.177-0.080-0.247l0.001 0.001-0.824-1.368c0.283-0.448 0.506-0.969 0.642-1.524l0.007-0.036 1.543-0.386c0.18-0.040 0.314-0.197 0.316-0.386v-1.577c0-0.003 0-0.007 0-0.010 0-0.172-0.108-0.318-0.26-0.375l-0.003-0.001zM9.749 18.867c-0.021 0.001-0.045 0.001-0.070 0.001-1.569 0-2.84-1.271-2.84-2.84s1.271-2.84 2.84-2.84c1.568 0 2.839 1.271 2.84 2.839v0c0 0 0 0.001 0 0.001 0 1.544-1.232 2.8-2.766 2.839h-0.004zM29.508 7.367l-1.21-0.317c-0.133-0.487-0.313-0.912-0.54-1.306l0.014 0.026 0.666-1.1c0.039-0.056 0.063-0.125 0.063-0.2s-0.023-0.144-0.063-0.201l0.001 0.001-0.964-0.842c-0.052-0.044-0.119-0.070-0.193-0.070s-0.141 0.027-0.193 0.071v0l-1.122 0.666c-0.337-0.244-0.727-0.441-1.147-0.571l-0.028-0.008-0.4-1.262c-0.037-0.144-0.164-0.25-0.317-0.253h-1.21c-0.002 0-0.005 0-0.008 0-0.149 0-0.275 0.104-0.308 0.243v0.002l-0.316 1.262c-0.485 0.115-0.912 0.296-1.298 0.537l0.018-0.011-1.1-0.666c-0.054-0.044-0.124-0.071-0.2-0.071s-0.146 0.027-0.201 0.072h0.001l-0.842 0.842c-0.047 0.053-0.076 0.123-0.076 0.2s0.029 0.147 0.077 0.2v0l0.649 1.1c-0.22 0.372-0.397 0.802-0.508 1.258l-0.007 0.033-1.262 0.316c-0.141 0.033-0.245 0.159-0.245 0.308 0 0.003 0 0.006 0 0.008v0 1.21c0.002 0.15 0.104 0.277 0.243 0.315l0.002 0.001 1.262 0.316c0.091 0.489 0.25 0.924 0.468 1.323l-0.012-0.023-0.649 1.122c-0.048 0.050-0.077 0.118-0.077 0.193s0.029 0.143 0.077 0.193v0l0.842 0.859c0.056 0.039 0.125 0.063 0.2 0.063s0.144-0.023 0.201-0.063l-0.001 0.001 1.157-0.614c0.368 0.213 0.793 0.393 1.242 0.517l0.038 0.009 0.316 1.262c0.033 0.141 0.159 0.245 0.308 0.245 0.003 0 0.006 0 0.008 0h1.21c0.16-0.006 0.291-0.125 0.316-0.279v-0.002l0.4-1.21c0.479-0.129 0.899-0.309 1.285-0.539l-0.023 0.013 1.122 0.666c0.053 0.041 0.12 0.066 0.193 0.066s0.14-0.025 0.194-0.066l-0.001 0.001 0.736-0.912c0.041-0.053 0.066-0.12 0.066-0.193s-0.025-0.14-0.066-0.194l0.001 0.001-0.579-1.14c0.22-0.366 0.401-0.788 0.523-1.236l0.008-0.035 1.262-0.316c0.141-0.039 0.243-0.165 0.245-0.316v-1.187c0-0.002 0-0.005 0-0.008 0-0.149-0.104-0.275-0.243-0.308h-0.002zM23.46 10.556c-1.259 0-2.279-1.020-2.279-2.279s1.020-2.279 2.279-2.279c1.259 0 2.279 1.020 2.279 2.279v0c0 1.259-1.020 2.279-2.279 2.279v0zM29.807 22.846l-1.262-0.316c-0.111-0.478-0.292-0.9-0.536-1.278l0.010 0.016 0.666-1.122c0.044-0.052 0.070-0.119 0.070-0.193s-0.027-0.141-0.071-0.193v0l-0.842-0.859c-0.056-0.039-0.125-0.063-0.2-0.063s-0.144 0.023-0.201 0.063l0.001-0.001-1.1 0.666c-0.368-0.213-0.793-0.393-1.242-0.517l-0.038-0.009-0.368-1.262c-0.033-0.141-0.159-0.245-0.308-0.245-0.003 0-0.006 0-0.008 0h-1.21c-0.151 0.002-0.277 0.104-0.315 0.243l-0.001 0.002-0.316 1.262c-0.472 0.119-0.887 0.287-1.27 0.504l0.025-0.013-1.122-0.666c-0.053-0.041-0.12-0.066-0.193-0.066s-0.14 0.025-0.194 0.066l-0.858 0.858c-0.041 0.053-0.066 0.12-0.066 0.193s0.025 0.14 0.066 0.194l-0.001-0.001 0.614 1.175c-0.217 0.363-0.397 0.783-0.518 1.227l-0.008 0.035-1.227 0.3c-0.141 0.039-0.243 0.166-0.245 0.316v1.21c0 0.002 0 0.005 0 0.008 0 0.149 0.104 0.275 0.243 0.308h0.002l1.256 0.31c0.133 0.487 0.313 0.912 0.54 1.306l-0.014-0.026-0.666 1.1c-0.039 0.056-0.063 0.125-0.063 0.2s0.023 0.144 0.063 0.201l-0.001-0.001 0.859 0.842c0.052 0.044 0.119 0.070 0.193 0.070s0.141-0.027 0.193-0.071v0l1.122-0.666c0.362 0.234 0.784 0.415 1.235 0.521l0.027 0.005 0.316 1.262c0.039 0.141 0.166 0.243 0.316 0.245h1.21c0.002 0 0.005 0 0.008 0 0.149 0 0.275-0.104 0.308-0.243v-0.002l0.309-1.252c0.485-0.115 0.912-0.296 1.298-0.537l-0.018 0.011 1.1 0.666c0.054 0.044 0.124 0.071 0.2 0.071s0.146-0.027 0.201-0.072h-0.001l0.842-0.842c0.044-0.054 0.071-0.124 0.071-0.2s-0.027-0.146-0.072-0.201v0.001l-0.666-1.1c0.235-0.371 0.421-0.801 0.532-1.261l0.006-0.029 1.262-0.316c0.141-0.034 0.244-0.159 0.244-0.308 0-0.002 0-0.003 0-0.005v0-1.21c0-0.004 0-0.009 0-0.014 0-0.133-0.078-0.248-0.191-0.301l-0.002-0.001zM23.776 26.037c-0.005 0-0.011 0-0.017 0-1.259 0-2.279-1.020-2.279-2.279s1.020-2.279 2.279-2.279c1.259 0 2.279 1.020 2.279 2.279 0 0.006 0 0.012 0 0.018v-0.001c-0.010 1.245-1.017 2.252-2.261 2.262h-0.001z"></path>
</svg>
