<!-- Generated by IcoMoon.io -->
<svg version="1.1" xmlns="http://www.w3.org/2000/svg" width="32" height="32" viewBox="0 0 32 32">
<title>sys_action</title>
<path d="M8.121 6.17c-1.391 0.001-2.519 1.129-2.521 2.52v15.189c0.005 1.389 1.131 2.513 2.521 2.513 0 0 0 0 0 0h15.2c1.387-0.001 2.512-1.126 2.513-2.513v-9.979l2.608-2.521v13.421c-0.039 2.328-1.936 4.2-4.269 4.2-0.006 0-0.012 0-0.019 0h-16.954c-2.32 0-4.2-1.88-4.2-4.2v0-16.774c0-0.011 0-0.024 0-0.038 0-2.365 1.855-4.296 4.189-4.419h13.434l-2.513 2.601h-9.989zM17.421 18.513l-5.633 1.6 1.611-5.6 4.023 4zM17.985 17.95l-4.030-3.994 8.855-8.8 4.030 3.994-8.855 8.8zM28.66 7.35l-1.206 1.2-4.030-4 1.206-1.2c0.203-0.211 0.488-0.342 0.803-0.342 0.29 0 0.554 0.111 0.753 0.293l-0.001-0.001 2.521 2.5c0.184 0.196 0.297 0.461 0.297 0.751 0 0.316-0.133 0.6-0.346 0.801l-0.001 0.001z"></path>
</svg>
