<!-- Generated by IcoMoon.io -->
<svg version="1.1" xmlns="http://www.w3.org/2000/svg" width="32" height="32" viewBox="0 0 32 32">
<title>sys_role</title>
<path d="M10.645 16.065c-1.558 0.015-2.945 0.737-3.857 1.86l-0.007 0.009h-1.953c-0.034 0.001-0.075 0.002-0.115 0.002-0.71 0-1.368-0.222-1.908-0.601l0.011 0.007c-0.499-0.366-0.819-0.95-0.819-1.609 0-0.041 0.001-0.081 0.004-0.121v0.006q0-5.15 1.81-5.145c0.241 0.082 0.451 0.186 0.643 0.314l-0.010-0.006c0.4 0.221 0.87 0.431 1.359 0.6l0.065 0.020c0.516 0.195 1.112 0.309 1.735 0.311h0.001c0.696-0.002 1.362-0.125 1.98-0.349l-0.041 0.013c-0.044 0.287-0.070 0.62-0.074 0.959v0.004c0 0.011 0 0.024 0 0.036 0 1.384 0.441 2.665 1.19 3.71l-0.013-0.019zM10.239 4.095c0.672 0.675 1.088 1.607 1.088 2.635 0 2.063-1.672 3.735-3.735 3.735s-3.735-1.672-3.735-3.735c0-2.063 1.672-3.735 3.735-3.735 0.002 0 0.004 0 0.005 0v0c0.014 0 0.030 0 0.047 0 1.019 0 1.939 0.423 2.594 1.104l0.001 0.001zM26.266 25.354c0.003 0.055 0.005 0.12 0.005 0.185 0 1.008-0.408 1.92-1.069 2.58v0c-0.694 0.631-1.62 1.017-2.636 1.017-0.067 0-0.135-0.002-0.201-0.005h-12.738c-0.058 0.003-0.126 0.005-0.194 0.005-1.016 0-1.941-0.386-2.637-1.020l0.003 0.003c-0.66-0.66-1.069-1.573-1.069-2.58 0-0.065 0.002-0.13 0.005-0.194v0.009c0-0.514 0.014-1.018 0.052-1.508 0.045-0.601 0.118-1.145 0.22-1.679l-0.014 0.090c0.11-0.621 0.244-1.154 0.41-1.671l-0.025 0.089c0.181-0.548 0.393-1.019 0.647-1.462l-0.020 0.038c0.254-0.452 0.555-0.84 0.905-1.178l0.001-0.001c0.35-0.329 0.766-0.594 1.224-0.772l0.026-0.009c0.468-0.184 1.009-0.291 1.576-0.291 0.017 0 0.034 0 0.050 0h-0.003c0.24 0.064 0.45 0.172 0.63 0.315l-0.004-0.003c0.322 0.21 0.675 0.441 1.064 0.7 1.008 0.619 2.224 0.993 3.527 1.012h0.005c0.704-0.002 1.382-0.116 2.016-0.324l-0.046 0.013c0.594-0.178 1.112-0.416 1.587-0.716l-0.026 0.016c0.389-0.259 0.742-0.49 1.064-0.7 0.176-0.14 0.386-0.248 0.614-0.309l0.012-0.003c0.014 0 0.031 0 0.048 0 0.567 0 1.108 0.107 1.606 0.302l-0.030-0.010c0.484 0.188 0.899 0.452 1.252 0.783l-0.002-0.002c0.348 0.341 0.649 0.729 0.892 1.153l0.014 0.026c0.238 0.407 0.45 0.878 0.611 1.372l0.015 0.052c0.144 0.433 0.278 0.965 0.374 1.51l0.011 0.072c0.1 0.567 0.168 1.1 0.206 1.589 0.023 0.489 0.041 0.993 0.041 1.507zM19.959 8.372c1.011 1.012 1.636 2.41 1.636 3.953 0 3.089-2.505 5.594-5.594 5.594s-5.594-2.505-5.594-5.594c0-3.089 2.504-5.593 5.593-5.594v0c0.025 0 0.054-0.001 0.083-0.001 1.52 0 2.893 0.629 3.874 1.64l0.001 0.001zM27.036 4.095c0.672 0.675 1.088 1.607 1.088 2.635 0 2.063-1.672 3.735-3.735 3.735s-3.735-1.672-3.735-3.735c0-2.063 1.672-3.735 3.735-3.735 0.001 0 0.003 0 0.004 0v0c0.014 0 0.031 0 0.047 0 1.019 0 1.939 0.423 2.594 1.104l0.001 0.001zM30 15.614c0.002 0.033 0.003 0.072 0.003 0.112 0 0.66-0.32 1.245-0.813 1.61l-0.005 0.004c-0.533 0.372-1.193 0.594-1.906 0.594-0.038 0-0.075-0.001-0.112-0.002h-1.948c-0.92-1.132-2.306-1.853-3.861-1.869h-0.003c0.738-1.033 1.18-2.321 1.18-3.713 0-0.007 0-0.013 0-0.020v0.001c-0.003-0.342-0.030-0.675-0.079-1.001l0.005 0.039c0.577 0.211 1.243 0.334 1.938 0.336h0.001c0.624-0.004 1.22-0.118 1.772-0.324l-0.036 0.012c0.557-0.194 1.027-0.403 1.477-0.645l-0.053 0.026c0.182-0.119 0.391-0.223 0.612-0.302l0.021-0.006q1.802 0.005 1.807 5.148z"></path>
</svg>
