<!-- Generated by IcoMoon.io -->
<svg version="1.1" xmlns="http://www.w3.org/2000/svg" width="32" height="32" viewBox="0 0 32 32">
<title>sys_menu</title>
<path d="M29.058 19.67c-0.112-0.009-0.2-0.102-0.2-0.216 0-0.004 0-0.009 0-0.013v0.001-4.424c0-0.004 0-0.008 0-0.013 0-0.114-0.088-0.207-0.2-0.216h-11.41c-0.112-0.009-0.2-0.102-0.2-0.216 0-0.004 0-0.009 0-0.013v0.001-2c0-0.004 0-0.008 0-0.013 0-0.114 0.088-0.207 0.2-0.216h4.774c0.225-0.018 0.401-0.205 0.401-0.433 0-0.009 0-0.018-0.001-0.026v0.001-6.413c0-0.008 0.001-0.016 0.001-0.025 0-0.228-0.176-0.415-0.399-0.433h-12.024c-0.225 0.018-0.401 0.205-0.401 0.433 0 0.009 0 0.018 0.001 0.026v-0.001 6.413c0 0.008-0.001 0.016-0.001 0.025 0 0.228 0.176 0.415 0.399 0.433h4.702c0.112 0.009 0.2 0.102 0.2 0.216 0 0.004 0 0.009 0 0.013v-0.001 2c0 0.004 0 0.008 0 0.013 0 0.114-0.088 0.207-0.2 0.216h-11.358c-0.112 0.009-0.2 0.102-0.2 0.216 0 0.004 0 0.009 0 0.013v-0.001 4.421c0 0.004 0 0.008 0 0.013 0 0.114-0.088 0.207-0.2 0.216h-1.544c-0.225 0.018-0.401 0.205-0.401 0.433 0 0.009 0 0.018 0.001 0.026v-0.001 6.413c0 0.008-0.001 0.016-0.001 0.025 0 0.228 0.176 0.415 0.399 0.433h5.626c0.225-0.018 0.401-0.205 0.401-0.433 0-0.009 0-0.018-0.001-0.026v0.001-6.413c0-0.008 0.001-0.016 0.001-0.025 0-0.228-0.176-0.415-0.399-0.433h-1.542c-0.112-0.009-0.2-0.102-0.2-0.216 0-0.004 0-0.009 0-0.013v0.001-1.978c0-0.004 0-0.008 0-0.013 0-0.114 0.088-0.207 0.2-0.216h9.217c0.112 0.009 0.2 0.102 0.2 0.216 0 0.004 0 0.009 0 0.013v-0.001 1.977c0 0.004 0 0.008 0 0.013 0 0.114-0.088 0.207-0.2 0.216h-2.584c-0.225 0.018-0.401 0.205-0.401 0.433 0 0.009 0 0.018 0.001 0.026v-0.001 6.413c0 0.008-0.001 0.016-0.001 0.025 0 0.228 0.176 0.415 0.399 0.433h7.768c0.225-0.018 0.401-0.205 0.401-0.433 0-0.009 0-0.018-0.001-0.026v0.001-6.413c0-0.008 0.001-0.016 0.001-0.025 0-0.228-0.176-0.415-0.399-0.433h-2.64c-0.112-0.009-0.2-0.102-0.2-0.216 0-0.004 0-0.009 0-0.013v0.001-1.977c0-0.004 0-0.008 0-0.013 0-0.114 0.088-0.207 0.2-0.216h9.27c0.112 0.009 0.2 0.102 0.2 0.216 0 0.004 0 0.009 0 0.013v-0.001 1.981c0 0.004 0 0.008 0 0.013 0 0.114-0.088 0.207-0.2 0.216h-1.541c-0.225 0.018-0.401 0.205-0.401 0.433 0 0.009 0 0.018 0.001 0.026v-0.001 6.413c0 0.008-0.001 0.016-0.001 0.025 0 0.228 0.176 0.415 0.399 0.433h5.628c0.225-0.018 0.401-0.205 0.401-0.433 0-0.009 0-0.018-0.001-0.026v0.001-6.413c0-0.008 0.001-0.016 0.001-0.025 0-0.228-0.176-0.415-0.399-0.433h-0.002zM11.946 7.443h8.131c0.112 0.009 0.2 0.102 0.2 0.216 0 0.004 0 0.009 0 0.013v-0.001 1.985c0 0.004 0 0.008 0 0.013 0 0.114-0.088 0.207-0.2 0.216h-8.132c-0.112-0.009-0.2-0.102-0.2-0.216 0-0.004 0-0.009 0-0.013v0.001-1.985c0-0.004 0-0.008 0-0.013 0-0.114 0.088-0.207 0.2-0.216h0.001zM5.084 24.553h-1.741c-0.112-0.009-0.2-0.102-0.2-0.216 0-0.004 0-0.009 0-0.013v0.001-1.985c0-0.004 0-0.008 0-0.013 0-0.114 0.088-0.207 0.2-0.216h1.742c0.112 0.009 0.2 0.102 0.2 0.216 0 0.004 0 0.009 0 0.013v-0.001 1.985c0 0.004 0 0.008 0 0.013 0 0.114-0.088 0.207-0.2 0.216h-0.001zM17.942 24.553h-3.884c-0.112-0.009-0.2-0.102-0.2-0.216 0-0.004 0-0.009 0-0.013v0.001-1.985c0-0.004 0-0.008 0-0.013 0-0.114 0.088-0.207 0.2-0.216h3.884c0.112 0.009 0.2 0.102 0.2 0.216 0 0.004 0 0.009 0 0.013v-0.001 1.985c0 0.004 0 0.008 0 0.013 0 0.114-0.087 0.207-0.199 0.216h-0.001zM28.657 24.553h-1.741c-0.112-0.009-0.2-0.102-0.2-0.216 0-0.004 0-0.009 0-0.013v0.001-1.985c0-0.004 0-0.008 0-0.013 0-0.114 0.088-0.207 0.2-0.216h1.742c0.112 0.009 0.2 0.102 0.2 0.216 0 0.004 0 0.009 0 0.013v-0.001 1.985c0 0.006 0.001 0.012 0.001 0.018 0 0.114-0.088 0.207-0.2 0.215h-0.001z"></path>
</svg>
