<!-- Generated by IcoMoon.io -->
<svg version="1.1" xmlns="http://www.w3.org/2000/svg" width="32" height="32" viewBox="0 0 32 32">
<title>sys_user</title>
<path d="M30 26.62c0.010 0.073 0.016 0.157 0.016 0.242 0 1.027-0.833 1.86-1.86 1.86-0.028 0-0.057-0.001-0.085-0.002h-24.146c-0.024 0.001-0.052 0.002-0.081 0.002-1.027 0-1.86-0.833-1.86-1.86 0-0.085 0.006-0.169 0.017-0.251l-0.001 0.010c0.152-3.961 3.373-7.121 7.345-7.175h0.005s1.4 2.275 6.65 2.275 6.65-2.275 6.65-2.275c3.977 0.054 7.198 3.214 7.35 7.161v0.014zM16.154 3c-4.056 0-7.343 3.675-7.343 8.209s3.288 8.209 7.343 8.209 7.343-3.675 7.343-8.209-3.287-8.209-7.343-8.209z"></path>
</svg>
