<!-- Generated by IcoMoon.io -->
<svg version="1.1" xmlns="http://www.w3.org/2000/svg" width="32" height="32" viewBox="0 0 32 32">
<title>user_info</title>
<path d="M3.659 27.261c-1.47-0.005-2.659-1.198-2.659-2.668 0-0.001 0-0.003 0-0.004v0-15.889c-0.015-0.159-0.024-0.343-0.024-0.53 0-0.69 0.119-1.351 0.337-1.966l-0.013 0.041c0.203-0.443 0.549-0.792 0.978-0.995l0.012-0.005c0.356-0.158 0.772-0.249 1.209-0.249 0.042 0 0.083 0.001 0.125 0.003h24.72c0.041-0.002 0.089-0.004 0.137-0.004 0.706 0 1.346 0.282 1.813 0.74v0c0.457 0.579 0.733 1.319 0.733 2.123 0 0.188-0.015 0.373-0.044 0.552l0.003-0.020c0 0.117-0.010 0.227-0.010 0.311v15.886c0 0 0 0.001 0 0.001 0 1.471-1.189 2.664-2.658 2.671h-0.001zM3.259 7.208c-0.056 0.347-0.088 0.747-0.088 1.154 0 0.12 0.003 0.239 0.008 0.358l-0.001-0.017v15.886c0 0.002 0 0.005 0 0.007 0 0.269 0.216 0.488 0.485 0.493h24.654c0.269-0.004 0.485-0.223 0.485-0.493 0-0.002 0-0.005 0-0.007v0-15.889c0-0.13 0.007-0.261 0.010-0.4 0.008-0.105 0.012-0.227 0.012-0.351 0-0.156-0.007-0.31-0.020-0.462l0.001 0.020c-0.005-0.099-0.034-0.191-0.081-0.271l0.001 0.003c-0.089-0.045-0.194-0.071-0.305-0.071-0.027 0-0.053 0.002-0.079 0.004h-24.72c-0.010 0-0.022 0-0.035 0-0.118 0-0.233 0.013-0.344 0.037l0.011-0.002z"></path>
<path d="M11.258 9.331c-1.813 0.098-3.245 1.592-3.245 3.42 0 1.892 1.533 3.425 3.425 3.425 1.885 0 3.415-1.523 3.425-3.406v-0.001c0-0.006 0-0.012 0-0.019 0-1.891-1.533-3.424-3.424-3.424-0.064 0-0.127 0.002-0.19 0.005h0.009zM11.458 17.254c-2.271 0-6.816 1.137-6.816 3.408v1.706c0.001 0.314 0.255 0.568 0.569 0.569h12.5c0.314-0.001 0.568-0.255 0.569-0.569v-1.732c0-2.244-4.545-3.381-6.819-3.381zM27.367 11.603h-9.090v1.137h9.090v-1.143zM27.367 9.326h-9.090v1.137h9.090v-1.137zM27.367 13.871h-4.545v1.134h4.545v-1.134z"></path>
</svg>
