<!-- Generated by IcoMoon.io -->
<svg version="1.1" xmlns="http://www.w3.org/2000/svg" width="32" height="32" viewBox="0 0 32 32">
<title>user_passwd</title>
<path d="M27.392 4.608c-1.612-1.612-3.838-2.609-6.298-2.609-4.919 0-8.906 3.987-8.906 8.906 0 1.395 0.321 2.716 0.893 3.892l-0.023-0.053-11.058 11.058 0.206 3.992 3.991 0.206 1.6-1.605s-2.1-2.1-1.4-2.8 2.794 1.394 2.8 1.4l1.4-1.4c-0.008-0.008-2.1-2.1-1.4-2.8s2.8 1.4 2.8 1.4l1.399-1.399c-0.012-0.012-2.1-2.1-1.4-2.8s2.8 1.4 2.8 1.4l2.458-2.458c1.122 0.548 2.441 0.868 3.835 0.868 4.919 0 8.906-3.987 8.906-8.906 0-2.457-0.995-4.681-2.603-6.292v0zM23.192 13.008c-0.537 0.536-1.278 0.868-2.097 0.868-1.639 0-2.968-1.329-2.968-2.968s1.329-2.968 2.968-2.968c0.819 0 1.56 0.332 2.097 0.868v0c0.537 0.537 0.869 1.279 0.869 2.098s-0.332 1.56-0.868 2.097v0z"></path>
</svg>
