<!-- Generated by IcoMoon.io -->
<svg version="1.1" xmlns="http://www.w3.org/2000/svg" width="32" height="32" viewBox="0 0 32 32">
<title>user</title>
<path d="M8.5 11c0-4.136 3.363-7.5 7.5-7.5s7.5 3.364 7.5 7.5c0 4.136-3.364 7.5-7.5 7.5s-7.5-3.364-7.5-7.5zM29.707 29.428c-1.229-4.604-4.469-8.204-8.537-9.885 2.888-1.755 4.83-4.922 4.83-8.544 0-5.513-4.486-10-10-10s-10 4.486-10 10c0 3.621 1.941 6.788 4.831 8.543-4.069 1.683-7.309 5.281-8.538 9.885-0.027 0.096-0.042 0.207-0.042 0.321 0 0.575 0.389 1.060 0.918 1.205l0.009 0.002c0.097 0.027 0.208 0.042 0.322 0.042 0.576 0 1.061-0.389 1.207-0.918l0.002-0.009c1.427-5.341 6.069-9.072 11.292-9.072s9.866 3.731 11.292 9.072c0.146 0.538 0.631 0.928 1.206 0.928 0.115 0 0.227-0.016 0.333-0.045l-0.009 0.002c0.538-0.147 0.927-0.632 0.927-1.207 0-0.114-0.015-0.225-0.044-0.33l0.002 0.009z"></path>
</svg>
