<!-- Generated by IcoMoon.io -->
<svg version="1.1" xmlns="http://www.w3.org/2000/svg" width="32" height="32" viewBox="0 0 32 32">
<title>data</title>
<path d="M2.331 20.21l4.798 2.303 8.871 4.297 8.555-4.145 5.116-2.45c0.154 0.318 0.244 0.692 0.244 1.088 0 1.001-0.579 1.867-1.419 2.282l-0.015 0.007-11.373 5.508c-0.324 0.16-0.705 0.254-1.109 0.254s-0.785-0.094-1.124-0.261l0.015 0.007-11.373-5.508c-0.856-0.422-1.434-1.287-1.434-2.288 0-0.397 0.091-0.772 0.253-1.107l-0.007 0.015zM29.66 14.889c0.161 0.324 0.255 0.706 0.255 1.11 0 1.001-0.579 1.867-1.419 2.282l-0.015 0.007-11.373 5.508c-0.324 0.16-0.705 0.254-1.109 0.254s-0.785-0.094-1.124-0.261l0.015 0.007-11.372-5.508c-0.855-0.422-1.434-1.287-1.434-2.288 0-0.353 0.072-0.688 0.201-0.994l-0.006 0.017 12.596 5.941 1.124 0.544 13.66-6.618zM17.109 2.901l11.372 5.507c0.856 0.421 1.434 1.287 1.434 2.289s-0.579 1.867-1.42 2.282l-0.015 0.007-11.372 5.508c-0.324 0.16-0.705 0.254-1.109 0.254s-0.785-0.094-1.124-0.261l0.015 0.007-11.373-5.508c-0.856-0.421-1.434-1.287-1.434-2.289s0.579-1.867 1.42-2.282l0.015-0.007 11.373-5.506c0.324-0.16 0.705-0.254 1.109-0.254s0.785 0.094 1.124 0.261l-0.015-0.007zM16 5.189l-11.373 5.507 11.373 5.508 11.373-5.508-11.373-5.507z"></path>
</svg>
