<!-- Generated by IcoMoon.io -->
<svg version="1.1" xmlns="http://www.w3.org/2000/svg" width="32" height="32" viewBox="0 0 32 32">
<title>gift</title>
<path d="M18.758 2.485l0.253 0.004c2.213 0.096 3.971 1.914 3.971 4.142 0 0.642-0.146 1.25-0.406 1.792l0.011-0.025h4.964c1.318 0 2.387 1.069 2.387 2.387v0 2.827c0 1.318-1.069 2.387-2.387 2.387v0h-0.147v11.128c0 1.318-1.069 2.387-2.387 2.387v0h-18.031c-1.318 0-2.387-1.069-2.387-2.387v0l-0.001-11.128h-0.147c-1.318 0-2.387-1.069-2.387-2.387v0-2.827c0-1.318 1.069-2.387 2.387-2.387v0h4.566c-0.25-0.518-0.396-1.126-0.396-1.768 0-2.228 1.758-4.046 3.963-4.142l0.009-0 0.253-0.003c0.001 0 0.003 0 0.005 0 1.15 0 2.192 0.461 2.952 1.208l-0.001-0.001c0.759-0.747 1.801-1.208 2.951-1.208 0.002 0 0.004 0 0.007 0h-0zM14.733 16h-7.749v11.128l7.749-0.001v-11.127zM25.016 16h-7.749v11.127h7.749v-11.127zM14.733 10.784h-10.283v2.828h0.146v-0.072l10.136-0.001v-2.755zM27.55 10.784h-10.283v2.755l10.136 0.001v0.072h0.147v-2.827zM12.845 4.872h-0.078c-0.971 0-1.759 0.787-1.759 1.759s0.787 1.759 1.759 1.759h1.766v-1.681c0-0.207 0.016-0.41 0.044-0.608-0.258-0.721-0.936-1.228-1.731-1.229h-0zM18.835 4.872h-0.078c-0.797 0-1.475 0.508-1.729 1.217l-0.004 0.013c0.029 0.197 0.044 0.4 0.044 0.607v1.681h1.766c0 0 0 0 0.001 0 0.927 0 1.686-0.717 1.754-1.627l0-0.006 0.005-0.126c0-0.971-0.788-1.759-1.759-1.759z"></path>
</svg>
