<!-- Generated by IcoMoon.io -->
<svg version="1.1" xmlns="http://www.w3.org/2000/svg" width="32" height="32" viewBox="0 0 32 32">
<title>qrcode</title>
<path d="M6.267 10.533h4.267v-4.267h-4.267v4.267zM27.867 16.933h2.133v6.667h-2.133v-2.133h-2.133v-2.4h-2.133v-2.133h2.133v2.133h2.133v-2.133zM21.467 21.467h4.267v4.267h2.133v2.133h2.133v2.133h-4.267v-2.133h-2.133v-4.267h-2.133v2.133h-2.4v2.133h2.4v2.133h-4.533v-13.067h4.533v2.133h-2.4v4.533h2.4v-2.133zM2 30h12.8v-13.067h-12.8v13.067zM4.133 19.067h8.533v8.8h-8.533v-8.8zM6.267 25.733h4.267v-4.267h-4.267v4.267zM16.933 2v12.8h13.067v-12.8h-13.067zM27.867 12.667h-8.8v-8.533h8.8v8.533zM2 14.8h12.8v-12.8h-12.8v12.8zM4.133 4.133h8.533v8.533h-8.533v-8.533zM25.733 6.267h-4.267v4.267h4.267v-4.267z"></path>
</svg>
