<!-- Generated by IcoMoon.io -->
<svg version="1.1" xmlns="http://www.w3.org/2000/svg" width="32" height="32" viewBox="0 0 32 32">
<title>security</title>
<path d="M16.611 2.080l10.27 2.739c1.021 0.279 1.759 1.198 1.759 2.29 0 0 0 0 0 0v0 12.989c0 0 0 0 0 0.001 0 0.782-0.378 1.475-0.962 1.907l-0.006 0.005-10.27 7.531c-0.387 0.287-0.874 0.459-1.401 0.459s-1.014-0.172-1.408-0.463l0.006 0.005-10.27-7.532c-0.59-0.436-0.969-1.129-0.969-1.911v0-12.989c0-0 0-0 0-0 0-1.092 0.738-2.011 1.743-2.286l0.017-0.004 10.27-2.739c0.183-0.051 0.394-0.080 0.611-0.080s0.427 0.029 0.627 0.084l-0.017-0.004zM16 4.37l-10.27 2.739v12.989l10.27 7.532 10.27-7.532v-12.989l-10.27-2.739zM20.697 8.976l1.667 1.684-8.485 8.4-4.246-4.245 1.675-1.676 2.58 2.579 6.809-6.741z"></path>
</svg>
