<svg xmlns="http://www.w3.org/2000/svg" width="91.354" height="74.973" viewBox="0 0 91.354 74.973"><path d="M946.148,291.8a5.821,5.821,0,1,1,5.828-5.824A5.835,5.835,0,0,1,946.148,291.8Zm0-7.665A1.844,1.844,0,1,0,948,285.975,1.849,1.849,0,0,0,946.148,284.134Z" transform="translate(-871.472 -259.645)" fill="#999"/><path d="M286.927,349.19a19.329,19.329,0,1,1,19.363-19.331A19.373,19.373,0,0,1,286.927,349.19Zm0-34.681a15.353,15.353,0,1,0,15.387,15.35A15.39,15.39,0,0,0,286.927,314.508Z" transform="translate(-247.968 -287.796)" fill="#999"/><path d="M77.459,74.973H13.9A13.9,13.9,0,0,1,0,61.1V22.4A13.99,13.99,0,0,1,11.26,8.782,12.93,12.93,0,0,1,23.464,0H42.333A12.976,12.976,0,0,1,54.457,8.523h23A13.9,13.9,0,0,1,91.354,22.4V61.1A13.9,13.9,0,0,1,77.459,74.973Zm-54-71a8.916,8.916,0,0,0-8.689,7l-.307,1.434-1.459.133A9.973,9.973,0,0,0,3.977,22.4V61.1A9.92,9.92,0,0,0,13.9,71H77.461A9.92,9.92,0,0,0,87.382,61.1V22.4a9.922,9.922,0,0,0-9.921-9.9H51.374l-.345-1.557a8.956,8.956,0,0,0-8.695-6.966H23.464Z" fill="#999"/><path d="M1152.43,838.844" transform="translate(-1068.054 -777.427)" fill="#999"/></svg>