<svg xmlns="http://www.w3.org/2000/svg" width="32" height="25.595" viewBox="0 0 32 25.595"><g transform="translate(-42.01 -156.385)"><path d="M69.841,181.98H52.621l-7.352-.014c-.021,0-.043,0-.064,0a3.553,3.553,0,0,1-3.2-3.535V159.938a3.557,3.557,0,0,1,3.553-3.553H69.841a3.557,3.557,0,0,1,3.553,3.553v7.916c0,.009,0,.019,0,.029a7.173,7.173,0,0,0,.543,3,.653.653,0,0,1-1.159.6,8.365,8.365,0,0,1-.689-3.642v-7.9a2.25,2.25,0,0,0-2.247-2.247H45.562a2.25,2.25,0,0,0-2.248,2.247v18.489a2.239,2.239,0,0,0,1.991,2.233l7.316.014H69.841a2.25,2.25,0,0,0,2.248-2.247l-.014-3.289a2.908,2.908,0,0,0-.686-1.492l0-.007-.762-1L66.507,167.2c-.015-.019-1.369-1.785-3.029-1.6-1.346.151-2.666,1.585-3.819,4.147a13.535,13.535,0,0,1-1.828,3.126,3.738,3.738,0,0,1-1.939,1.345c-1.524.374-2.845-.667-4.244-1.768l-.177-.139c-1.634-1.284-2.413-.991-5.558,2.092a.653.653,0,1,1-.914-.932,12.977,12.977,0,0,1,3.759-2.958,3.341,3.341,0,0,1,3.519.772l.179.141c1.191.938,2.219,1.748,3.125,1.526s1.871-1.478,2.888-3.739c1.374-3.053,3.013-4.7,4.872-4.909,2.4-.264,4.136,2.015,4.208,2.112l4.112,5.44.758.995a4.03,4.03,0,0,1,.961,2.272v0l.014,3.3a3.558,3.558,0,0,1-3.553,3.556Z" fill="#999"/><path d="M227.642,297.505a2.694,2.694,0,1,1,2.694-2.695,2.7,2.7,0,0,1-2.694,2.695Zm0-4.084a1.389,1.389,0,1,0,1.389,1.389,1.391,1.391,0,0,0-1.389-1.389Z" transform="translate(-176.785 -131.166)" fill="#999"/></g></svg>