<!-- Generated by IcoMoon.io -->
<svg version="1.1" xmlns="http://www.w3.org/2000/svg" width="32" height="32" viewBox="0 0 32 32">
<title>camera</title>
<path d="M26.578 9.2h-4.042l-1.299-2.924c-0.429-0.963-1.571-1.61-2.841-1.61h-4.792c-1.27 0-2.412 0.647-2.842 1.611l-1.299 2.923h-4.042c-1.668 0.002-3.021 1.354-3.022 3.022v12.089c0.002 1.668 1.354 3.020 3.022 3.022h21.156c1.668-0.002 3.020-1.354 3.022-3.022v-12.089c-0.002-1.668-1.354-3.021-3.022-3.022h-0zM28.089 24.311c-0.001 0.834-0.677 1.51-1.511 1.511h-21.156c-0.834-0.001-1.51-0.677-1.511-1.511v-12.089c0.001-0.834 0.677-1.51 1.511-1.511h4.534c0 0 0 0 0 0 0.306 0 0.57-0.182 0.688-0.444l0.002-0.005 1.496-3.37c0.184-0.414 0.799-0.714 1.461-0.714h4.793c0.662 0 1.276 0.299 1.46 0.713l1.498 3.371c0.121 0.267 0.384 0.449 0.69 0.449 0 0 0 0 0 0h4.533c0.834 0.001 1.51 0.677 1.511 1.511v0z"></path>
<path d="M16 12.222c-2.916 0-5.289 2.373-5.289 5.289s2.373 5.289 5.289 5.289 5.289-2.373 5.289-5.289-2.373-5.289-5.289-5.289zM16 21.289c-2.083 0-3.778-1.695-3.778-3.778s1.695-3.778 3.778-3.778 3.778 1.695 3.778 3.778-1.695 3.778-3.778 3.778z"></path>
</svg>
