<!-- Generated by IcoMoon.io -->
<svg version="1.1" xmlns="http://www.w3.org/2000/svg" width="32" height="32" viewBox="0 0 32 32">
<title>cart</title>
<path d="M10.685 25.077c1.067 0 1.931 0.865 1.931 1.931s-0.865 1.931-1.931 1.931v0c-1.067 0-1.931-0.865-1.931-1.931s0.865-1.931 1.931-1.931v0zM24.591 25.077c1.067 0 1.931 0.865 1.931 1.931s-0.865 1.931-1.931 1.931v0c-1.067 0-1.931-0.865-1.931-1.931s0.865-1.931 1.931-1.931v0zM2.143 3.060h1.982c0 0 0 0 0 0 1.608 0 2.962 1.092 3.359 2.575l0.006 0.024 0.037 0.159 0.478 2.263h0.008l1.553 7.436 1.177 5.697h14.565l2.233-10.815h-17.465l-0.484-2.318h17.95c0 0 0 0 0 0 1.28 0 2.318 1.038 2.318 2.318 0 0.166-0.017 0.328-0.051 0.484l0.003-0.015-2.233 10.815c-0.225 1.063-1.156 1.849-2.27 1.849-0 0-0.001 0-0.001 0h-14.565c0 0-0 0-0 0-1.114 0-2.044-0.786-2.267-1.833l-0.003-0.015-2.194-10.625-0.015 0.003-1.004-4.764c-0.107-0.493-0.516-0.865-1.020-0.914l-0.005-0-0.108-0.005h-1.984v-2.318h1.982z"></path>
</svg>
