<!-- Generated by IcoMoon.io -->
<svg version="1.1" xmlns="http://www.w3.org/2000/svg" width="32" height="32" viewBox="0 0 32 32">
<title>collection</title>
<path d="M15.183 2.883c0.238-0.12 0.519-0.191 0.817-0.191 0.674 0 1.264 0.362 1.586 0.903l0.005 0.009 0.063 0.116 3.301 6.681 7.377 1.071c0.898 0.134 1.579 0.9 1.579 1.825 0 0.469-0.175 0.898-0.464 1.223l0.002-0.002-0.095 0.099-5.337 5.195 1.26 7.34c0.017 0.094 0.027 0.202 0.027 0.312 0 1.018-0.825 1.844-1.844 1.844-0.267 0-0.521-0.057-0.75-0.159l0.012 0.005-0.119-0.057-6.601-3.466-6.601 3.467c-0.249 0.133-0.544 0.212-0.858 0.212-1.018 0-1.844-0.825-1.844-1.844 0-0.066 0.003-0.131 0.010-0.196l-0.001 0.008 0.018-0.125 1.26-7.34-5.337-5.195c-0.344-0.335-0.557-0.803-0.557-1.321 0-0.88 0.617-1.617 1.443-1.8l0.012-0.002 0.123-0.022 7.377-1.071 3.301-6.681c0.183-0.365 0.471-0.654 0.825-0.832l0.011-0.005zM12.642 12.598l-7.502 1.089 5.428 5.285-1.282 7.467 6.714-3.526 6.714 3.526-1.282-7.467 5.428-5.285-7.502-1.089-3.358-6.795-3.358 6.795z"></path>
</svg>
