<!-- Generated by IcoMoon.io -->
<svg version="1.1" xmlns="http://www.w3.org/2000/svg" width="32" height="32" viewBox="0 0 32 32">
<title>count</title>
<path d="M14.353 2.096v2.492c-5.588 0.799-9.882 5.604-9.882 11.412 0 6.368 5.162 11.529 11.529 11.529 5.808 0 10.614-4.295 11.412-9.882h2.492c-0.815 6.956-6.73 12.353-13.904 12.353-7.732 0-14-6.268-14-14 0-7.175 5.397-13.089 12.353-13.904zM16 2c7.642 0 13.856 6.125 13.998 13.734l0.002 0.266h-14v-14zM18.471 4.736v8.794h8.794c-0.972-4.309-4.254-7.659-8.447-8.715l-0.080-0.017-0.267-0.062z"></path>
</svg>
