<!-- Generated by IcoMoon.io -->
<svg version="1.1" xmlns="http://www.w3.org/2000/svg" width="32" height="32" viewBox="0 0 32 32">
<title>download</title>
<path d="M17.714 24.612l1.654-1.765c0.187-0.2 0.452-0.325 0.746-0.325 0.275 0 0.524 0.109 0.708 0.286l-0-0c0.198 0.191 0.321 0.459 0.321 0.755 0 0.277-0.107 0.529-0.283 0.716l0.001-0.001-3.131 3.343c-0.218 0.233-0.527 0.379-0.871 0.379-0.321 0-0.613-0.127-0.827-0.334l-3.483-3.349c-0.197-0.191-0.32-0.458-0.32-0.754 0-0.277 0.108-0.53 0.284-0.717l-0.001 0.001c0.187-0.2 0.452-0.324 0.746-0.324 0.275 0 0.525 0.109 0.709 0.287l1.691 1.627v-8.433c0-0.575 0.46-1.041 1.029-1.041s1.029 0.466 1.029 1.041v8.609zM16 4c3.954 0 7.335 2.787 8.339 6.65 2.985 0.051 5.376 2.589 5.376 5.694 0 3.137-2.44 5.695-5.469 5.695-0.568 0-1.029-0.466-1.029-1.041s0.46-1.041 1.029-1.041c1.876 0 3.411-1.61 3.411-3.614s-1.536-3.613-3.411-3.613c-0.188 0-0.374 0.016-0.556 0.048-0.566 0.098-1.103-0.292-1.19-0.867-0.51-3.345-3.262-5.829-6.5-5.829-2.373 0-4.53 1.335-5.701 3.467-0.178 0.321-0.514 0.535-0.901 0.535-0.024 0-0.047-0.001-0.071-0.002l0.003 0c-0.091-0.007-0.197-0.010-0.305-0.010-0.001 0-0.002 0-0.003 0h0c-2.576 0-4.68 2.205-4.68 4.943s2.104 4.943 4.68 4.943c0.568 0 1.029 0.466 1.029 1.041s-0.46 1.041-1.029 1.041c-3.729 0-6.737-3.153-6.737-7.024 0-3.803 2.902-6.913 6.54-7.022 1.585-2.463 4.25-3.992 7.175-3.992z"></path>
</svg>
