<!-- Generated by IcoMoon.io -->
<svg version="1.1" xmlns="http://www.w3.org/2000/svg" width="32" height="32" viewBox="0 0 32 32">
<title>favorites</title>
<path d="M14.95 6.105l0.251 0.254c0.226 0.226 0.493 0.486 0.799 0.781l0.348-0.338c0.275-0.267 0.509-0.499 0.703-0.698 1.332-1.372 3.193-2.223 5.253-2.223s3.921 0.851 5.251 2.221l0.002 0.002c2.874 2.936 2.902 7.679 0.081 10.648l-11.638 11.365-11.638-11.364c-2.82-2.97-2.794-7.713 0.081-10.649 1.332-1.372 3.193-2.223 5.253-2.223s3.921 0.851 5.251 2.221l0.002 0.002zM26.051 14.896c1.752-2.036 1.673-5.156-0.226-7.095-0.891-0.922-2.14-1.495-3.521-1.495s-2.63 0.573-3.52 1.493l-0.001 0.001-0.573 0.572c-0.046 0.045-0.1 0.098-0.154 0.152l-0.012 0.012-2.043 1.968-1.866-1.797-0.501-0.49-0.415-0.417c-0.892-0.922-2.14-1.495-3.522-1.495s-2.63 0.573-3.52 1.494l-0.001 0.001c-1.949 1.991-1.981 5.224-0.083 7.255l9.909 9.676 9.909-9.677 0.142-0.158z"></path>
</svg>
