<!-- Generated by IcoMoon.io -->
<svg version="1.1" xmlns="http://www.w3.org/2000/svg" width="32" height="32" viewBox="0 0 32 32">
<title>fingerprint</title>
<path d="M23.986 25.046c0 0.595-0.482 1.077-1.077 1.077s-1.077-0.482-1.077-1.077v0-4.523c0-3.331-2.701-6.031-6.033-6.031s-6.033 2.7-6.033 6.031v3.877c0 0.595-0.482 1.077-1.077 1.077s-1.077-0.482-1.077-1.077v0-3.877c0-4.52 3.666-8.185 8.188-8.185s8.187 3.664 8.187 8.185v4.523zM29.031 8.189c0.156 0.186 0.25 0.427 0.25 0.691 0 0.331-0.15 0.628-0.385 0.825l-0.002 0.001c-0.186 0.156-0.427 0.251-0.691 0.251-0.331 0-0.628-0.149-0.825-0.385l-0.001-0.002c-2.85-3.41-7.050-5.416-11.58-5.416-4.328 0-8.359 1.831-11.202 4.982-0.198 0.219-0.483 0.356-0.8 0.356-0.278 0-0.532-0.105-0.723-0.278l0.001 0.001c-0.219-0.198-0.355-0.483-0.355-0.799 0-0.278 0.105-0.531 0.278-0.722l-0.001 0.001c3.248-3.599 7.858-5.693 12.802-5.693 5.176 0 9.979 2.295 13.234 6.189zM28.51 19.877c0 0.595-0.482 1.077-1.077 1.077s-1.077-0.482-1.077-1.077v0c0-4.382-2.697-8.261-6.711-9.832-0.404-0.161-0.684-0.549-0.684-1.003 0-0.595 0.482-1.077 1.077-1.077 0.141 0 0.276 0.027 0.4 0.077l-0.007-0.003c4.834 1.891 8.080 6.561 8.080 11.837zM15.798 7.169c0.595 0 1.077 0.482 1.077 1.077s-0.482 1.077-1.077 1.077v0c-5.831 0-10.558 4.725-10.558 10.554 0 0.595-0.482 1.077-1.077 1.077s-1.077-0.482-1.077-1.077v0c0-7.018 5.691-12.708 12.712-12.708zM15.798 19.662c-0 0-0 0-0 0-0.47 0-0.851 0.376-0.861 0.843v0.001l0.006 0.173c0.023 0.608 0.038 1.337 0.040 2.068l0 0.013c0 0.669-0.015 1.228-0.051 1.651-0.12 1.409-0.508 2.639-1.081 3.685-0.245 0.448-0.508 0.834-0.804 1.193l0.010-0.013c-0.174 0.21-0.319 0.359-0.419 0.449-0.19 0.171-0.443 0.275-0.72 0.275-0.318 0-0.604-0.138-0.801-0.357l-0.001-0.001c-0.171-0.19-0.275-0.442-0.275-0.719 0-0.318 0.138-0.603 0.356-0.8l0.001-0.001c-0.002 0.002 0.009-0.008 0.032-0.032 0.048-0.049 0.104-0.112 0.167-0.187 0.203-0.246 0.389-0.521 0.55-0.813l0.014-0.028c0.433-0.79 0.729-1.732 0.823-2.834 0.030-0.349 0.044-0.854 0.043-1.467-0.001-0.709-0.015-1.411-0.043-2.11l0.003 0.105-0.007-0.188-0.001-0.045c0-1.666 1.35-3.015 3.016-3.015 0 0 0 0 0 0 1.665 0 3.016 1.35 3.016 3.015v5.756c0 0.595-0.482 1.077-1.077 1.077s-1.077-0.482-1.077-1.077v0-5.756c0-0.476-0.386-0.862-0.862-0.862v0z"></path>
</svg>
