<!-- Generated by IcoMoon.io -->
<svg version="1.1" xmlns="http://www.w3.org/2000/svg" width="32" height="32" viewBox="0 0 32 32">
<title>img</title>
<path d="M4.973 21.574l5.248-5.127 6.007 7.491c0.149 0.204 0.388 0.335 0.658 0.335 0.449 0 0.812-0.364 0.812-0.812 0-0.206-0.077-0.395-0.203-0.538l0.001 0.001-1.254-1.565 3.838-3.217 6.987 8.308c-0.328 0.551-0.916 0.916-1.591 0.925h-18.949c-1.050 0-1.901-0.851-1.901-1.901v0-3.708c0.136-0.035 0.253-0.101 0.348-0.191l-0 0zM28.187 14.392c0.449 0 0.812-0.364 0.812-0.812v0-7.054c-0.001-1.946-1.578-3.524-3.524-3.526h-18.948c-1.948 0.001-3.526 1.58-3.526 3.528v0 18.946c0 1.947 1.579 3.526 3.526 3.526h18.946c1.947 0 3.526-1.579 3.526-3.526v0-7.020c0-0.449-0.364-0.812-0.812-0.812s-0.812 0.364-0.812 0.812v0 5.833l-6.573-7.812c-0.032-0.039-0.078-0.060-0.114-0.091-0.047-0.037-0.089-0.083-0.14-0.109-0.005-0.003-0.011-0.003-0.016-0.005-0.104-0.053-0.227-0.085-0.357-0.085-0.198 0-0.38 0.073-0.519 0.193l0.001-0.001-4.431 3.715-4.296-5.362c-0.010-0.010-0.023-0.013-0.031-0.024-0.010-0.010-0.013-0.024-0.023-0.034-0.031-0.032-0.070-0.046-0.102-0.070-0.044-0.032-0.081-0.067-0.13-0.088-0.049-0.024-0.098-0.034-0.151-0.049-0.049-0.011-0.096-0.026-0.146-0.029-0.055-0.003-0.106 0.007-0.159 0.013-0.049 0.007-0.098 0.010-0.146 0.026-0.054 0.016-0.101 0.049-0.149 0.078-0.032 0.020-0.073 0.028-0.104 0.054-0.011 0.008-0.015 0.021-0.024 0.029-0.011 0.010-0.026 0.013-0.036 0.023l-5.101 4.985v-13.118c0-1.050 0.851-1.901 1.901-1.901v0h18.946c1.046 0 1.901 0.855 1.901 1.901v7.054c0 0.449 0.364 0.812 0.812 0.812v0z"></path>
<path d="M23.328 9.552c-0.467-0-0.846-0.379-0.846-0.847s0.379-0.847 0.847-0.847c0 0 0.001 0 0.001 0h-0c0.468 0 0.847 0.379 0.847 0.847s-0.379 0.847-0.847 0.847v0zM23.33 6.234c-1.365 0-2.471 1.11-2.471 2.471 0 1.365 1.108 2.471 2.47 2.471 1.363 0 2.473-1.108 2.473-2.47 0-1.363-1.11-2.473-2.471-2.473z"></path>
</svg>
