<!-- Generated by IcoMoon.io -->
<svg version="1.1" xmlns="http://www.w3.org/2000/svg" width="32" height="32" viewBox="0 0 32 32">
<title>link</title>
<path d="M20.007 12.645c1.199 1.199 1.94 2.855 1.94 4.685s-0.741 3.486-1.94 4.685l-5.895 5.895c-1.284 1.291-3.061 2.090-5.026 2.090-3.914 0-7.087-3.173-7.087-7.087 0-1.964 0.799-3.742 2.090-5.025l2.903-2.904 1.964 1.964-2.904 2.904c-0.8 0.783-1.297 1.874-1.297 3.082 0 2.381 1.93 4.31 4.31 4.31 1.207 0 2.298-0.496 3.081-1.296l0.001-0.001 5.895-5.895c0.696-0.697 1.127-1.659 1.127-2.721s-0.431-2.025-1.127-2.722v0zM27.924 4.075c1.282 1.282 2.076 3.054 2.076 5.011s-0.793 3.729-2.076 5.011l-2.902 2.904-1.964-1.963 2.904-2.904c0.8-0.783 1.297-1.874 1.297-3.082 0-2.381-1.93-4.31-4.31-4.31-1.207 0-2.298 0.496-3.081 1.296l-0.001 0.001-5.895 5.895c-0.696 0.697-1.127 1.659-1.127 2.721s0.431 2.025 1.127 2.722v0l-1.964 1.964c-1.199-1.199-1.94-2.855-1.94-4.685s0.741-3.486 1.94-4.685l5.895-5.895c1.282-1.282 3.054-2.076 5.011-2.076s3.729 0.793 5.011 2.076v0z"></path>
</svg>
