<!-- Generated by IcoMoon.io -->
<svg version="1.1" xmlns="http://www.w3.org/2000/svg" width="32" height="32" viewBox="0 0 32 32">
<title>menu</title>
<path d="M15.125 16.875v10.5c0 1.45-1.175 2.625-2.625 2.625v0h-7.875c-1.45 0-2.625-1.175-2.625-2.625v0-7.875c0-1.45 1.175-2.625 2.625-2.625v0h10.5zM27.375 16.875c1.45 0 2.625 1.175 2.625 2.625v0 7.875c0 1.45-1.175 2.625-2.625 2.625v0h-7.875c-1.45 0-2.625-1.175-2.625-2.625v0-10.5h10.5zM12.5 19.5h-7.875v7.875h7.875v-7.875zM27.375 19.5h-7.875v7.875h7.875v-7.875zM12.5 2c1.45 0 2.625 1.175 2.625 2.625v0 10.5h-10.5c-1.45 0-2.625-1.175-2.625-2.625v0-7.875c0-1.45 1.175-2.625 2.625-2.625v0h7.875zM23.438 2c3.624 0 6.563 2.938 6.563 6.563s-2.938 6.563-6.563 6.563v0c-3.624 0-6.563-2.938-6.563-6.563s2.938-6.563 6.563-6.563v0zM12.5 4.625h-7.875v7.875h7.875v-7.875zM23.438 4.625c-2.175 0-3.938 1.763-3.938 3.938s1.763 3.938 3.938 3.938v0c2.175 0 3.938-1.763 3.938-3.938s-1.763-3.938-3.938-3.938v0z"></path>
</svg>
