<!-- Generated by IcoMoon.io -->
<svg version="1.1" xmlns="http://www.w3.org/2000/svg" width="32" height="32" viewBox="0 0 32 32">
<title>more</title>
<path d="M7.334 14.001c1.104 0 1.999 0.895 1.999 1.999s-0.895 1.999-1.999 1.999v0c-1.104 0-1.999-0.895-1.999-1.999s0.895-1.999 1.999-1.999v0zM16 14.001c1.104 0 1.999 0.895 1.999 1.999s-0.895 1.999-1.999 1.999v0c-1.104 0-1.999-0.895-1.999-1.999s0.895-1.999 1.999-1.999v0zM24.666 14.001c1.104 0 1.999 0.895 1.999 1.999s-0.895 1.999-1.999 1.999v0c-1.104 0-1.999-0.895-1.999-1.999s0.895-1.999 1.999-1.999v0z"></path>
</svg>
