<!-- Generated by IcoMoon.io -->
<svg version="1.1" xmlns="http://www.w3.org/2000/svg" width="32" height="32" viewBox="0 0 32 32">
<title>organize</title>
<path d="M24.215 26.041h3.651v-3.651h-3.651v3.651zM14.174 26.041h3.651v-3.651h-3.651v3.651zM13.566 20.564h4.868c0.672 0 1.217 0.545 1.217 1.217v4.868c0 0.672-0.545 1.217-1.217 1.217h-4.868c-0.672 0-1.217-0.545-1.217-1.217v-4.868c0-0.672 0.545-1.217 1.217-1.217zM4.133 26.041h3.651v-3.651h-3.651v3.651zM14.174 9.61h3.651v-3.651h-3.651v3.651zM15.087 15.087v-3.651h-1.521c-0.672 0-1.217-0.545-1.217-1.217v-4.868c0-0.672 0.545-1.217 1.217-1.217h4.868c0.672 0 1.217 0.545 1.217 1.217v4.868c0 0.672-0.545 1.217-1.217 1.217h-1.521v3.651h9.128c0.504 0 0.913 0.409 0.913 0.913v4.564h1.521c0.672 0 1.217 0.545 1.217 1.217v4.868c0 0.672-0.545 1.217-1.217 1.217h-4.868c-0.672 0-1.217-0.545-1.217-1.217v-4.868c0-0.672 0.545-1.217 1.217-1.217h1.521v-3.651h-18.256v3.651h1.521c0.672 0 1.217 0.545 1.217 1.217v4.868c0 0.672-0.545 1.217-1.217 1.217h-4.868c-0.672 0-1.217-0.545-1.217-1.217v-4.868c0-0.672 0.545-1.217 1.217-1.217h1.521v-4.564c0-0.504 0.409-0.913 0.913-0.913h9.128z"></path>
</svg>
