<!-- Generated by IcoMoon.io -->
<svg version="1.1" xmlns="http://www.w3.org/2000/svg" width="32" height="32" viewBox="0 0 32 32">
<title>passwd</title>
<path d="M27.203 12.612c-0.942-0.903-2.194-1.402-3.527-1.402h-15.347c-1.333 0-2.584 0.498-3.523 1.4-0.947 0.901-1.468 2.105-1.468 3.389v9.211c0 1.283 0.521 2.487 1.463 3.387 0.938 0.903 2.195 1.404 3.527 1.404h15.347c1.334 0 2.59-0.5 3.527-1.404 0.942-0.903 1.459-2.105 1.459-3.387v-9.211c-0-1.281-0.517-2.483-1.459-3.387zM26.364 25.21c0 0.692-0.278 1.34-0.786 1.826-0.506 0.491-1.184 0.758-1.903 0.758h-15.347c-0.718 0-1.396-0.268-1.907-0.76-0.507-0.485-0.785-1.132-0.785-1.824v-9.211c0-0.69 0.278-1.34 0.789-1.826 0.507-0.487 1.184-0.756 1.903-0.756h15.347c0.718 0 1.397 0.269 1.903 0.756 0.508 0.487 0.786 1.136 0.786 1.826v9.211zM16.002 4.206c3.599 0 6.525 2.811 6.525 6.266h2.297c0-4.67-3.958-8.472-8.822-8.472-4.865 0-8.823 3.802-8.823 8.472h2.297c-0-3.455 2.926-6.266 6.526-6.266zM14.854 23.368h2.297v-3.685h-2.297v3.685z"></path>
</svg>
