<!-- Generated by IcoMoon.io -->
<svg version="1.1" xmlns="http://www.w3.org/2000/svg" width="32" height="32" viewBox="0 0 32 32">
<title>search</title>
<path d="M13.936 2c6.343 0 11.485 5.142 11.485 11.485 0 2.818-1.016 5.401-2.701 7.4l6.828 7.049-2.002 2.066-6.941-7.164c-1.846 1.335-4.156 2.134-6.652 2.134-0.006 0-0.013 0-0.019 0h0.001c-6.343 0-11.485-5.142-11.485-11.485s5.142-11.485 11.485-11.485zM13.936 4.65c-4.879 0-8.835 3.955-8.835 8.835s3.955 8.835 8.835 8.835 8.835-3.955 8.835-8.835-3.955-8.835-8.835-8.835z"></path>
</svg>
