<!-- Generated by IcoMoon.io -->
<svg version="1.1" xmlns="http://www.w3.org/2000/svg" width="32" height="32" viewBox="0 0 32 32">
<title>store</title>
<path d="M24.348 26.294v-7.521c0.584 0.25 1.263 0.396 1.976 0.396 0.141 0 0.28-0.006 0.418-0.017l-0.018 0.001v7.141c0 1.312-1.064 2.375-2.375 2.375v0h-7.126v-5.543h-2.375v5.543h-7.126c-1.312 0-2.375-1.064-2.375-2.375v0-7.264c0.357 0.088 0.766 0.139 1.188 0.139s0.831-0.050 1.223-0.146l-0.035 0.007v7.264h4.751v-5.543h7.126v5.543h4.751v-7.521zM23.568 3.331c0.863 0 1.619 0.461 2.035 1.149l0.006 0.011 3.777 6.341-0.010-0.001c0.28 0.54 0.444 1.18 0.444 1.857 0 2.27-1.84 4.11-4.11 4.11-1.231 0-2.335-0.541-3.088-1.398l-0.004-0.005c-0.816 0.865-1.97 1.404-3.251 1.404-0.002 0-0.005 0-0.007 0h0c-0.001 0-0.003 0-0.005 0-1.335 0-2.534-0.585-3.353-1.513l-0.004-0.005c-0.823 0.933-2.022 1.518-3.357 1.518-0.001 0-0.003 0-0.004 0h0c-0.001 0-0.003 0-0.005 0-1.281 0-2.436-0.539-3.251-1.402l-0.002-0.002c-0.757 0.858-1.859 1.397-3.087 1.397-2.27 0-4.11-1.84-4.11-4.11 0-0.838 0.251-1.617 0.682-2.267l-0.010 0.015 3.176-5.856c0.41-0.746 1.191-1.243 2.088-1.243h15.45zM23.568 5.706h-15.45l-3.226 5.947-0.055 0.086c-0.176 0.267-0.28 0.594-0.28 0.945 0 0.958 0.776 1.734 1.734 1.734 0.517 0 0.981-0.226 1.299-0.585l0.002-0.002 1.719-1.966 1.795 1.898c0.397 0.42 0.942 0.66 1.531 0.66 0.614 0 1.181-0.261 1.58-0.714l1.782-2.018 1.781 2.018c0.399 0.453 0.966 0.714 1.58 0.714 0.589 0 1.134-0.24 1.53-0.659l1.793-1.9 1.721 1.966c0.319 0.364 0.785 0.592 1.305 0.592 0.958 0 1.734-0.776 1.734-1.734 0-0.285-0.069-0.554-0.19-0.791l0.005 0.010-0.027-0.053-3.662-6.148z"></path>
</svg>
