<!-- Generated by IcoMoon.io -->
<svg version="1.1" xmlns="http://www.w3.org/2000/svg" width="32" height="32" viewBox="0 0 32 32">
<title>trust</title>
<path d="M17.503 27.012c-0.385 0.385-0.916 0.623-1.503 0.623s-1.119-0.238-1.503-0.623l-11.527-11.528c-0.385-0.385-0.623-0.916-0.623-1.503s0.238-1.119 0.623-1.503l7.49-7.49c0.385-0.385 0.916-0.623 1.503-0.623s1.119 0.238 1.503 0.623l2.533 2.534 2.535-2.534c0.385-0.385 0.916-0.623 1.503-0.623s1.119 0.238 1.503 0.623l7.49 7.492c0.385 0.385 0.623 0.916 0.623 1.503s-0.238 1.119-0.623 1.503l-11.528 11.527zM11.963 6.492l-7.489 7.489 11.527 11.527 0.699-0.699-2.533-2.534 1.503-1.503 2.534 2.534 0.79-0.79-2.534-2.534 1.504-1.504 2.533 2.534 0.919-0.919-2.533-2.534 1.503-1.503 2.534 2.534 0.571-0.571-3.341-3.341-0.111 0.111c-0.723 0.723-1.722 1.17-2.826 1.17s-2.103-0.447-2.826-1.17l-1.323-1.323c-0.385-0.385-0.623-0.916-0.623-1.503s0.238-1.119 0.623-1.503l1.433-1.435-2.533-2.533zM20.037 6.492l-5.472 5.471 1.323 1.323c0.338 0.339 0.806 0.548 1.323 0.548s0.983-0.209 1.321-0.547l-0 0 0.112-0.113 1.795-1.797 4.846 4.846 2.241-2.241-7.489-7.489z"></path>
</svg>
