<!-- Generated by IcoMoon.io -->
<svg version="1.1" xmlns="http://www.w3.org/2000/svg" width="32" height="32" viewBox="0 0 32 32">
<title>upload</title>
<path d="M15.844 16.095c0.099-0.14 0.232-0.255 0.387-0.332 0.179-0.111 0.395-0.177 0.628-0.177 0.343 0 0.652 0.144 0.871 0.374l3.132 3.305c0.167 0.182 0.27 0.427 0.27 0.695 0 0.568-0.46 1.029-1.029 1.029-0.288 0-0.547-0.118-0.734-0.308l-0-0-1.654-1.744v8.036c0 0.568-0.46 1.029-1.029 1.029s-1.029-0.46-1.029-1.029v0-7.861l-1.691 1.608c-0.184 0.175-0.434 0.283-0.709 0.283-0.568 0-1.029-0.461-1.029-1.029 0-0.293 0.123-0.558 0.32-0.745l0-0 3.295-3.132zM16 4c3.954 0 7.335 2.755 8.339 6.572 2.985 0.051 5.376 2.559 5.376 5.628 0 3.101-2.44 5.629-5.469 5.629-0.568 0-1.029-0.46-1.029-1.029s0.46-1.029 1.029-1.029v0c1.876 0 3.411-1.591 3.411-3.572s-1.536-3.571-3.411-3.571c-0.188 0-0.374 0.016-0.556 0.047-0.052 0.009-0.112 0.015-0.173 0.015-0.513 0-0.938-0.375-1.016-0.866l-0.001-0.006c-0.51-3.307-3.262-5.761-6.5-5.761-2.373 0-4.53 1.32-5.701 3.427-0.179 0.318-0.514 0.529-0.899 0.529-0.024 0-0.049-0.001-0.073-0.002l0.003 0c-0.102-0.007-0.204-0.010-0.308-0.010-2.576 0-4.68 2.18-4.68 4.886s2.104 4.886 4.68 4.886c0.568 0 1.029 0.46 1.029 1.029s-0.46 1.029-1.029 1.029v0c-3.729 0-6.737-3.117-6.737-6.943 0-3.759 2.902-6.832 6.54-6.94 1.585-2.434 4.25-3.946 7.175-3.946z"></path>
</svg>
