<!-- Generated by IcoMoon.io -->
<svg version="1.1" xmlns="http://www.w3.org/2000/svg" width="32" height="32" viewBox="0 0 32 32">
<title>user</title>
<path d="M28.188 24.85c-0.665-1.576-1.622-2.99-2.835-4.204s-2.628-2.167-4.204-2.835c-0.014-0.007-0.028-0.011-0.042-0.018 2.191-1.583 3.616-4.161 3.616-7.070 0-4.819-3.904-8.724-8.724-8.724s-8.724 3.905-8.724 8.724c0 2.909 1.425 5.487 3.616 7.074-0.014 0.007-0.028 0.011-0.042 0.018-1.576 0.665-2.99 1.618-4.204 2.835-1.214 1.214-2.167 2.628-2.835 4.204-0.654 1.541-1.003 3.176-1.038 4.858-0.004 0.158 0.123 0.288 0.281 0.288h2.111c0.155 0 0.278-0.123 0.281-0.274 0.070-2.716 1.161-5.259 3.088-7.186 1.994-1.994 4.643-3.092 7.464-3.092s5.47 1.097 7.464 3.092c1.928 1.928 3.018 4.471 3.088 7.186 0.004 0.155 0.127 0.274 0.281 0.274h2.111c0.158 0 0.285-0.13 0.281-0.288-0.035-1.681-0.383-3.317-1.038-4.861zM16 16.774c-1.615 0-3.134-0.63-4.277-1.773s-1.773-2.663-1.773-4.277 0.63-3.134 1.773-4.277 2.663-1.773 4.277-1.773 3.134 0.63 4.277 1.773 1.773 2.663 1.773 4.277-0.63 3.134-1.773 4.277-2.663 1.773-4.277 1.773z"></path>
</svg>
