<!-- Generated by IcoMoon.io -->
<svg version="1.1" xmlns="http://www.w3.org/2000/svg" width="32" height="32" viewBox="0 0 32 32">
<title>vip</title>
<path d="M17.358 5.771c0.1 0.083 0.189 0.173 0.27 0.269l0.003 0.003 4.028 4.834 4.443-3.281c0.348-0.259 0.786-0.415 1.261-0.415 1.172 0 2.122 0.95 2.122 2.122 0 0.183-0.023 0.36-0.066 0.529l0.003-0.015-4.226 16.904h-18.39l-4.226-16.903c-0.040-0.155-0.063-0.332-0.063-0.515 0-1.172 0.95-2.122 2.122-2.122 0.475 0 0.913 0.156 1.267 0.419l-0.006-0.004 4.443 3.281 4.028-4.834c0.392-0.468 0.977-0.764 1.631-0.764 0.518 0 0.993 0.186 1.362 0.495l-0.003-0.003zM16 7.402l-5.309 6.371-6.053-4.47 3.824 15.296h15.077l3.824-15.296-6.053 4.47-5.309-6.371zM20.951 20.685v2.263h-9.902v-2.263h9.902z"></path>
</svg>
