<!-- Generated by IcoMoon.io -->
<svg version="1.1" xmlns="http://www.w3.org/2000/svg" width="32" height="32" viewBox="0 0 32 32">
<title>wallet</title>
<path d="M29.862 26.308c0 1.469-1.191 2.659-2.659 2.659v0h-22.405c-1.469 0-2.659-1.191-2.659-2.659v0-18.843c0-2.448 1.984-4.432 4.432-4.432v0h15.267c1.469 0 2.659 1.191 2.659 2.659v0l-0.001 1.812h2.707c1.469 0 2.659 1.191 2.659 2.659v0 16.145zM27.203 10.163h-22.405v16.145h22.405l-0.001-4.495h-9.86v-7.154l9.86-0.001v-4.494zM27.203 17.318h-7.202v1.836h7.202v-1.835zM21.837 5.692h-15.267c-0.979 0-1.773 0.794-1.773 1.773v0l-0.001 0.039h17.040v-1.812z"></path>
</svg>
