<svg xmlns="http://www.w3.org/2000/svg" width="322.559" height="87.012" viewBox="0 0 322.559 87.012">
  <g id="组_1084" data-name="组 1084" transform="translate(-29.344 -255)">
    <circle id="椭圆_26" data-name="椭圆 26" cx="11" cy="11" r="11" transform="translate(105 264)" fill="#9ff048" opacity="0.4"/>
    <circle id="椭圆_29" data-name="椭圆 29" cx="18" cy="18" r="18" transform="translate(217 303)" fill="#9ff048" opacity="0.4"/>
    <circle id="椭圆_30" data-name="椭圆 30" cx="7" cy="7" r="7" transform="translate(122 325)" fill="#f3af0c" opacity="0.4"/>
    <circle id="椭圆_28" data-name="椭圆 28" cx="7.5" cy="7.5" r="7.5" transform="translate(160 276)" fill="#17913a" opacity="0.4"/>
    <circle id="椭圆_31" data-name="椭圆 31" cx="10" cy="10" r="10" transform="translate(264 303)" fill="#e8570a" opacity="0.4"/>
    <circle id="椭圆_27" data-name="椭圆 27" cx="7" cy="7" r="7" transform="translate(129 255)" fill="#e8570a" opacity="0.4"/>
    <g id="组_1082" data-name="组 1082" transform="translate(0 10)">
      <path id="路径_347" data-name="路径 347" d="M465.415,1051.029s97.638,53.578,162.22,13.936S785.9,1043.084,785.9,1043.084" transform="translate(-378.659 -801.292) rotate(3)" fill="none" stroke="#9ff048" stroke-width="1"/>
      <path id="路径_348" data-name="路径 348" d="M470.9,1066.495s72.315,26.258,116.332,0,64.794-25.45,101.419-16.783,82.13,0,82.13,0" transform="translate(-378.816 -798.296) rotate(3)" fill="none" stroke="#6fb737" stroke-width="1"/>
      <path id="路径_349" data-name="路径 349" d="M483.387,1097.086s33.608-44.953,76.479-48.9,64.582,35.69,102.524,30.974,79.113-30.974,79.113-30.974" transform="translate(-435 -767)" fill="none" stroke="#c9d41e" stroke-width="1"/>
      <path id="路径_350" data-name="路径 350" d="M511.3,1033.439s14.786,58.549,47.8,56.849,46.44-47.035,103.841-56.849,99.167,44.953,99.167,44.953" transform="translate(-435 -767)" fill="none" stroke="#17913a" stroke-width="1"/>
      <path id="路径_351" data-name="路径 351" d="M529.615,1027.193s-19.247,85.953,51.751,69.128,65.517-56.3,116.885-69.128,73.462,0,73.462,0" transform="translate(-435 -767)" fill="none" stroke="#f3af0c" stroke-width="1"/>
      <path id="路径_352" data-name="路径 352" d="M507.351,1097.086s13.214-24.346,62.882-39.259,80.812,27.745,131.8,27.362,66.494-18.312,66.494-18.312" transform="translate(-435 -767)" fill="none" stroke="#e8570a" stroke-width="1"/>
    </g>
  </g>
</svg>
