<!-- Generated by IcoMoon.io -->
<svg version="1.1" xmlns="http://www.w3.org/2000/svg" width="32" height="32" viewBox="0 0 32 32">
<title>cart</title>
<path d="M12.436 10.978l-0.487-4.558h6.598l-0.487 4.558z"></path>
<path d="M24.019 15.992h-5.627l0.453-4.245h6.134z"></path>
<path d="M13.516 21.083l-0.461-4.315h4.387l-0.462 4.315z"></path>
<path d="M12.518 11.747h5.458l-0.454 4.242h-4.55z"></path>
<path d="M18.928 10.979l0.487-4.558h5.519c0 0 0 0 0.001 0 0.549 0 0.998 0.429 1.031 0.97l0 0.003-0.812 3.586z"></path>
<path d="M23.842 16.768l-0.757 3.341c-0.031 0.545-0.481 0.976-1.032 0.976h-4.207l0.461-4.315z"></path>
<path d="M7.408 20.109l-0.757-3.341h5.533l0.461 4.315h-4.202c-0.001 0-0.002 0-0.004 0-0.549 0-0.997-0.428-1.031-0.968l-0-0.003z"></path>
<path d="M6.479 15.992l-0.961-4.245h6.135l0.454 4.242z"></path>
<path d="M4.528 7.39c0.032-0.545 0.482-0.974 1.032-0.974 0.001 0 0.002 0 0.003 0h5.517l0.487 4.558h-6.227z"></path>
<path d="M22.338 25.772c0 1.088-0.882 1.97-1.97 1.97s-1.97-0.882-1.97-1.97c0-1.088 0.882-1.97 1.97-1.97v0 0c1.088 0 1.97 0.882 1.97 1.97v0z"></path>
<path d="M13.309 25.772c0 1.088-0.882 1.97-1.97 1.97s-1.97-0.882-1.97-1.97c0-1.088 0.882-1.97 1.97-1.97v0 0c1.088 0 1.97 0.882 1.97 1.97v0 0z"></path>
<path d="M5.738 22.355h17.198c0.019 0 1.872 0.136 2.295-1.373 0.749-2.667 3.963-13.729 3.996-13.848 0.073-0.241 0.293-0.413 0.553-0.413h1.116c0.319 0 0.577 0.258 0.577 0.577s-0.259 0.577-0.577 0.577h-0.682c-0.594 2.050-3.206 11.055-3.871 13.422-0.276 0.987-1.036 1.749-2 2.025l-0.020 0.005h-0.020c-0.369 0.115-0.793 0.182-1.233 0.182-0.004 0-0.008 0-0.013-0h-17.315c-0.319 0-0.577-0.259-0.577-0.577s0.258-0.577 0.577-0.577v0z"></path>
</svg>
