<!-- Generated by IcoMoon.io -->
<svg version="1.1" xmlns="http://www.w3.org/2000/svg" width="32" height="32" viewBox="0 0 32 32">
<title>home</title>
<path d="M30.017 13.14l-11.866-11.062c-0.696-0.67-1.467-1.076-2.384-1.078-0.906 0-1.722 0.417-2.345 1.035l-11.43 11.098c-0.57 0.583-0.734 1.444-0.418 2.197s1.047 1.237 1.862 1.237h1.582v11.258c0 1.751 1.424 3.175 3.175 3.175l5.485-0.004-0-9.186h4.595l-0.007 9.186 5.516 0.004c1.751 0 3.175-1.424 3.175-3.175v-11.258h1.609c0.813 0 1.543-0.484 1.861-1.232s0.157-1.61-0.409-2.194zM28.83 14.659c-0.045 0.107-0.149 0.176-0.843 0.176h-2.764v12.99c0 0.796-0.647 1.443-1.443 1.443h-3.777v-7.751c0-0.793-0.586-1.439-1.306-1.439h-5.446c-0.72 0-1.307 0.645-1.307 1.439v7.751h-3.752c-0.796 0-1.443-0.647-1.443-1.443v-12.99h-3.314c-0.116 0-0.22-0.069-0.265-0.176s-0.022-0.231 0.059-0.314l11.459-11.128c0.262-0.262 0.666-0.464 1.082-0.464 0.412 0.001 0.806 0.159 1.107 0.5l11.895 11.093c0.081 0.083 0.104 0.206 0.058 0.313z"></path>
</svg>
