<!-- Generated by IcoMoon.io -->
<svg version="1.1" xmlns="http://www.w3.org/2000/svg" width="30" height="32" viewBox="0 0 30 32">
<title>me</title>
<path d="M14.844 17.004c-0.005 0-0.011 0-0.016 0-4.419 0-8.001-3.582-8.001-8.001s3.582-8.001 8.001-8.001c4.419 0 8.001 3.582 8.001 8.001v0c0 0.002 0 0.005 0 0.008 0 4.411-3.574 7.988-7.984 7.993h-0zM14.844 15.003c0.003 0 0.007 0 0.011 0 3.313 0 5.999-2.686 5.999-5.999s-2.686-5.999-5.999-5.999c-3.313 0-5.999 2.686-5.999 5.999v0c0 0 0 0.001 0 0.002 0 3.309 2.68 5.993 5.988 5.999h0.001z"></path>
<path d="M14.859 30.998c-9.707 0-13.931-1.102-13.931-5.375 0-4.968 6.887-10.625 13.931-10.625s13.931 5.657 13.931 10.625c0.001 4.274-4.223 5.375-13.931 5.375zM14.859 28.997c8.422 0 11.94-0.918 11.94-3.376 0-3.766-5.916-8.625-11.94-8.625s-11.94 4.86-11.94 8.625c0 2.459 3.52 3.377 11.94 3.377z"></path>
</svg>
