<!-- Generated by IcoMoon.io -->
<svg version="1.1" xmlns="http://www.w3.org/2000/svg" width="32" height="32" viewBox="0 0 32 32">
<title>passwd</title>
<path d="M26 12.5h-0.875v-1.75c0-4.832-3.918-8.75-8.75-8.75s-8.75 3.918-8.75 8.75v0 0 1.75h-0.875c-0.966 0.001-1.749 0.784-1.75 1.75v14c0.001 0.966 0.784 1.749 1.75 1.75h19.25c0.966-0.001 1.749-0.784 1.75-1.75v-14c-0.001-0.966-0.784-1.749-1.75-1.75h-0zM9.375 10.75c0-3.866 3.134-7 7-7s7 3.134 7 7v0 0 1.75h-14zM26 28.25h-19.25v-14h19.25z"></path>
<path d="M16.375 17.75v0c-0.483 0-0.874 0.391-0.874 0.874v0 5.25c0 0.483 0.392 0.875 0.875 0.875s0.875-0.392 0.875-0.875v0 0-5.25c-0.001-0.482-0.392-0.873-0.874-0.873-0.001 0-0.001 0-0.002 0h0z"></path>
</svg>
