<!-- Generated by IcoMoon.io -->
<svg version="1.1" xmlns="http://www.w3.org/2000/svg" width="32" height="32" viewBox="0 0 32 32">
<title>tel</title>
<path d="M16.214 24.457c-0.788 0-1.427 0.639-1.427 1.427s0.639 1.427 1.427 1.427c0.788 0 1.427-0.639 1.427-1.427v0 0c-0.001-0.788-0.639-1.426-1.427-1.427h-0zM23.273 2h-14.12c-1.189 0.001-2.152 0.964-2.153 2.153v23.693c0.001 1.189 0.964 2.153 2.153 2.154h14.118c1.189-0.001 2.152-0.964 2.153-2.153v-23.694c-0.001-1.189-0.964-2.152-2.153-2.153h-0zM9.153 3.439h14.118c0.396 0.001 0.717 0.322 0.718 0.718v17.743h-15.554v-17.747c0.003-0.394 0.323-0.713 0.718-0.714h0zM23.271 28.564h-14.118c-0.396-0.001-0.717-0.322-0.718-0.718v-4.383h15.554v4.383c-0.001 0.396-0.322 0.717-0.718 0.718h-0z"></path>
</svg>
