<!-- Generated by IcoMoon.io -->
<svg version="1.1" xmlns="http://www.w3.org/2000/svg" width="32" height="32" viewBox="0 0 32 32">
<title>vcode</title>
<path d="M26.002 1.997h-20.004c-2.21 0-4.001 1.791-4.001 4.001v0 13.965c0.003 2.208 1.792 3.998 4.001 4.001h4.17c0.727 0 1.363 0.388 1.713 0.968l0.010 0.018 2.378 4.059c0.354 0.596 0.994 0.988 1.726 0.988 0.728 0 1.365-0.389 1.715-0.97l0.005-0.009v-0.009l2.385-4.054c0.354-0.594 0.993-0.986 1.723-0.986h4.178c2.205-0.002 3.992-1.79 3.992-3.995v0-13.985c-0.001-2.204-1.788-3.991-3.992-3.992h-0zM28.003 19.974c-0.005 1.101-0.898 1.992-2 1.992 0 0 0 0-0 0h-4.175c-0 0-0.001 0-0.002 0-1.453 0-2.724 0.776-3.422 1.936l-0.010 0.018-0.010 0.018-2.384 4.064-2.38-4.059c-0.708-1.188-1.985-1.971-3.444-1.972h-4.177c-1.106-0.004-2-0.901-2-2.007 0-0.001 0-0.003 0-0.004v0-13.962c0-1.105 0.896-2 2-2v0h20.004c0.002 0 0.004 0 0.006 0 1.1 0 1.993 0.891 1.994 1.991v0z"></path>
<path d="M19.008 8.981c-0.552 0-1 0.448-1 1v0 0 5.001l-4.208-5.599c-0.184-0.244-0.474-0.4-0.8-0.4-0.552 0-1 0.448-1 1v0 0 0 7.995c0 0.552 0.448 1 1 1s1-0.448 1-1v0 0-5.001l4.208 5.601c0.184 0.244 0.474 0.4 0.8 0.4 0.552 0 1-0.448 1-1v0-8.002c0-0.552-0.448-1-1-1v0 0z"></path>
</svg>
