<svg id="组_1080" data-name="组 1080" xmlns="http://www.w3.org/2000/svg" width="100" height="61.832" viewBox="0 0 100 61.832">
  <rect id="矩形_1297" data-name="矩形 1297" width="11.45" height="11.45" transform="translate(0 0)" fill="#e8570a"/>
  <rect id="矩形_1313" data-name="矩形 1313" width="11.45" height="11.45" transform="translate(0 25.191)" fill="#c9d41e"/>
  <rect id="矩形_1305" data-name="矩形 1305" width="11.45" height="10.687" transform="translate(0 12.977)" fill="#f3af0c"/>
  <rect id="矩形_1314" data-name="矩形 1314" width="11.45" height="10.687" transform="translate(0 38.168)" fill="#9ff048"/>
  <rect id="矩形_1329" data-name="矩形 1329" width="11.45" height="11.45" transform="translate(0 50.382)" fill="#6fb737"/>
  <rect id="矩形_1304" data-name="矩形 1304" width="11.45" height="11.45" transform="translate(50.382 0)" fill="#6fb737"/>
  <rect id="矩形_1319" data-name="矩形 1319" width="11.45" height="11.45" transform="translate(50.382 25.191)" fill="#6fb737"/>
  <rect id="矩形_1309" data-name="矩形 1309" width="11.45" height="10.687" transform="translate(50.382 12.977)" fill="#17913a"/>
  <rect id="矩形_1320" data-name="矩形 1320" width="11.45" height="10.687" transform="translate(50.382 38.168)" fill="#c9d41e"/>
  <rect id="矩形_1333" data-name="矩形 1333" width="11.45" height="11.45" transform="translate(50.382 50.382)" fill="#17913a"/>
  <rect id="矩形_1318" data-name="矩形 1318" width="11.45" height="10.687" transform="translate(25.191 38.168)" fill="#17913a"/>
  <rect id="矩形_1330" data-name="矩形 1330" width="11.45" height="11.45" transform="translate(25.191 50.382)" fill="#6fb737"/>
  <rect id="矩形_1302" data-name="矩形 1302" width="10.687" height="11.45" transform="translate(76.336 0)" fill="#17913a"/>
  <rect id="矩形_1325" data-name="矩形 1325" width="10.687" height="11.45" transform="translate(76.336 25.191)" fill="#17913a"/>
  <rect id="矩形_1311" data-name="矩形 1311" width="10.687" height="10.687" transform="translate(76.336 12.977)" fill="#17913a"/>
  <rect id="矩形_1326" data-name="矩形 1326" width="10.687" height="10.687" transform="translate(76.336 38.168)" fill="#17913a"/>
  <rect id="矩形_1335" data-name="矩形 1335" width="10.687" height="11.45" transform="translate(76.336 50.382)" fill="#17913a"/>
  <rect id="矩形_1298" data-name="矩形 1298" width="10.687" height="11.45" transform="translate(12.977 0)" fill="#f3af0c"/>
  <rect id="矩形_1315" data-name="矩形 1315" width="10.687" height="11.45" transform="translate(12.977 25.191)" fill="#9ff048"/>
  <rect id="矩形_1306" data-name="矩形 1306" width="10.687" height="10.687" transform="translate(12.977 12.977)" fill="#e8570a"/>
  <rect id="矩形_1316" data-name="矩形 1316" width="10.687" height="10.687" transform="translate(12.977 38.168)" fill="#c9d41e"/>
  <rect id="矩形_1331" data-name="矩形 1331" width="10.687" height="11.45" transform="translate(12.977 50.382)" fill="#17913a"/>
  <rect id="矩形_1324" data-name="矩形 1324" width="11.45" height="10.687" transform="translate(63.359 38.168)" fill="#17913a"/>
  <rect id="矩形_1334" data-name="矩形 1334" width="11.45" height="11.45" transform="translate(63.359 50.382)" fill="#17913a"/>
  <rect id="矩形_1299" data-name="矩形 1299" width="10.687" height="11.45" transform="translate(38.168 0)" fill="#17913a"/>
  <rect id="矩形_1321" data-name="矩形 1321" width="10.687" height="11.45" transform="translate(38.168 25.191)" fill="#c9d41e"/>
  <rect id="矩形_1308" data-name="矩形 1308" width="10.687" height="10.687" transform="translate(38.168 12.977)" fill="#6fb737"/>
  <rect id="矩形_1322" data-name="矩形 1322" width="10.687" height="10.687" transform="translate(38.168 38.168)" fill="#6fb737"/>
  <rect id="矩形_1332" data-name="矩形 1332" width="10.687" height="11.45" transform="translate(38.168 50.382)" fill="#17913a"/>
  <rect id="矩形_1301" data-name="矩形 1301" width="11.45" height="11.45" transform="translate(88.55 0)" fill="#17913a"/>
  <rect id="矩形_1327" data-name="矩形 1327" width="11.45" height="11.45" transform="translate(88.55 25.191)" fill="#17913a"/>
  <rect id="矩形_1312" data-name="矩形 1312" width="11.45" height="10.687" transform="translate(88.55 12.977)" fill="#17913a"/>
  <rect id="矩形_1328" data-name="矩形 1328" width="11.45" height="10.687" transform="translate(88.55 38.168)" fill="#17913a"/>
  <rect id="矩形_1336" data-name="矩形 1336" width="11.45" height="11.45" transform="translate(88.55 50.382)" fill="#17913a"/>
</svg>
