<svg xmlns="http://www.w3.org/2000/svg" width="71" height="44" viewBox="0 0 71 44">
  <g id="组_1080" data-name="组 1080" transform="translate(199 -843)">
    <rect id="矩形_1297" data-name="矩形 1297" width="8" height="8" transform="translate(-199 843)" fill="#e8570a"/>
    <rect id="矩形_1313" data-name="矩形 1313" width="8" height="8" transform="translate(-199 861)" fill="#c9d41e"/>
    <rect id="矩形_1305" data-name="矩形 1305" width="8" height="8" transform="translate(-199 852)" fill="#f3af0c"/>
    <rect id="矩形_1314" data-name="矩形 1314" width="8" height="8" transform="translate(-199 870)" fill="#9ff048"/>
    <rect id="矩形_1329" data-name="矩形 1329" width="8" height="8" transform="translate(-199 879)" fill="#6fb737"/>
    <rect id="矩形_1304" data-name="矩形 1304" width="8" height="8" transform="translate(-163 843)" fill="#6fb737"/>
    <rect id="矩形_1319" data-name="矩形 1319" width="8" height="8" transform="translate(-163 861)" fill="#6fb737"/>
    <rect id="矩形_1309" data-name="矩形 1309" width="8" height="8" transform="translate(-163 852)" fill="#17913a"/>
    <rect id="矩形_1320" data-name="矩形 1320" width="8" height="8" transform="translate(-163 870)" fill="#c9d41e"/>
    <rect id="矩形_1333" data-name="矩形 1333" width="8" height="8" transform="translate(-163 879)" fill="#17913a"/>
    <rect id="矩形_1318" data-name="矩形 1318" width="8" height="8" transform="translate(-181 870)" fill="#17913a"/>
    <rect id="矩形_1330" data-name="矩形 1330" width="8" height="8" transform="translate(-181 879)" fill="#6fb737"/>
    <rect id="矩形_1302" data-name="矩形 1302" width="8" height="8" transform="translate(-145 843)" fill="#17913a"/>
    <rect id="矩形_1325" data-name="矩形 1325" width="8" height="8" transform="translate(-145 861)" fill="#17913a"/>
    <rect id="矩形_1311" data-name="矩形 1311" width="8" height="8" transform="translate(-145 852)" fill="#17913a"/>
    <rect id="矩形_1326" data-name="矩形 1326" width="8" height="8" transform="translate(-145 870)" fill="#17913a"/>
    <rect id="矩形_1335" data-name="矩形 1335" width="8" height="8" transform="translate(-145 879)" fill="#17913a"/>
    <rect id="矩形_1298" data-name="矩形 1298" width="8" height="8" transform="translate(-190 843)" fill="#f3af0c"/>
    <rect id="矩形_1315" data-name="矩形 1315" width="8" height="8" transform="translate(-190 861)" fill="#9ff048"/>
    <rect id="矩形_1306" data-name="矩形 1306" width="8" height="8" transform="translate(-190 852)" fill="#e8570a"/>
    <rect id="矩形_1316" data-name="矩形 1316" width="8" height="8" transform="translate(-190 870)" fill="#c9d41e"/>
    <rect id="矩形_1331" data-name="矩形 1331" width="8" height="8" transform="translate(-190 879)" fill="#17913a"/>
    <rect id="矩形_1324" data-name="矩形 1324" width="8" height="8" transform="translate(-154 870)" fill="#17913a"/>
    <rect id="矩形_1334" data-name="矩形 1334" width="8" height="8" transform="translate(-154 879)" fill="#17913a"/>
    <rect id="矩形_1299" data-name="矩形 1299" width="8" height="8" transform="translate(-172 843)" fill="#17913a"/>
    <rect id="矩形_1321" data-name="矩形 1321" width="8" height="8" transform="translate(-172 861)" fill="#c9d41e"/>
    <rect id="矩形_1308" data-name="矩形 1308" width="8" height="8" transform="translate(-172 852)" fill="#6fb737"/>
    <rect id="矩形_1322" data-name="矩形 1322" width="8" height="8" transform="translate(-172 870)" fill="#6fb737"/>
    <rect id="矩形_1332" data-name="矩形 1332" width="8" height="8" transform="translate(-172 879)" fill="#17913a"/>
    <rect id="矩形_1301" data-name="矩形 1301" width="8" height="8" transform="translate(-136 843)" fill="#17913a"/>
    <rect id="矩形_1327" data-name="矩形 1327" width="8" height="8" transform="translate(-136 861)" fill="#17913a"/>
    <rect id="矩形_1312" data-name="矩形 1312" width="8" height="8" transform="translate(-136 852)" fill="#17913a"/>
    <rect id="矩形_1328" data-name="矩形 1328" width="8" height="8" transform="translate(-136 870)" fill="#17913a"/>
    <rect id="矩形_1336" data-name="矩形 1336" width="8" height="8" transform="translate(-136 879)" fill="#17913a"/>
  </g>
</svg>
