<svg xmlns="http://www.w3.org/2000/svg" width="22" height="17.923" viewBox="0 0 22 17.923"><path d="M14.891,100.334a6.86,6.86,0,0,1,.752.047c-.674-3.138-4.027-5.468-7.857-5.468C3.506,94.912,0,97.828,0,101.534a6.389,6.389,0,0,0,3.116,5.258l-.778,2.342L5.06,107.77a13.413,13.413,0,0,0,2.727.389c.245,0,.487-.011.726-.029a5.837,5.837,0,0,1-.241-1.633A6.379,6.379,0,0,1,14.891,100.334Zm-4.186-2.111a.973.973,0,1,1,0,1.946.989.989,0,1,1,0-1.946Zm-5.449,1.946a.99.99,0,1,1,0-1.946.973.973,0,0,1,0,1.946ZM22,106.4c0-3.113-3.116-5.65-6.615-5.65-3.706,0-6.622,2.538-6.622,5.65s2.918,5.65,6.622,5.65a9.765,9.765,0,0,0,2.336-.389l2.135,1.171-.586-1.947A5.907,5.907,0,0,0,22,106.4Zm-8.763-.975a.778.778,0,0,1,0-1.557.8.8,0,1,1,0,1.557Zm4.283,0a.778.778,0,0,1,0-1.557.8.8,0,1,1,0,1.557Z" transform="translate(0 -94.912)" fill="#21bb1d"/></svg>