<!-- Generated by IcoMoon.io -->
<svg version="1.1" xmlns="http://www.w3.org/2000/svg" width="32" height="32" viewBox="0 0 32 32">
<title>file_video</title>
<path d="M12.75 12.5l8.75 6.125-8.75 6.125z"></path>
<path d="M27.346 8.264c-0.76-1.004-1.541-1.893-2.381-2.724l-0.002-0.002c-0.832-0.843-1.722-1.624-2.665-2.339l-0.061-0.045c-0.66-0.621-1.516-1.039-2.466-1.152l-0.021-0.002h-13.562c-1.208 0.001-2.187 0.98-2.188 2.188v23.625c0.002 1.207 0.981 2.185 2.188 2.187h20.125c1.207-0.002 2.185-0.98 2.187-2.187v-17.063c-0.115-0.97-0.533-1.827-1.156-2.488l0.002 0.002zM23.725 6.775c0.693 0.686 1.343 1.412 1.947 2.175l0.038 0.050h-4.21v-4.21c0.813 0.642 1.539 1.292 2.223 1.983l0.002 0.002zM26.75 27.813c-0.003 0.24-0.197 0.435-0.437 0.438h-20.125c-0.24-0.003-0.434-0.197-0.437-0.437v-23.626c0.003-0.24 0.197-0.434 0.437-0.437h13.562v6.124c0 0.483 0.392 0.875 0.875 0.875v0h6.125z"></path>
</svg>
