<!-- Generated by IcoMoon.io -->
<svg version="1.1" xmlns="http://www.w3.org/2000/svg" width="32" height="32" viewBox="0 0 32 32">
<title>sys_folder</title>
<path d="M26.525 12.658v2.554h-13.286c-1.149 0.023-2.228 0.3-3.19 0.778l0.044-0.020c-1.034 0.455-1.907 1.102-2.611 1.901l-0.007 0.008-5.381 6.326-0.079 0.1c0-0.045 0-0.109-0.007-0.2s-0.008-0.158-0.008-0.2v-15.33c0.015-1.968 1.606-3.559 3.573-3.574h5.112c1.968 0.015 3.559 1.606 3.574 3.573v0.511h8.689c1.969 0.013 3.562 1.605 3.577 3.573v0.001zM32 18.151c-0.034 0.417-0.219 0.784-0.499 1.053l-0.001 0.001-5.366 6.323c-0.522 0.586-1.164 1.054-1.889 1.367l-0.035 0.013c-0.668 0.336-1.453 0.542-2.283 0.566h-17.378c-0.011 0-0.024 0-0.037 0-0.338 0-0.658-0.078-0.943-0.216l0.013 0.006c-0.252-0.113-0.425-0.362-0.425-0.652 0-0.012 0-0.024 0.001-0.036v0.002c0.034-0.417 0.219-0.784 0.499-1.053l0.001-0.001 5.366-6.323c0.522-0.586 1.164-1.054 1.889-1.367l0.035-0.013c0.668-0.334 1.453-0.54 2.283-0.566h17.378c0.011 0 0.024 0 0.037 0 0.338 0 0.658 0.078 0.943 0.216l-0.013-0.006c0.252 0.112 0.425 0.361 0.425 0.65 0 0.013 0 0.026-0.001 0.038v-0.002z"></path>
</svg>
