<!-- Generated by IcoMoon.io -->
<svg version="1.1" xmlns="http://www.w3.org/2000/svg" width="32" height="32" viewBox="0 0 32 32">
<title>sys_perm</title>
<path d="M19.102 23.947c0 0.015 0 0.031-0.008 0.045 0-0.003 0-0.007 0-0.011s0-0.007 0-0.011v0s0-0.005 0-0.008 0.007-0.010 0.008-0.016zM19.102 23.947v-0.010c0 0.002 0 0.003 0 0.005s0 0.003-0.001 0.005v0z"></path>
<path d="M15.404 14.66c-3.496 0-6.33-2.834-6.33-6.33s2.834-6.33 6.33-6.33c3.496 0 6.33 2.834 6.33 6.33v0c0 3.496-2.834 6.33-6.33 6.33v0z"></path>
<path d="M17.6 22.358c0.509-1.375 1.388-2.512 2.518-3.325l0.021-0.014c1.1-0.782 2.47-1.25 3.949-1.25 0.001 0 0.003 0 0.004 0v0c0.411 0.005 0.809 0.041 1.198 0.106l-0.045-0.006 0.142 0.024c-1.36-1.591-3.066-2.846-5.005-3.653l-0.088-0.032c-1.144 1.066-2.635 1.774-4.286 1.935l-0.030 0.002h-0.021l-0.144 0.012h-0.031l-0.133 0.008h-0.572c-0.045 0-0.089 0-0.134 0h-0.038l-0.133-0.008h-0.031l-0.144-0.012h-0.019c-1.681-0.163-3.172-0.87-4.32-1.941l0.004 0.004c-4.889 2.034-8.264 6.772-8.264 12.298 0 0.544 0.033 1.080 0.096 1.606l-0.006-0.063 8.763 0.025v0.025l4.427-0.013 2.852 0.008c-0.578-0.989-0.92-2.178-0.92-3.447 0-0.82 0.143-1.607 0.405-2.338l-0.015 0.048z"></path>
<path d="M24.089 19.308c-2.953 0-5.346 2.393-5.346 5.346s2.393 5.346 5.346 5.346c2.953 0 5.346-2.393 5.346-5.346v0c0-2.953-2.393-5.346-5.346-5.346v0zM27.647 23.49l-3.104 3.406c-0.137 0.133-0.325 0.216-0.532 0.216s-0.394-0.082-0.532-0.216v0l-0.28-0.245-1.945-1.705c-0.127-0.134-0.204-0.316-0.204-0.515 0-0.415 0.337-0.752 0.752-0.752 0.2 0 0.381 0.078 0.516 0.205v0l0.28 0.246 1.356 1.187 2.631-2.888c0.136-0.136 0.324-0.22 0.531-0.22 0.415 0 0.751 0.336 0.751 0.751 0 0.208-0.084 0.396-0.22 0.532v0z"></path>
</svg>
