<!-- Generated by IcoMoon.io -->
<svg version="1.1" xmlns="http://www.w3.org/2000/svg" width="32" height="32" viewBox="0 0 32 32">
<title>system</title>
<path d="M17.265 1h-2.53c0 0-0.001 0-0.001 0-0.517 0-0.949 0.367-1.049 0.854l-0.001 0.007-0.654 3.267c-0.077 0.373-0.338 0.671-0.683 0.798l-0.007 0.002q-0.447 0.162-0.875 0.363c-0.134 0.063-0.29 0.1-0.456 0.1-0.002 0-0.004 0-0.005 0v0c0 0-0.001 0-0.001 0-0.22 0-0.425-0.067-0.595-0.181l0.004 0.002-2.771-1.847c-0.167-0.113-0.373-0.18-0.594-0.18-0.296 0-0.564 0.12-0.758 0.314v0l-1.788 1.788c-0.194 0.194-0.314 0.462-0.314 0.758 0 0.222 0.067 0.427 0.182 0.598l-0.002-0.004 1.849 2.773c0.112 0.167 0.179 0.373 0.179 0.594 0 0.167-0.038 0.325-0.106 0.466l0.003-0.006q-0.2 0.428-0.362 0.875c-0.129 0.352-0.427 0.613-0.793 0.689l-0.007 0.001-3.268 0.654c-0.494 0.101-0.861 0.533-0.861 1.050v0 2.529c0 0 0 0 0 0.001 0 0.517 0.367 0.949 0.854 1.049l0.007 0.001 3.267 0.654c0.373 0.077 0.671 0.338 0.798 0.683l0.002 0.007q0.162 0.447 0.363 0.875c0.065 0.135 0.103 0.293 0.103 0.46 0 0.221-0.067 0.427-0.182 0.598l0.002-0.004-1.85 2.772c-0.113 0.167-0.18 0.373-0.18 0.594 0 0.296 0.12 0.564 0.314 0.758v0l1.788 1.788c0.194 0.194 0.462 0.314 0.758 0.314 0.222 0 0.427-0.067 0.598-0.182l-0.004 0.002 2.773-1.849c0.166-0.112 0.371-0.179 0.592-0.179 0.001 0 0.001 0 0.002 0v0c0.002 0 0.003 0 0.005 0 0.165 0 0.322 0.037 0.463 0.103l-0.007-0.003q0.428 0.2 0.875 0.363c0.352 0.129 0.613 0.427 0.689 0.793l0.001 0.007 0.654 3.268c0.101 0.494 0.533 0.861 1.050 0.861h2.529c0 0 0 0 0.001 0 0.517 0 0.949-0.367 1.049-0.854l0.001-0.007 0.654-3.267c0.077-0.373 0.338-0.671 0.683-0.798l0.007-0.002q0.447-0.162 0.875-0.363c0.134-0.063 0.291-0.1 0.456-0.1 0.002 0 0.004 0 0.005 0v0c0 0 0.001 0 0.001 0 0.22 0 0.425 0.067 0.595 0.181l-0.004-0.002 2.773 1.849c0.167 0.113 0.373 0.18 0.594 0.18 0.296 0 0.564-0.12 0.758-0.314l1.787-1.788c0.194-0.194 0.314-0.462 0.314-0.758 0-0.222-0.067-0.427-0.182-0.598l0.002 0.004-1.849-2.773c-0.113-0.167-0.18-0.373-0.18-0.595 0-0.167 0.038-0.324 0.105-0.465l-0.003 0.006q0.2-0.428 0.362-0.875c0.129-0.352 0.427-0.613 0.793-0.689l0.007-0.001 3.268-0.654c0.495-0.101 0.862-0.533 0.862-1.050v-2.53c0 0 0-0.001 0-0.001 0-0.517-0.367-0.949-0.854-1.049l-0.007-0.001-3.267-0.654c-0.373-0.077-0.671-0.338-0.798-0.683l-0.002-0.007q-0.162-0.447-0.363-0.875c-0.065-0.135-0.103-0.293-0.103-0.46 0-0.221 0.067-0.427 0.182-0.598l-0.002 0.004 1.849-2.773c0.113-0.167 0.18-0.373 0.18-0.594 0-0.296-0.12-0.564-0.314-0.758l-1.787-1.786c-0.194-0.194-0.462-0.314-0.758-0.314-0.222 0-0.427 0.067-0.598 0.182l0.004-0.002-2.773 1.849c-0.166 0.112-0.371 0.179-0.592 0.179 0 0-0.001 0-0.002 0v0c-0.002 0-0.003 0-0.005 0-0.165 0-0.322-0.037-0.463-0.103l0.007 0.003q-0.428-0.2-0.875-0.363c-0.352-0.129-0.613-0.427-0.689-0.793l-0.001-0.007-0.653-3.268c-0.101-0.495-0.533-0.863-1.051-0.863 0 0 0 0 0 0v0zM16 22.429c-3.551 0-6.429-2.878-6.429-6.429s2.878-6.429 6.429-6.429c3.551 0 6.429 2.878 6.429 6.429 0 1.775-0.72 3.383-1.883 4.546v0c-1.163 1.163-2.771 1.883-4.546 1.883 0 0 0 0 0 0v0z"></path>
</svg>
