<!-- Generated by IcoMoon.io -->
<svg version="1.1" xmlns="http://www.w3.org/2000/svg" width="1024" height="1024" viewBox="0 0 1024 1024">
<title></title>
<g id="icomoon-ignore">
</g>
<path fill="#000" d="M934.958 956.001h-801.392c-0.001 0-0.001 0-0.001 0h-44.52c-49.178 0-89.046-39.757-89.046-88.8v-599.401c0-49.045 39.867-88.8 89.046-88.8h189.219l55.649-88.799c0-12.263 32.23-22.201 44.523-22.201h267.13c12.292 0 44.521 9.937 44.521 22.201l55.654 88.799h189.215c49.178 0 89.042 39.755 89.042 88.8v599.401c0 49.044-39.863 88.8-89.042 88.8zM512.003 267.8c-159.826 0-289.391 129.211-289.391 288.601s129.565 288.599 289.391 288.599c159.822 0 289.383-129.204 289.389-288.585v-0.026c-0.006-159.386-129.568-288.59-289.389-288.59zM512.003 756.202c-110.65 0-200.347-89.45-200.347-199.798s89.699-199.802 200.347-199.802 200.346 89.455 200.346 199.802c0 110.35-89.697 199.798-200.346 199.798z"></path>
</svg>
