<!-- Generated by IcoMoon.io -->
<svg version="1.1" xmlns="http://www.w3.org/2000/svg" width="1024" height="1024" viewBox="0 0 1024 1024">
<title></title>
<g id="icomoon-ignore">
</g>
<path fill="#000" d="M881.7 398.189h-113.737c3.291-18.359 0-94.281 0-113.81 0-157.038-114.542-284.379-256-284.379-141.385 0-256 127.342-256 284.453 0 19.529-3.438 95.451 0 113.81h-113.81c-31.451 0-56.832 25.454-56.832 56.905v512c0 31.451 25.454 56.832 56.832 56.832h739.547c31.451 0 56.978-25.454 56.978-56.832v-512c0-31.525-25.6-56.978-56.978-56.978zM511.962 56.831c113.079 0 204.654 101.961 204.654 227.547 0 19.822-1.317 95.525-5.559 113.81h-398.19c-4.315-18.286-5.705-93.989-5.705-113.737 0-125.659 91.721-227.621 204.8-227.621zM881.7 910.189c0 31.451-25.454 56.905-56.832 56.905h-625.81c-31.451 0-56.905-25.527-56.905-56.905v-398.19c0-31.451 25.527-56.832 56.905-56.832h625.737c31.451 0 56.832 25.454 56.832 56.832v398.19zM711.131 739.547h-57.051v-113.737h-56.832v113.81h-113.664c0-62.83-50.981-113.81-113.883-113.81s-113.737 50.907-113.737 113.737c0 62.757 50.834 113.81 113.737 113.81 41.984 0 78.263-22.967 98.011-56.905h300.251v-170.642h-56.832v113.737z"></path>
</svg>
