<svg xmlns="http://www.w3.org/2000/svg" width="32" height="32" viewBox="0 0 32 32">
  <path id="qrcode" d="M95.034,81.507H65.521a1.231,1.231,0,1,1,0-2.462H95.034a1.231,1.231,0,1,1,0,2.462ZM92.588,96.276H85.2a1.231,1.231,0,0,1,0-2.462h7.385a1.231,1.231,0,0,0,1.231-1.231V86.43a1.231,1.231,0,1,1,2.461,0v6.154a3.7,3.7,0,0,1-3.692,3.692Zm-18.461,0H67.973a3.7,3.7,0,0,1-3.692-3.692V86.43a1.231,1.231,0,1,1,2.462,0v6.154a1.232,1.232,0,0,0,1.231,1.231h6.154a1.231,1.231,0,0,1,0,2.462ZM65.511,75.353a1.231,1.231,0,0,1-1.231-1.231V67.968a3.7,3.7,0,0,1,3.692-3.692h6.154a1.231,1.231,0,1,1,0,2.461H67.973a1.233,1.233,0,0,0-1.231,1.231v6.154a1.231,1.231,0,0,1-1.231,1.231Zm29.538,0a1.23,1.23,0,0,1-1.231-1.231V67.968a1.232,1.232,0,0,0-1.231-1.231H85.2a1.231,1.231,0,1,1,0-2.461h7.385a3.7,3.7,0,0,1,3.692,3.692v6.154a1.23,1.23,0,0,1-1.23,1.231Zm0,0" transform="translate(-64.281 -64.276)"/>
</svg>
