<!-- Generated by IcoMoon.io -->
<svg version="1.1" xmlns="http://www.w3.org/2000/svg" width="32" height="32" viewBox="0 0 32 32">
<title>arrow_left</title>
<path d="M6.894 16.201c0-1.609 0.603-3.017 1.81-4.224l12.873-11.465c0.805-0.805 2.011-0.603 2.816 0.201s0.603 2.011-0.201 2.816l-12.873 11.666c-0.201 0.201-0.402 0.603-0.402 1.006s0.201 0.805 0.603 1.207l12.873 11.062c0.805 0.805 1.006 2.011 0.201 2.816s-2.011 1.006-2.816 0.201l-12.873-11.062c-1.408-1.006-2.011-2.414-2.011-4.224 0 0.201 0 0 0 0z"></path>
</svg>
