<!-- Generated by IcoMoon.io -->
<svg version="1.1" xmlns="http://www.w3.org/2000/svg" width="32" height="32" viewBox="0 0 32 32">
<title>arrow_up</title>
<path d="M16.201 6.894c-1.609 0-3.017 0.603-4.224 1.81l-11.465 12.873c-0.805 0.805-0.603 2.011 0.201 2.816s2.011 0.603 2.816-0.201l11.666-12.873c0.201-0.201 0.603-0.402 1.006-0.402s0.805 0.201 1.207 0.603l11.062 12.873c0.805 0.805 2.011 1.006 2.816 0.201s1.006-2.011 0.201-2.816l-11.062-12.873c-1.006-1.408-2.414-2.011-4.224-2.011 0.201 0 0 0 0 0z"></path>
</svg>
