<!-- Generated by IcoMoon.io -->
<svg version="1.1" xmlns="http://www.w3.org/2000/svg" width="32" height="32" viewBox="0 0 32 32">
<title>github</title>
<path d="M16 0.714c-0.048-0-0.104-0.001-0.161-0.001-8.687 0-15.741 6.993-15.839 15.657l-0 0.009c0.035 6.938 4.566 12.808 10.827 14.848l0.111 0.031c0.8 0.145 1.091-0.335 1.091-0.756v-2.662c-4.451 0.945-5.396-2.095-5.396-2.095-0.308-0.973-0.936-1.77-1.757-2.288l-0.017-0.010c-1.455-0.96 0.116-0.945 0.116-0.945 1.044 0.143 1.923 0.749 2.435 1.599l0.008 0.015c0.607 1.038 1.716 1.725 2.986 1.725 0.612 0 1.187-0.16 1.686-0.439l-0.017 0.009c0.087-0.828 0.46-1.555 1.017-2.094l0.001-0.001c-3.549-0.393-7.273-1.731-7.273-7.738-0.001-0.036-0.001-0.079-0.001-0.122 0-1.59 0.615-3.036 1.619-4.114l-0.003 0.004c-0.207-0.556-0.327-1.198-0.327-1.868 0-0.82 0.179-1.598 0.501-2.297l-0.014 0.034s1.353-0.422 4.364 1.6c1.2-0.333 2.578-0.524 4-0.524s2.8 0.191 4.109 0.549l-0.109-0.025c3.054-2.022 4.364-1.6 4.364-1.6 0.308 0.665 0.487 1.443 0.487 2.263 0 0.67-0.12 1.312-0.339 1.906l0.012-0.038c1.053 1.085 1.702 2.567 1.702 4.201 0 0.001 0 0.002 0 0.003v-0c0 6.022-3.753 7.345-7.273 7.738 0.681 0.662 1.103 1.586 1.103 2.609 0 0.106-0.005 0.21-0.013 0.314l0.001-0.013v4.291c0 0.509 0.291 0.916 1.091 0.756 6.352-2.084 10.867-7.942 10.909-14.86l0-0.005c-0.098-8.673-7.152-15.666-15.839-15.666-0.057 0-0.113 0-0.17 0.001l0.009-0z"></path>
</svg>
