<!-- Generated by IcoMoon.io -->
<svg version="1.1" xmlns="http://www.w3.org/2000/svg" width="32" height="32" viewBox="0 0 32 32">
<title>menus</title>
<path d="M6.857 0.001h0.457c3.787 0 6.857 3.070 6.857 6.857v0 7.314h-7.314c-3.787 0-6.857-3.070-6.857-6.857v0-0.457c0-3.787 3.070-6.857 6.857-6.857v0zM25.142 14.171h-7.314v-7.314c0-3.787 3.070-6.857 6.857-6.857v0h0.457c3.787 0 6.857 3.070 6.857 6.857v0 0.457c0 3.787-3.070 6.857-6.857 6.857v0zM6.857 17.828h7.314v7.314c0 3.787-3.070 6.857-6.857 6.857v0h-0.457c-3.787 0-6.857-3.070-6.857-6.857v0-0.457c0-3.787 3.070-6.857 6.857-6.857v0zM25.142 31.999h-0.457c-3.787 0-6.857-3.070-6.857-6.857v0-7.314h7.314c3.787 0 6.857 3.070 6.857 6.857v0 0.457c0 3.787-3.070 6.857-6.857 6.857v0z"></path>
</svg>
