<!-- Generated by IcoMoon.io -->
<svg version="1.1" xmlns="http://www.w3.org/2000/svg" width="32" height="32" viewBox="0 0 32 32">
<title>weixin</title>
<path d="M22.254 11.004c0.161 0 0.322 0.004 0.48 0.011-0.842-4.538-5.58-8.016-11.3-8.016-6.314 0-11.433 4.237-11.433 9.463 0 3.066 1.759 5.788 4.488 7.518 0.036 0.021 0.104 0.064 0.104 0.064l-1.107 3.424 4.133-2.084 0.193 0.054c1.135 0.312 2.353 0.484 3.617 0.484 0.258 0 0.512-0.011 0.766-0.021-0.233-0.72-0.362-1.476-0.362-2.256 0.004-4.771 4.67-8.639 10.419-8.639zM15.413 7.666c0.888 0 1.605 0.688 1.605 1.54 0 0.849-0.716 1.54-1.605 1.54s-1.605-0.691-1.605-1.54c0-0.852 0.716-1.54 1.605-1.54zM7.454 10.743c-0.885 0-1.605-0.691-1.605-1.54s0.72-1.54 1.605-1.54c0.888 0 1.608 0.688 1.608 1.54 0 0.849-0.72 1.54-1.608 1.54zM31.999 19.7c0-4.416-4.323-7.994-9.656-7.994-5.337 0-9.66 3.578-9.66 7.994s4.327 7.994 9.66 7.994c1.067 0 2.095-0.143 3.055-0.408 0.054-0.014 0.165-0.047 0.165-0.047l3.488 1.762-0.931-2.894s0.061-0.036 0.090-0.054c2.303-1.461 3.789-3.764 3.789-6.354zM18.98 18.246c-0.749 0-1.357-0.584-1.357-1.3s0.605-1.297 1.357-1.297c0.749 0 1.357 0.58 1.357 1.297 0 0.72-0.609 1.3-1.357 1.3zM25.699 18.246c-0.749 0-1.354-0.584-1.354-1.3s0.605-1.297 1.354-1.297c0.752 0 1.357 0.58 1.357 1.297 0 0.72-0.605 1.3-1.357 1.3z"></path>
</svg>
