<!-- Generated by IcoMoon.io -->
<svg version="1.1" xmlns="http://www.w3.org/2000/svg" width="1024" height="1024" viewBox="0 0 1024 1024">
<title></title>
<g id="icomoon-ignore">
</g>
<path fill="#000" d="M1004.922 440.177l-455.141-383.024s-1.603 0-1.603-1.603l-3.205-3.205c-20.834-12.821-49.681-11.218-68.912 4.808l-456.744 383.024c-24.039 19.231-25.642 54.489-4.808 76.925s57.694 25.642 80.131 4.808l38.463-33.655v322.125c0 75.323 64.104 137.824 142.632 137.824h84.938c32.052 0 57.694-24.039 57.694-54.489v-259.623c0-16.026 12.821-27.244 28.847-27.244h128.209c16.026 0 28.847 12.821 28.847 27.244v253.212c0 3.205 0 8.013 1.603 11.218l1.603 6.41c4.808 25.642 28.847 43.27 56.091 43.27h83.336c78.528 0 142.632-62.502 142.632-137.824v-320.522l38.463 33.655c11.218 9.616 24.039 12.821 36.86 12.821 16.026 0 32.052-6.41 43.27-19.231 22.437-20.834 20.834-56.091-3.205-76.925z"></path>
</svg>
