<!-- Generated by IcoMoon.io -->
<svg version="1.1" xmlns="http://www.w3.org/2000/svg" width="1024" height="1024" viewBox="0 0 1024 1024">
<title></title>
<g id="icomoon-ignore">
</g>
<path d="M233.535 0.060l5.86 0.228 5.803 0.399 5.745 0.512 5.689 0.625 5.689 0.796 5.632 0.911 5.575 1.081 5.519 1.195 5.461 1.365 5.461 1.479 5.348 1.593 5.291 1.707 5.291 1.877 5.177 1.935 5.12 2.105 5.063 2.219 5.007 2.332 4.949 2.447 4.892 2.617 4.779 2.673 4.721 2.788 4.665 2.901 4.551 3.015 4.495 3.129 4.437 3.185 4.324 3.356 4.267 3.413 4.153 3.527 4.096 3.641 3.983 3.697 3.925 3.812 3.812 3.925 3.697 3.983 3.641 4.096 3.527 4.153 3.413 4.267 3.356 4.324 3.185 4.437 3.129 4.495 3.015 4.551 2.901 4.665 2.788 4.721 2.673 4.779 2.617 4.892 2.447 4.949 2.332 5.007 2.219 5.063 2.105 5.12 1.935 5.177 1.877 5.291 1.707 5.291 1.593 5.348 1.479 5.461 1.365 5.461 1.195 5.519 1.081 5.575 0.911 5.632 0.796 5.689 0.625 5.689 0.512 5.745 0.399 5.803 0.228 5.86 0.057 5.86v193.591l-0.057 1.764-0.113 1.707-0.228 1.707-0.284 1.707-0.399 1.649-0.455 1.593-0.512 1.593-0.625 1.536-0.683 1.536-0.74 1.479-0.853 1.423-0.853 1.365-0.967 1.308-1.024 1.308-1.081 1.252-1.081 1.195-1.195 1.081-1.252 1.081-1.308 1.024-1.308 0.967-1.365 0.853-1.423 0.853-1.479 0.74-1.536 0.683-1.536 0.625-1.593 0.512-1.593 0.455-1.649 0.399-1.707 0.284-1.707 0.228-1.707 0.113-1.764 0.057-199.449-0.057-5.86-0.228-5.803-0.399-5.745-0.512-5.689-0.625-5.689-0.796-5.632-0.911-5.575-1.081-5.519-1.195-5.461-1.365-5.461-1.479-5.348-1.593-5.291-1.707-5.291-1.877-5.177-1.935-5.12-2.105-5.063-2.219-5.007-2.332-4.949-2.447-4.892-2.617-4.779-2.673-4.721-2.788-4.665-2.901-4.551-3.015-4.495-3.129-4.437-3.185-4.324-3.356-4.267-3.413-4.153-3.527-4.096-3.641-3.983-3.697-3.925-3.812-3.812-3.925-3.697-3.983-3.641-4.096-3.527-4.153-3.413-4.267-3.356-4.324-3.185-4.437-3.129-4.495-3.015-4.551-2.901-4.665-2.788-4.721-2.673-4.779-2.617-4.892-2.447-4.949-2.332-5.007-2.219-5.063-2.105-5.12-1.935-5.177-1.877-5.291-1.707-5.291-1.593-5.348-1.479-5.461-1.365-5.461-1.195-5.519-1.081-5.575-0.911-5.632-0.796-5.689-0.625-5.689-0.512-5.745-0.399-5.803-0.228-5.86-0.057-5.86v-0.228l0.057-5.86 0.228-5.86 0.399-5.803 0.512-5.745 0.625-5.689 0.796-5.689 0.911-5.632 1.081-5.575 1.195-5.519 1.365-5.461 1.479-5.461 1.593-5.348 1.707-5.291 1.877-5.291 1.935-5.177 2.105-5.12 2.219-5.063 2.332-5.007 2.447-4.949 2.617-4.892 2.673-4.779 2.788-4.721 2.901-4.665 3.015-4.551 3.129-4.495 3.185-4.437 3.356-4.324 3.413-4.267 3.527-4.153 3.641-4.096 3.697-3.983 3.812-3.925 3.925-3.812 3.983-3.697 4.096-3.641 4.153-3.527 4.267-3.413 4.324-3.356 4.437-3.185 4.495-3.129 4.551-3.015 4.665-2.901 4.721-2.788 4.779-2.673 4.892-2.617 4.949-2.447 5.007-2.332 5.063-2.219 5.12-2.105 5.177-1.935 5.291-1.877 5.291-1.707 5.348-1.593 5.461-1.479 5.461-1.365 5.519-1.195 5.575-1.081 5.632-0.911 5.689-0.796 5.689-0.625 5.745-0.512 5.803-0.399 5.86-0.228 6.087-0.057 5.86 0.057zM223.010 56.947l-4.38 0.171-4.38 0.284-4.324 0.399-4.267 0.455-4.267 0.625-4.209 0.683-4.153 0.796-4.153 0.911-4.096 0.967-4.039 1.137-4.039 1.195-3.983 1.252-3.925 1.423-3.868 1.479-3.868 1.536-3.755 1.649-3.755 1.764-3.697 1.82-3.641 1.935-3.641 2.048-3.527 2.048-3.471 2.219-3.413 2.219-3.413 2.389-3.3 2.389-3.243 2.503-3.243 2.56-3.129 2.673-3.072 2.731-2.959 2.788-2.959 2.844-2.844 2.959-2.788 2.959-2.731 3.072-2.673 3.129-2.56 3.243-2.503 3.243-2.389 3.3-2.389 3.413-2.219 3.413-2.219 3.471-2.048 3.527-2.048 3.641-1.877 3.641-1.877 3.697-1.764 3.755-1.649 3.755-1.536 3.868-1.479 3.868-1.423 3.925-1.252 3.983-1.195 4.039-1.137 4.039-0.967 4.096-0.911 4.153-0.796 4.153-0.683 4.209-0.625 4.267-0.455 4.267-0.399 4.324-0.284 4.38-0.171 4.38-0.057 4.551 0.057 4.551 0.171 4.38 0.284 4.38 0.399 4.324 0.455 4.267 0.625 4.267 0.683 4.209 0.796 4.153 0.911 4.153 0.967 4.096 1.137 4.039 1.195 4.039 1.252 3.983 1.423 3.925 1.479 3.868 1.536 3.868 1.649 3.755 1.764 3.755 1.877 3.697 1.877 3.641 2.048 3.641 2.048 3.527 2.219 3.471 2.219 3.413 2.389 3.413 2.389 3.3 2.503 3.243 2.56 3.243 2.673 3.129 2.731 3.072 2.788 2.959 2.844 2.959 2.959 2.844 2.959 2.788 3.072 2.731 3.129 2.673 3.243 2.56 3.243 2.503 3.3 2.389 3.413 2.389 3.413 2.219 3.471 2.219 3.527 2.048 3.641 2.048 3.641 1.935 3.697 1.82 3.755 1.764 3.755 1.649 3.868 1.536 3.868 1.479 3.925 1.423 3.983 1.252 4.039 1.195 4.039 1.137 4.096 0.967 4.153 0.911 4.153 0.796 4.209 0.683 4.267 0.625 4.267 0.455 4.324 0.399 4.38 0.284 4.38 0.171 4.779 0.057h170.436v-170.436l-0.057-4.779-0.171-4.38-0.284-4.38-0.399-4.324-0.455-4.267-0.625-4.267-0.683-4.209-0.796-4.153-0.911-4.153-0.967-4.096-1.137-4.039-1.195-4.039-1.252-3.983-1.423-3.925-1.479-3.868-1.536-3.868-1.649-3.755-1.764-3.755-1.82-3.697-1.935-3.641-2.048-3.641-2.048-3.527-2.219-3.471-2.219-3.413-2.389-3.413-2.389-3.3-2.503-3.243-2.56-3.243-2.673-3.129-2.731-3.072-2.788-2.959-2.844-2.959-2.959-2.844-2.959-2.788-3.072-2.731-3.129-2.673-3.243-2.56-3.243-2.503-3.3-2.389-3.413-2.389-3.413-2.219-3.471-2.219-3.527-2.048-3.641-2.048-3.641-1.935-3.697-1.82-3.755-1.764-3.755-1.649-3.868-1.536-3.868-1.479-3.925-1.423-3.983-1.252-4.039-1.195-4.039-1.137-4.096-0.967-4.153-0.911-4.153-0.796-4.209-0.683-4.267-0.625-4.267-0.455-4.324-0.399-4.38-0.284-4.38-0.171-4.551-0.057-4.551 0.057zM796.557 0.003l5.86 0.057 5.86 0.228 5.803 0.399 5.745 0.512 5.689 0.625 5.689 0.796 5.632 0.911 5.575 1.081 5.519 1.195 5.461 1.365 5.461 1.479 5.348 1.593 5.291 1.707 5.291 1.877 5.177 1.935 5.12 2.105 5.063 2.219 5.007 2.332 4.949 2.447 4.892 2.617 4.779 2.673 4.721 2.788 4.665 2.901 4.551 3.015 4.495 3.129 4.437 3.185 4.324 3.356 4.267 3.413 4.153 3.527 4.096 3.641 3.983 3.697 3.925 3.812 3.812 3.925 3.697 3.983 3.641 4.096 3.527 4.153 3.413 4.267 3.356 4.324 3.185 4.437 3.129 4.495 3.015 4.551 2.901 4.665 2.788 4.721 2.673 4.779 2.617 4.892 2.447 4.949 2.332 5.007 2.219 5.063 2.105 5.12 1.935 5.177 1.877 5.291 1.707 5.291 1.593 5.348 1.479 5.461 1.365 5.461 1.195 5.519 1.081 5.575 0.911 5.632 0.796 5.689 0.625 5.689 0.512 5.745 0.399 5.803 0.228 5.86 0.057 5.86v0.228l-0.057 5.86-0.228 5.86-0.399 5.803-0.512 5.745-0.625 5.689-0.796 5.689-0.911 5.632-1.081 5.575-1.195 5.519-1.365 5.461-1.479 5.461-1.593 5.348-1.707 5.291-1.877 5.291-1.935 5.177-2.105 5.12-2.219 5.063-2.332 5.007-2.447 4.949-2.617 4.892-2.673 4.779-2.788 4.721-2.901 4.665-3.015 4.551-3.129 4.495-3.185 4.437-3.356 4.324-3.413 4.267-3.527 4.153-3.641 4.096-3.697 3.983-3.812 3.925-3.925 3.812-3.983 3.697-4.096 3.641-4.153 3.527-4.267 3.413-4.324 3.356-4.437 3.185-4.495 3.129-4.551 3.015-4.665 2.901-4.721 2.788-4.779 2.673-4.892 2.617-4.949 2.447-5.007 2.332-5.063 2.219-5.12 2.105-5.177 1.935-5.291 1.877-5.291 1.707-5.348 1.593-5.461 1.479-5.461 1.365-5.519 1.195-5.575 1.081-5.632 0.911-5.689 0.796-5.689 0.625-5.745 0.512-5.803 0.399-5.86 0.228-5.86 0.057-197.060-0.171-1.707-0.228-1.707-0.284-1.649-0.399-1.593-0.455-1.593-0.512-1.536-0.625-1.536-0.683-1.479-0.74-1.423-0.853-1.365-0.853-1.308-0.967-1.308-1.024-1.252-1.081-1.195-1.081-1.081-1.195-1.081-1.252-1.024-1.308-0.967-1.308-0.853-1.365-0.853-1.423-0.74-1.479-0.683-1.536-0.625-1.536-0.512-1.593-0.455-1.593-0.399-1.649-0.284-1.707-0.228-1.707-0.113-1.707-0.057-1.764v-193.591l0.057-5.86 0.228-5.86 0.399-5.803 0.512-5.745 0.625-5.689 0.796-5.689 0.911-5.632 1.081-5.575 1.195-5.519 1.365-5.461 1.479-5.461 1.593-5.348 1.707-5.291 1.877-5.291 1.935-5.177 2.105-5.12 2.219-5.063 2.332-5.007 2.447-4.949 2.617-4.892 2.673-4.779 2.788-4.721 2.901-4.665 3.015-4.551 3.129-4.495 3.185-4.437 3.356-4.324 3.413-4.267 3.527-4.153 3.641-4.096 3.697-3.983 3.812-3.925 3.925-3.812 3.983-3.697 4.096-3.641 4.153-3.527 4.267-3.413 4.324-3.356 4.437-3.185 4.495-3.129 4.551-3.015 4.665-2.901 4.721-2.788 4.779-2.673 4.892-2.617 4.949-2.447 5.007-2.332 5.063-2.219 5.12-2.105 5.177-1.935 5.291-1.877 5.291-1.707 5.348-1.593 5.461-1.479 5.461-1.365 5.519-1.195 5.575-1.081 5.632-0.911 5.689-0.796 5.689-0.625 5.745-0.512 5.803-0.399 5.86-0.228 6.087-0.057zM791.892 56.947l-4.38 0.171-4.38 0.284-4.324 0.399-4.267 0.455-4.267 0.625-4.209 0.683-4.153 0.796-4.153 0.911-4.096 0.967-4.039 1.137-4.039 1.195-3.983 1.252-3.925 1.423-3.868 1.479-3.868 1.536-3.755 1.649-3.755 1.764-3.697 1.82-3.641 1.935-3.641 2.048-3.527 2.048-3.471 2.219-3.413 2.219-3.413 2.389-3.3 2.389-3.243 2.503-3.243 2.56-3.129 2.673-3.072 2.731-2.959 2.788-2.959 2.844-2.844 2.959-2.788 2.959-2.731 3.072-2.673 3.129-2.56 3.243-2.503 3.243-2.389 3.3-2.389 3.413-2.219 3.413-2.219 3.471-4.096 7.168-1.877 3.641-1.877 3.697-1.764 3.755-1.649 3.755-1.536 3.868-1.479 3.868-1.423 3.925-1.252 3.983-1.195 4.039-1.137 4.039-0.967 4.096-0.911 4.153-0.796 4.153-0.683 4.209-0.625 4.267-0.455 4.267-0.399 4.324-0.284 4.38-0.171 4.38-0.057 4.779v170.436l179.595-0.228 4.38-0.284 4.324-0.399 4.267-0.455 4.267-0.625 4.209-0.683 4.153-0.796 4.153-0.911 4.096-0.967 4.039-1.137 4.039-1.195 3.983-1.252 3.925-1.423 3.868-1.479 3.868-1.536 3.755-1.649 3.755-1.764 3.697-1.82 3.641-1.935 3.641-2.048 3.527-2.048 3.471-2.219 3.413-2.219 3.413-2.389 3.3-2.389 3.243-2.503 3.243-2.56 3.129-2.673 3.072-2.731 2.959-2.788 2.959-2.844 2.844-2.959 2.788-2.959 2.731-3.072 2.673-3.129 2.56-3.243 2.503-3.243 2.389-3.3 2.389-3.413 2.219-3.413 2.219-3.471 2.048-3.527 2.048-3.641 1.935-3.641 1.82-3.697 1.764-3.755 1.649-3.755 1.536-3.868 1.479-3.868 1.423-3.925 1.252-3.983 1.195-4.039 1.137-4.039 0.967-4.096 0.911-4.153 0.796-4.153 0.683-4.209 0.625-4.267 0.455-4.267 0.399-4.324 0.284-4.38 0.171-4.38 0.057-4.551-0.057-4.551-0.171-4.38-0.284-4.38-0.399-4.324-0.455-4.267-0.625-4.267-0.683-4.209-0.796-4.153-0.911-4.153-0.967-4.096-1.137-4.039-1.195-4.039-1.252-3.983-1.423-3.925-1.479-3.868-1.536-3.868-1.649-3.755-1.764-3.755-1.82-3.697-1.935-3.641-2.048-3.641-2.048-3.527-2.219-3.471-2.219-3.413-2.389-3.413-2.389-3.3-2.503-3.243-2.56-3.243-2.673-3.129-2.731-3.072-2.788-2.959-2.844-2.959-2.959-2.844-2.959-2.788-3.072-2.731-3.129-2.673-3.243-2.56-3.243-2.503-3.3-2.389-3.413-2.389-3.413-2.219-3.471-2.219-3.527-2.048-3.641-2.048-3.641-1.935-3.697-1.82-3.755-1.764-3.755-1.649-3.868-1.536-3.868-1.479-3.925-1.423-3.983-1.252-4.039-1.195-4.039-1.137-4.096-0.967-4.153-0.911-4.153-0.796-4.209-0.683-4.267-0.625-4.267-0.455-4.324-0.399-4.38-0.284-4.38-0.171-4.551-0.057-4.551 0.057zM421.038 568.885l1.764 0.057 1.707 0.113 1.707 0.228 1.707 0.284 1.649 0.399 1.593 0.455 1.593 0.512 1.536 0.625 1.536 0.683 1.479 0.74 1.423 0.853 1.365 0.853 1.308 0.967 1.308 1.024 1.252 1.081 1.195 1.081 1.081 1.195 1.081 1.252 1.024 1.308 0.967 1.308 0.853 1.365 0.853 1.423 0.74 1.479 0.683 1.536 0.625 1.536 0.512 1.593 0.455 1.593 0.399 1.649 0.284 1.707 0.228 1.707 0.113 1.707 0.057 1.764v193.591l-0.057 5.86-0.228 5.86-0.399 5.803-0.512 5.745-0.625 5.689-0.796 5.689-0.911 5.632-1.081 5.575-1.195 5.519-1.365 5.461-1.479 5.461-1.593 5.348-1.707 5.291-1.877 5.291-1.935 5.177-2.105 5.12-2.219 5.063-2.332 5.007-2.447 4.949-2.617 4.892-2.673 4.779-2.788 4.721-2.901 4.665-3.015 4.551-3.129 4.495-3.185 4.437-3.356 4.324-3.413 4.267-3.527 4.153-3.641 4.096-3.697 3.983-3.812 3.925-3.925 3.812-3.983 3.697-4.096 3.641-4.153 3.527-4.267 3.413-4.324 3.356-4.437 3.185-4.495 3.129-4.551 3.015-4.665 2.901-4.721 2.788-4.779 2.673-4.892 2.617-4.949 2.447-5.007 2.332-5.063 2.219-5.12 2.105-5.177 1.935-5.291 1.877-5.291 1.707-5.348 1.593-5.461 1.479-5.461 1.365-5.519 1.195-5.575 1.081-5.632 0.911-5.689 0.796-5.689 0.625-5.745 0.512-5.803 0.399-5.86 0.228-6.087 0.057-5.86-0.057-5.86-0.228-5.803-0.399-5.745-0.512-5.689-0.625-5.689-0.796-5.632-0.911-5.575-1.081-5.519-1.195-5.461-1.365-5.461-1.479-5.348-1.593-5.291-1.707-5.291-1.877-5.177-1.935-5.12-2.105-5.063-2.219-5.007-2.332-4.949-2.447-4.892-2.617-4.779-2.673-4.721-2.788-4.665-2.901-4.551-3.015-4.495-3.129-4.437-3.185-4.324-3.356-4.267-3.413-4.153-3.527-4.096-3.641-3.983-3.697-3.925-3.812-3.812-3.925-3.697-3.983-3.641-4.096-3.527-4.153-3.413-4.267-3.356-4.324-3.185-4.437-3.129-4.495-3.015-4.551-2.901-4.665-2.788-4.721-2.673-4.779-2.617-4.892-2.447-4.949-2.332-5.007-2.219-5.063-2.105-5.12-1.935-5.177-1.877-5.291-1.707-5.291-1.593-5.348-1.479-5.461-1.365-5.461-1.195-5.519-1.081-5.575-0.911-5.632-0.796-5.689-0.625-5.689-0.512-5.745-0.399-5.803-0.228-5.86-0.057-5.86v-0.228l0.057-5.86 0.228-5.86 0.399-5.803 0.512-5.745 0.625-5.689 0.796-5.689 0.911-5.632 1.081-5.575 1.195-5.519 1.365-5.461 1.479-5.461 1.593-5.348 1.707-5.291 1.877-5.291 1.935-5.177 2.105-5.12 2.219-5.063 2.332-5.007 2.447-4.949 2.617-4.892 2.673-4.779 2.788-4.721 2.901-4.665 3.015-4.551 3.129-4.495 3.185-4.437 3.356-4.324 3.413-4.267 3.527-4.153 3.641-4.096 3.697-3.983 3.812-3.925 3.925-3.812 3.983-3.697 4.096-3.641 4.153-3.527 4.267-3.413 4.324-3.356 4.437-3.185 4.495-3.129 4.551-3.015 4.665-2.901 4.721-2.788 4.779-2.673 4.892-2.617 4.949-2.447 5.007-2.332 5.063-2.219 5.12-2.105 5.177-1.935 5.291-1.877 5.291-1.707 5.348-1.593 5.461-1.479 5.461-1.365 5.519-1.195 5.575-1.081 5.632-0.911 5.689-0.796 5.689-0.625 5.745-0.512 5.803-0.399 5.86-0.228 5.86-0.057h193.591zM227.788 625.772l-4.779 0.057-4.38 0.171-4.38 0.284-4.324 0.399-4.267 0.455-4.267 0.625-4.209 0.683-4.153 0.796-4.153 0.911-4.096 0.967-4.039 1.137-4.039 1.195-3.983 1.252-3.925 1.423-3.868 1.479-3.868 1.536-3.755 1.649-3.755 1.764-3.697 1.82-3.641 1.935-3.641 2.048-3.527 2.048-3.471 2.219-3.413 2.219-3.413 2.389-3.3 2.389-3.243 2.503-3.243 2.56-3.129 2.673-3.072 2.731-2.959 2.788-2.959 2.844-2.844 2.959-2.788 2.959-2.731 3.072-2.673 3.129-2.56 3.243-2.503 3.243-2.389 3.3-2.389 3.413-2.219 3.413-2.219 3.471-2.048 3.527-2.048 3.641-1.877 3.641-1.877 3.697-1.764 3.755-1.649 3.755-1.536 3.868-1.479 3.868-1.423 3.925-1.252 3.983-1.195 4.039-1.137 4.039-0.967 4.096-0.911 4.153-0.796 4.153-0.683 4.209-0.625 4.267-0.455 4.267-0.399 4.324-0.284 4.38-0.171 4.38-0.057 4.551 0.057 4.551 0.171 4.38 0.284 4.38 0.399 4.324 0.455 4.267 0.625 4.267 0.683 4.209 0.796 4.153 0.911 4.153 0.967 4.096 1.137 4.039 1.195 4.039 1.252 3.983 1.423 3.925 1.479 3.868 1.536 3.868 1.649 3.755 1.764 3.755 1.877 3.697 1.877 3.641 2.048 3.641 2.048 3.527 2.219 3.471 2.219 3.413 2.389 3.413 2.389 3.3 2.503 3.243 2.56 3.243 2.673 3.129 2.731 3.072 2.788 2.959 2.844 2.959 2.959 2.844 2.959 2.788 3.072 2.731 3.129 2.673 3.243 2.56 3.243 2.503 3.3 2.389 3.413 2.389 3.413 2.219 3.471 2.219 3.527 2.048 3.641 2.048 3.641 1.935 3.697 1.82 3.755 1.764 3.755 1.649 3.868 1.536 3.868 1.479 3.925 1.423 3.983 1.252 4.039 1.195 4.039 1.137 4.096 0.967 4.153 0.911 4.153 0.796 4.209 0.683 4.267 0.625 4.267 0.455 4.324 0.399 4.38 0.284 4.38 0.171 4.551 0.057 4.551-0.057 4.38-0.171 4.38-0.284 4.324-0.399 4.267-0.455 4.267-0.625 4.209-0.683 4.153-0.796 4.153-0.911 4.096-0.967 4.039-1.137 4.039-1.195 3.983-1.252 3.925-1.423 3.868-1.479 3.868-1.536 3.755-1.649 3.755-1.764 3.697-1.82 3.641-1.935 3.641-2.048 3.527-2.048 3.471-2.219 3.413-2.219 3.413-2.389 3.3-2.389 3.243-2.503 3.243-2.56 3.129-2.673 3.072-2.731 2.959-2.788 2.959-2.844 2.844-2.959 2.788-2.959 2.731-3.072 2.673-3.129 2.56-3.243 2.503-3.243 2.389-3.3 2.389-3.413 2.219-3.413 2.219-3.471 2.048-3.527 2.048-3.641 1.935-3.641 1.82-3.697 1.764-3.755 1.649-3.755 1.536-3.868 1.479-3.868 1.423-3.925 1.252-3.983 1.195-4.039 1.137-4.039 0.967-4.096 0.911-4.153 0.796-4.153 0.683-4.209 0.625-4.267 0.455-4.267 0.399-4.324 0.284-4.38 0.171-4.38 0.057-4.779v-170.436h-170.436zM802.415 568.941l5.86 0.228 5.803 0.399 5.745 0.512 5.689 0.625 5.689 0.796 5.632 0.911 5.575 1.081 5.519 1.195 5.461 1.365 5.461 1.479 5.348 1.593 5.291 1.707 5.291 1.877 5.177 1.935 5.12 2.105 5.063 2.219 5.007 2.332 4.949 2.447 4.892 2.617 4.779 2.673 4.721 2.788 4.665 2.901 4.551 3.015 4.495 3.129 4.437 3.185 4.324 3.356 4.267 3.413 4.153 3.527 4.096 3.641 3.983 3.697 3.925 3.812 3.812 3.925 3.697 3.983 3.641 4.096 3.527 4.153 3.413 4.267 3.356 4.324 3.185 4.437 3.129 4.495 3.015 4.551 2.901 4.665 2.788 4.721 2.673 4.779 2.617 4.892 2.447 4.949 2.332 5.007 2.219 5.063 2.105 5.12 1.935 5.177 1.877 5.291 1.707 5.291 1.593 5.348 1.479 5.461 1.365 5.461 1.195 5.519 1.081 5.575 0.911 5.632 0.796 5.689 0.625 5.689 0.512 5.745 0.399 5.803 0.228 5.86 0.057 5.86v0.228l-0.057 5.86-0.228 5.86-0.399 5.803-0.512 5.745-0.625 5.689-0.796 5.689-0.911 5.632-1.081 5.575-1.195 5.519-1.365 5.461-1.479 5.461-1.593 5.348-1.707 5.291-1.877 5.291-1.935 5.177-2.105 5.12-2.219 5.063-2.332 5.007-2.447 4.949-2.617 4.892-2.673 4.779-2.788 4.721-2.901 4.665-3.015 4.551-3.129 4.495-3.185 4.437-3.356 4.324-3.413 4.267-3.527 4.153-3.641 4.096-3.697 3.983-3.812 3.925-3.925 3.812-3.983 3.697-4.096 3.641-4.153 3.527-4.267 3.413-4.324 3.356-4.437 3.185-4.495 3.129-4.551 3.015-4.665 2.901-4.721 2.788-4.779 2.673-4.892 2.617-4.949 2.447-5.007 2.332-5.063 2.219-5.12 2.105-5.177 1.935-5.291 1.877-5.291 1.707-5.348 1.593-5.461 1.479-5.461 1.365-5.519 1.195-5.575 1.081-5.632 0.911-5.689 0.796-5.689 0.625-5.745 0.512-5.803 0.399-5.86 0.228-6.087 0.057-5.86-0.057-5.86-0.228-5.803-0.399-5.745-0.512-5.689-0.625-5.689-0.796-5.632-0.911-5.575-1.081-5.519-1.195-5.461-1.365-5.461-1.479-5.348-1.593-5.291-1.707-5.291-1.877-5.177-1.935-5.12-2.105-5.063-2.219-5.007-2.332-4.949-2.447-4.892-2.617-4.779-2.673-4.721-2.788-4.665-2.901-4.551-3.015-4.495-3.129-4.437-3.185-4.324-3.356-4.267-3.413-4.153-3.527-4.096-3.641-3.983-3.697-3.925-3.812-3.812-3.925-3.697-3.983-3.641-4.096-3.527-4.153-3.413-4.267-3.356-4.324-3.185-4.437-3.129-4.495-3.015-4.551-2.901-4.665-2.788-4.721-2.673-4.779-2.617-4.892-2.447-4.949-2.332-5.007-2.219-5.063-2.105-5.12-1.935-5.177-1.877-5.291-1.707-5.291-1.593-5.348-1.479-5.461-1.365-5.461-1.195-5.519-1.081-5.575-0.911-5.632-0.796-5.689-0.625-5.689-0.512-5.745-0.399-5.803-0.228-5.86-0.057-5.86v-193.591l0.057-1.764 0.113-1.707 0.228-1.707 0.284-1.707 0.399-1.649 0.455-1.593 0.512-1.593 0.625-1.536 0.683-1.536 0.74-1.479 0.853-1.423 0.853-1.365 0.967-1.308 1.024-1.308 1.081-1.252 1.081-1.195 1.195-1.081 1.252-1.081 1.308-1.024 1.308-0.967 1.365-0.853 1.423-0.853 1.479-0.74 1.536-0.683 1.536-0.625 1.593-0.512 1.593-0.455 1.649-0.399 1.707-0.284 1.707-0.228 1.707-0.113 1.764-0.057 199.449 0.057zM625.778 625.772v170.436l0.057 4.779 0.171 4.38 0.284 4.38 0.399 4.324 0.455 4.267 0.625 4.267 0.683 4.209 0.796 4.153 0.911 4.153 0.967 4.096 1.137 4.039 1.195 4.039 1.252 3.983 1.423 3.925 1.479 3.868 1.536 3.868 1.649 3.755 1.764 3.755 1.877 3.697 1.877 3.641 4.096 7.168 2.219 3.471 2.219 3.413 2.389 3.413 2.389 3.3 2.503 3.243 2.56 3.243 2.673 3.129 2.731 3.072 2.788 2.959 2.844 2.959 2.959 2.844 2.959 2.788 3.072 2.731 3.129 2.673 3.243 2.56 3.243 2.503 3.3 2.389 3.413 2.389 3.413 2.219 3.471 2.219 3.527 2.048 3.641 2.048 3.641 1.935 3.697 1.82 3.755 1.764 3.755 1.649 3.868 1.536 3.868 1.479 3.925 1.423 3.983 1.252 4.039 1.195 4.039 1.137 4.096 0.967 4.153 0.911 4.153 0.796 4.209 0.683 4.267 0.625 4.267 0.455 4.324 0.399 4.38 0.284 4.38 0.171 4.551 0.057 4.551-0.057 4.38-0.171 4.38-0.284 4.324-0.399 4.267-0.455 4.267-0.625 4.209-0.683 4.153-0.796 4.153-0.911 4.096-0.967 4.039-1.137 4.039-1.195 3.983-1.252 3.925-1.423 3.868-1.479 3.868-1.536 3.755-1.649 3.755-1.764 3.697-1.82 3.641-1.935 3.641-2.048 3.527-2.048 3.471-2.219 3.413-2.219 3.413-2.389 3.3-2.389 3.243-2.503 3.243-2.56 3.129-2.673 3.072-2.731 2.959-2.788 2.959-2.844 2.844-2.959 2.788-2.959 2.731-3.072 2.673-3.129 2.56-3.243 2.503-3.243 2.389-3.3 2.389-3.413 2.219-3.413 2.219-3.471 2.048-3.527 2.048-3.641 1.935-3.641 1.82-3.697 1.764-3.755 1.649-3.755 1.536-3.868 1.479-3.868 1.423-3.925 1.252-3.983 1.195-4.039 1.137-4.039 0.967-4.096 0.911-4.153 0.796-4.153 0.683-4.209 0.625-4.267 0.455-4.267 0.399-4.324 0.284-4.38 0.171-4.38 0.057-4.551-0.057-4.551-0.171-4.38-0.284-4.38-0.399-4.324-0.455-4.267-0.625-4.267-0.683-4.209-0.796-4.153-0.911-4.153-0.967-4.096-1.137-4.039-1.195-4.039-1.252-3.983-1.423-3.925-1.479-3.868-1.536-3.868-1.649-3.755-1.764-3.755-1.82-3.697-1.935-3.641-2.048-3.641-2.048-3.527-2.219-3.471-2.219-3.413-2.389-3.413-2.389-3.3-2.503-3.243-2.56-3.243-2.673-3.129-2.731-3.072-2.788-2.959-2.844-2.959-2.959-2.844-2.959-2.788-3.072-2.731-3.129-2.673-3.243-2.56-3.243-2.503-3.3-2.389-3.413-2.389-3.413-2.219-3.471-2.219-3.527-2.048-3.641-2.048-3.641-1.935-3.697-1.82-3.755-1.764-3.755-1.649-3.868-1.536-3.868-1.479-3.925-1.423-3.983-1.252-4.039-1.195-4.039-1.137-4.096-0.967-4.153-0.911-4.153-0.796-4.209-0.683-4.267-0.625-4.267-0.455-4.324-0.399-4.38-0.284-4.38-0.171-4.779-0.057h-170.436z"></path>
</svg>
