<!-- Generated by IcoMoon.io -->
<svg version="1.1" xmlns="http://www.w3.org/2000/svg" width="1024" height="1024" viewBox="0 0 1024 1024">
<title></title>
<g id="icomoon-ignore">
</g>
<path fill="#000" d="M345.15 284.525c0 53.828 43.637 97.465 97.465 97.465s97.465-43.637 97.465-97.465v0c0-53.828-43.637-97.465-97.465-97.465s-97.465 43.637-97.465 97.465v0z"></path>
<path fill="#000" d="M502.003 416.739c50.492-22.718 85.818-73.339 85.818-132.215 0-80.122-65.147-145.206-145.206-145.206-80.122 0-145.27 65.083-145.27 145.206 0 58.876 35.325 109.368 85.754 132.215 19.135-4.928 38.845-8.319 59.452-8.319 20.735 0 40.381 3.392 59.452 8.319z"></path>
<path fill="#000" d="M486.964 624.724h-235.311c11.839-94.841 92.985-168.5 190.962-168.5 50.3 0 95.865 19.519 130.167 51.26 10.431-7.295 20.735-14.911 31.486-20.543l10.047-5.184c-30.27-31.294-68.859-53.82-112.312-65.019-18.175 8.191-38.141 13.055-59.388 13.055-21.182 0-41.277-4.864-59.452-13.055-103.545 26.622-180.723 119.991-180.723 231.855 0 13.247 10.751 23.934 23.87 23.934l229.488 4.352c0-0.064 28.286-46.077 31.166-52.156z"></path>
<path fill="#000" d="M502.003 416.739c-19.071-4.928-38.717-8.319-59.388-8.319-20.607 0-40.317 3.392-59.452 8.319 18.239 8.191 38.269 13.055 59.452 13.055 21.246 0 41.213-4.864 59.388-13.055z"></path>
<path fill="#000" d="M785.119 713.294c-31.23-15.167-68.923-2.176-84.154 29.118-15.167 31.23-2.176 68.923 29.118 84.154 5.696 2.816 11.647 3.648 17.663 4.608 26.686 4.224 54.076-8.127 66.555-33.662 11.647-24.254 6.208-51.964-11.263-70.523-5.056-5.376-10.879-10.239-17.919-13.695z"></path>
<path fill="#000" d="M957.331 794.313c20.671-5.184 37.693-10.175 51.132-14.911 0.32-13.823-0.128-27.902-2.176-41.981-0.064-1.216-0.256-2.432-0.384-3.648-13.951-3.328-31.23-6.4-52.348-9.279-2.752-12.031-6.592-23.55-11.263-34.622 15.231-14.783 27.454-27.518 36.669-38.397-7.295-13.567-15.679-26.366-25.022-38.205-13.695 4.096-30.398 10.111-50.044 18.175-8.191-8.959-17.343-17.023-27.070-24.318 5.824-20.415 9.983-37.629 12.607-51.708-12.927-7.999-26.622-14.975-40.701-20.671-1.472 1.664-3.328 3.776-4.928 5.504-8.703 9.663-18.303 20.99-29.374 35.197-3.712-1.088-7.679-1.472-11.455-2.368-7.999-1.984-15.871-4.096-24.062-5.12-5.248-20.543-10.175-37.565-14.975-50.94-13.823-0.448-27.838 0.128-41.853 2.048-1.472 0.128-2.624 0.32-3.84 0.512-3.136 13.823-6.464 31.23-9.215 52.348-11.135 2.496-21.822 6.208-32.062 10.495-0.896 0.32-1.728 0.384-2.496 0.768-14.783-15.295-27.518-27.518-38.397-36.669-8.127 4.224-15.231 9.791-22.782 14.847-5.056 3.52-10.623 6.272-15.423 10.111 4.096 13.695 10.111 30.27 18.175 49.98-8.447 7.999-16.255 16.703-23.23 25.918h-5.376c-18.367-5.12-34.366-9.023-47.293-11.391-2.24 3.584-3.712 7.679-5.76 11.391-5.376 9.599-10.815 19.199-14.911 29.374 5.248 4.928 11.199 10.175 17.983 15.871s14.335 11.775 22.718 18.239c-3.328 11.583-6.016 23.486-7.359 35.709-20.607 5.12-37.629 10.175-51.068 14.911-0.512 13.759 0.192 27.774 1.984 41.917 0.192 1.216 0.384 2.496 0.576 3.712 13.823 3.328 31.23 6.336 52.348 9.279 1.408 6.016 3.84 11.583 5.696 17.407 1.856 5.696 3.2 11.647 5.504 17.151-8.831 8.639-16.447 16.447-23.358 23.742-4.928 5.184-9.535 10.175-13.375 14.655 7.231 13.631 15.551 26.366 25.022 38.397 13.567-4.096 30.398-10.239 50.044-18.303 8.191 8.959 17.407 17.023 27.070 24.318-5.888 20.351-10.111 37.629-12.607 51.644 12.799 8.063 26.494 14.975 40.701 20.607 9.855-10.239 21.118-23.806 34.174-40.637 11.583 3.584 23.422 6.016 35.645 7.487 5.184 20.607 10.175 37.565 14.911 51.004 13.759 0.448 27.774-0.192 41.981-2.048 1.216-0.128 2.432-0.256 3.712-0.448 3.264-13.887 6.336-31.294 9.151-52.412 12.031-2.752 23.55-6.528 34.558-11.263 14.783 15.295 27.646 27.518 38.461 36.733 13.631-7.231 26.366-15.615 38.205-25.022-3.968-13.631-9.983-30.334-18.175-50.044 8.895-8.255 16.959-17.407 24.254-27.006 20.415 5.824 37.693 9.983 51.708 12.607 8.063-12.863 15.039-26.494 20.671-40.829-10.431-9.727-23.934-21.118-40.765-34.174 3.648-11.583 6.144-23.422 7.487-35.645zM774.111 915.584c-46.333 6.080-90.042-10.623-121.079-40.957-12.031-11.775-21.886-25.406-29.31-40.829-6.656-13.695-11.775-28.35-13.887-44.349-4.672-35.197 4.288-68.859 21.886-96.825 14.463-22.91 35.069-41.469 60.028-53.564 13.759-6.592 28.35-11.775 44.285-13.823 23.486-3.136 46.141 0.128 67.067 7.423 14.655 5.184 28.542 12.031 40.765 21.31 29.95 22.846 51.196 57.148 56.508 97.401 10.495 80.186-46.141 153.717-126.263 164.212z"></path>
<path fill="#000" d="M391.803 767.946h-222.768c-49.468 0-89.594-40.125-89.594-89.594v-524.763c0-49.468 40.125-89.594 89.594-89.594h524.763c49.468 0 89.594 40.125 89.594 89.594v236.207c0 2.368 46.589 6.080 63.995 11.135v-272.94c0-70.715-57.276-127.991-127.991-127.991h-575.96c-70.715 0-127.991 57.276-127.991 127.991v575.96c0 70.715 57.276 127.991 127.991 127.991h258.094c-4.48-17.471-7.935-63.995-9.727-63.995z"></path>
</svg>
