<!-- Generated by IcoMoon.io -->
<svg version="1.1" xmlns="http://www.w3.org/2000/svg" width="1024" height="1024" viewBox="0 0 1024 1024">
<title></title>
<g id="icomoon-ignore">
</g>
<path fill="#000" d="M1020.254 440.72c-4-22.438-25.503-45.029-47.754-50.121l-16.498-3.814c-39.127-11.814-73.876-37.968-95.939-76.158-22.248-38.466-27.313-82.154-17.684-122.154l4.875-15.656c6.689-21.782-2-51.781-19.312-66.534 0 0-15.688-13.248-59.88-38.809-44.185-25.53-63.371-32.502-63.371-32.502-21.439-7.749-51.69-0.372-67.188 16.376l-11.627 12.498c-29.75 28.126-69.843 45.345-113.908 45.345-44.279 0-84.498-17.344-114.278-45.657l-11.22-12.125c-15.438-16.717-45.721-24.125-67.158-16.372 0 0-19.186 6.936-63.47 32.497-44.121 25.564-59.716 38.749-59.716 38.749-17.376 14.753-26.094 44.628-19.344 66.502l4.842 15.814c9.502 39.967 4.376 83.563-17.684 122-22.127 38.345-57.218 64.563-96.503 76.247l-16.126 3.688c-22.153 5.064-43.688 27.688-47.688 50.093 0 0-3.623 20.157-3.623 71.312 0 51.158 3.623 71.221 3.623 71.221 4.032 22.499 25.534 45.061 47.688 50.248l15.754 3.503c39.438 11.747 74.624 38.060 96.875 76.561 22.154 38.437 27.218 82.125 17.623 122.127l-4.782 15.624c-6.749 21.749 1.969 51.748 19.405 66.498 0 0 15.595 13.251 59.814 38.812 44.219 25.625 63.345 32.503 63.345 32.503 21.47 7.749 51.656 0.312 67.158-16.316l11.093-11.936c29.782-28.437 70.028-45.748 114.372-45.748 44.315 0 84.628 17.437 114.535 45.748h0.028l10.971 11.936c15.498 16.628 45.623 24.065 67.121 16.316 0 0 19.125-7 63.501-32.503 44.127-25.563 59.75-38.812 59.75-38.812 17.378-14.75 26.003-44.623 19.378-66.498l-4.875-16.126c-9.377-39.875-4.252-83.377 17.684-121.624 22.314-38.562 57.441-64.754 96.814-76.561v-0.065l15.751-3.622c22.25-5.065 43.753-27.623 47.751-50.125 0 0 3.623-20.125 3.623-71.312-0.124-50.94-3.748-71.065-3.748-71.065zM511.941 676.971c-90.846 0-164.535-73.876-164.535-165 0-91 73.688-164.811 164.535-164.811 90.842 0 164.437 73.843 164.437 164.936 0 91.127-73.595 164.875-164.437 164.875z"></path>
</svg>
