<!-- Generated by IcoMoon.io -->
<svg version="1.1" xmlns="http://www.w3.org/2000/svg" width="1024" height="1024" viewBox="0 0 1024 1024">
<title></title>
<g id="icomoon-ignore">
</g>
<path fill="#000" d="M693.121 347.236c11.778 0 23.36 0.893 35.010 2.171-31.361-146.045-187.456-254.526-365.699-254.526-199.234 0-362.431 135.742-362.431 308.222 0 99.522 54.271 181.25 145.025 244.737l-36.226 108.995 126.72-63.488c45.313 8.896 81.665 18.115 126.914 18.115 11.391 0 22.656-0.511 33.794-1.342-7.040-24.259-11.199-49.605-11.199-76.036 0.061-158.341 135.998-286.85 308.094-286.85v0zM498.307 248.992c27.392 0 45.376 17.984 45.376 45.25 0 27.133-17.982 45.313-45.376 45.313-27.076 0-54.337-18.179-54.337-45.313 0-27.329 27.197-45.25 54.337-45.25v0zM244.673 339.553c-27.202 0-54.595-18.179-54.595-45.313 0-27.266 27.393-45.25 54.595-45.25 27.196 0 45.25 17.921 45.25 45.25 0.001 27.134-18.052 45.313-45.25 45.313v0zM1024.001 629.731c0-144.898-145.024-262.978-307.907-262.978-172.476 0-308.224 118.145-308.224 262.978 0 145.282 135.811 262.974 308.224 262.974 36.1 0 72.513-9.024 108.741-18.109l99.39 54.523-27.266-90.618c72.768-54.663 127.041-127.045 127.041-208.772v0zM616.129 584.353c-17.982 0-36.223-17.92-36.223-36.226 0-18.047 18.242-36.219 36.223-36.219 27.522 0 45.378 18.173 45.378 36.219-0.001 18.306-17.858 36.226-45.378 36.226v0zM815.488 584.353c-17.856 0-36.028-17.92-36.028-36.226 0-18.047 18.111-36.219 36.028-36.219 27.266 0 45.377 18.173 45.377 36.219-0.001 18.306-18.112 36.226-45.377 36.226v0z"></path>
</svg>
